SplineFontDB: 3.2
FontName: AeBonum-Italic
FullName: AeBonum-Italic
FamilyName: AeBonum
Weight: Regular
Copyright: Copyright 2021 Palle Jorgensen.\n\nBased on TeX Gyre Bonum Italic, copyright 2006, 2009 for TeX Gyre extensions by B. Jackowski and J.M. Nowacki (on behalf of TeX users groups). This work is released under the GUST Font License --  see http://tug.org/fonts/licenses/GUST-FONT-LICENSE.txt for details.
Version: 1
ItalicAngle: -10.3
UnderlinePosition: -95
UnderlineWidth: 60
Ascent: 788
Descent: 212
InvalidEm: 0
LayerCount: 2
Layer: 0 0 "Back" 1
Layer: 1 0 "Fore" 0
XUID: [1021 259 529409426 8109548]
StyleMap: 0x0001
FSType: 12
OS2Version: 3
OS2_WeightWidthSlopeOnly: 0
OS2_UseTypoMetrics: 0
CreationTime: 1257000238
ModificationTime: 1615198691
PfmFamily: 81
TTFWeight: 400
TTFWidth: 5
LineGap: 0
VLineGap: 0
Panose: 0 0 5 0 0 0 0 0 0 0
OS2TypoAscent: 788
OS2TypoAOffset: 0
OS2TypoDescent: -212
OS2TypoDOffset: 0
OS2TypoLinegap: 200
OS2WinAscent: 1073
OS2WinAOffset: 0
OS2WinDescent: 279
OS2WinDOffset: 0
HheadAscent: 1073
HheadAOffset: 0
HheadDescent: -279
HheadDOffset: 0
OS2SubXSize: 650
OS2SubYSize: 600
OS2SubXOff: -14
OS2SubYOff: 75
OS2SupXSize: 650
OS2SupYSize: 600
OS2SupXOff: 64
OS2SupYOff: 350
OS2StrikeYSize: 60
OS2StrikeYPos: 299
OS2CapHeight: 681
OS2XHeight: 499
OS2Vendor: 'UKWN'
OS2CodePages: 20000193.00000000
OS2UnicodeRanges: 20000087.00000000.00000000.00000000
Lookup: 1 0 0 "'aalt' Access All Alternates lookup 0" { "'aalt' Access All Alternates lookup 0 subtable"  } ['aalt' ('DFLT' <'dflt' > 'cyrl' <'dflt' > 'latn' <'AZE ' 'CRT ' 'MOL ' 'NLD ' 'PLK ' 'ROM ' 'TRK ' 'dflt' > ) ]
Lookup: 3 0 0 "'aalt' Access All Alternates lookup 1" { "'aalt' Access All Alternates lookup 1 subtable"  } ['aalt' ('DFLT' <'dflt' > 'cyrl' <'dflt' > 'latn' <'AZE ' 'CRT ' 'MOL ' 'NLD ' 'PLK ' 'ROM ' 'TRK ' 'dflt' > ) ]
Lookup: 1 0 0 "'locl' Localized Forms in Latin lookup 2" { "'locl' Localized Forms in Latin lookup 2 subtable"  } ['locl' ('latn' <'MOL ' 'ROM ' > ) ]

StartChar: acute.dup
Encoding: 65537 -1 1
Width: 320
Flags: MW
HStem: 554 21G<202 202> 685 20G<343 354>
LayerCount: 2
Fore
SplineSet
385 662 m 0
 385 637 364 618 315 599 c 2
 202 554 l 1
 190 583 l 1
 259 651 l 2
 299 691 322 704 343 705 c 0
 365 705 385 685 385 662 c 0
EndSplineSet
EndChar

StartChar: AE.dup
Encoding: 65538 -1 2
Width: 1220
Flags: MW
HStem: 0 29<-40 -40 -40 273 -45 -40> 0 45<828 903 828 1141> 338 47<501 700> 640 41<912 1034>
LayerCount: 2
Fore
SplineSet
1239 205 m 1x70
 1141 0 l 1
 551 0 l 1
 557 29 l 1
 573 31 l 2
 628 38 649 59 662 128 c 2
 700 338 l 1
 454 338 l 1
 266 162 l 2
 214 114 197 82 197 64 c 0
 197 37 239 34 263 31 c 2
 278 29 l 1
 273 0 l 1
 -45 0 l 1
 -40 29 l 1xa0
 44 48 124 97 195 163 c 2
 747 681 l 1
 1231 681 l 1
 1269 486 l 1
 1227 475 l 1
 1172 593 1098 640 970 640 c 0
 854 640 848 603 837 543 c 2
 808 382 l 1
 882 382 l 2
 982 382 1004 457 1018 500 c 1
 1049 500 l 1
 998 217 l 1
 966 217 l 1
 967 227 968 237 968 246 c 0
 968 308 940 338 876 338 c 2
 800 338 l 1
 762 132 l 2
 760 121 759 112 759 103 c 0
 759 56 787 45 869 45 c 0
 937 45 1022 70 1083 108 c 0
 1127 136 1161 165 1208 217 c 1
 1239 205 l 1x70
751 621 m 1
 501 385 l 1
 708 385 l 1
 751 621 l 1
EndSplineSet
EndChar

StartChar: ae.dup
Encoding: 65539 -1 3
Width: 880
Flags: MW
HStem: -9 47<226 274.5 617.5 673.5> 234 32<534 554 554 570 530 554> 458 37<331.5 391 718 763>
VStem: 71 97<90.5 127> 825 93<352.5 408.5>
LayerCount: 2
Fore
SplineSet
870 84 m 1
 788 20 714 -9 633 -9 c 0
 587 -9 485 2 438 101 c 1
 410 69 346 -9 203 -9 c 0
 123 -9 71 31 71 92 c 0
 71 162 138 230 236 261 c 0
 297 280 352 288 449 293 c 1
 458 343 461 370 461 388 c 0
 461 433 424 458 358 458 c 0
 305 458 256 439 250 389 c 0
 246 355 219 328 187 328 c 0
 165 328 148 344 148 363 c 0
 148 438 272 495 377 495 c 0
 525 495 542 427 543 424 c 1
 620 474 682 495 754 495 c 0
 851 495 918 450 918 386 c 0
 918 288 759 234 570 234 c 2
 530 234 l 1
 526 205 525 193 525 174 c 0
 525 91 577 38 658 38 c 0
 717 38 771 59 847 112 c 1
 870 84 l 1
443 258 m 1
 278 258 168 193 168 112 c 0
 168 69 202 38 250 38 c 0
 311 38 376 76 406 128 c 0
 423 157 434 195 443 258 c 1
825 389 m 0
 825 428 788 458 738 458 c 0
 646 458 564 382 534 266 c 1
 554 266 l 2
 727 266 825 316 825 389 c 0
EndSplineSet
EndChar

StartChar: cedilla.dup
Encoding: 65540 -1 4
Width: 320
Flags: MW
HStem: -202 32<108 146 108 159> -68 25<143 148.5>
VStem: 188 62<-129.5 -105.5>
LayerCount: 2
Fore
SplineSet
250 -111 m 0
 250 -156 190 -202 128 -202 c 0
 80 -202 45 -182 45 -154 c 0
 45 -139 56 -126 70 -126 c 0
 106 -126 85 -170 131 -170 c 0
 161 -170 188 -142 188 -117 c 0
 188 -94 165 -68 132 -68 c 0
 119 -68 106 -70 91 -74 c 1
 120 2 l 1
 157 2 l 1
 143 -43 l 1
 162 -43 l 2
 209 -43 250 -76 250 -111 c 0
EndSplineSet
EndChar

StartChar: circumflex.dup
Encoding: 65541 -1 5
Width: 440
Flags: MW
HStem: 568 21G<198 198> 673 20G<342 342>
LayerCount: 2
Fore
SplineSet
479 594 m 1
 454 569 l 1
 331 614 l 1
 198 568 l 1
 176 594 l 1
 342 693 l 1
 479 594 l 1
EndSplineSet
EndChar

StartChar: dieresis.dup
Encoding: 65542 -1 6
Width: 420
Flags: MW
HStem: 570 120<226.5 241 408.5 423>
VStem: 174 120<621.5 640> 356 120<621.5 640>
LayerCount: 2
Fore
SplineSet
294 640 m 0
 294 603 260 570 222 570 c 0
 193 570 174 591 174 622 c 0
 174 658 208 690 245 690 c 0
 273 690 294 669 294 640 c 0
476 640 m 0
 476 603 442 570 404 570 c 0
 375 570 356 591 356 622 c 0
 356 658 390 690 427 690 c 0
 455 690 476 669 476 640 c 0
EndSplineSet
EndChar

StartChar: l.script.dup
Encoding: 65543 -1 7
Width: 465
Flags: MW
HStem: -13 40<267 327 267 336.5> 654 40<367 445>
LayerCount: 2
Fore
SplineSet
442 90 m 1
 431 31 368 -13 305 -13 c 0
 206 -13 159 62 147 163 c 1
 125 156 103 150 81 147 c 1
 74 186 l 1
 98 190 121 196 144 204 c 1
 143 249 147 297 156 345 c 0
 188 519 277 694 426 694 c 0
 489 694 520 633 508 564 c 0
 480 409 370 270 228 196 c 1
 219 104 229 27 305 27 c 0
 349 27 395 56 402 98 c 1
 442 90 l 1
469 572 m 0
 476 613 464 654 426 654 c 0
 308 654 275 477 248 329 c 2
 234 246 l 1
 354 316 444 437 469 572 c 0
EndSplineSet
EndChar

StartChar: Gcedilla
Encoding: 65544 -1 8
Width: 760
Flags: MW
HStem: -279 21G<278 278> -71 20G<334.5 370.5> -13 47<351 408> 295 29<536 813 808 808> 647 47<392 511.5 368 525>
VStem: 88 107<190 345.5 168 390> 280 129<-138 -104>
LayerCount: 2
Fore
SplineSet
808 295 m 1
 794 293 l 2
 745 286 721 255 710 196 c 2
 674 0 l 1
 620 0 l 1
 604 74 l 1
 546 20 454 -13 362 -13 c 0
 200 -13 88 105 88 275 c 0
 88 505 262 694 474 694 c 0
 549 694 619 671 660 633 c 1
 685 681 l 1
 715 681 l 1
 736 467 l 1
 705 467 l 1
 642 590 571 647 479 647 c 0
 305 647 195 433 195 258 c 0
 195 78 314 34 388 34 c 0
 514 34 614 120 614 227 c 0
 614 266 595 284 547 293 c 2
 536 295 l 1
 541 324 l 1
 813 324 l 1
 808 295 l 1
409 -115 m 0
 409 -181 355 -248 278 -279 c 1
 269 -261 l 1
 319 -233 349 -199 361 -155 c 1
 347 -167 335 -172 321 -172 c 0
 297 -172 280 -152 280 -124 c 0
 280 -84 314 -51 355 -51 c 0
 386 -51 409 -78 409 -115 c 0
EndSplineSet
EndChar

StartChar: gcedilla
Encoding: 65545 -1 9
Width: 560
Flags: MW
HStem: -221 37<190 256 190 269> -221 132<45.5 269> -9 47<216.5 262.5> 448 47<292 365 262.5 391> 744 20G<449 449>
VStem: 59 97<121 212 116 263>
LayerCount: 2
Fore
SplineSet
447 609 m 0xbc
 447 569 413 536 372 536 c 0
 341 536 318 563 318 600 c 0
 318 666 372 733 449 764 c 1
 458 746 l 1
 408 718 378 684 366 640 c 1
 380 652 392 657 406 657 c 0
 430 657 447 637 447 609 c 0xbc
581 486 m 1
 500 42 l 2
 465 -149 348 -221 190 -221 c 0
 91 -221 4 -182 4 -138 c 0
 4 -111 30 -89 61 -89 c 0x74
 86 -89 102 -99 113 -121 c 0
 141 -176 171 -184 209 -184 c 0
 303 -184 382 -104 403 12 c 2
 422 118 l 1
 377 40 301 -9 224 -9 c 0
 125 -9 59 65 59 177 c 0
 59 349 187 495 338 495 c 0
 392 495 443 472 477 432 c 1
 500 486 l 1
 581 486 l 1
470 390 m 1
 458 402 428 448 354 448 c 0
 230 448 156 273 156 151 c 0
 156 81 189 38 244 38 c 0
 300 38 361 82 399 148 c 0
 432 206 442 241 470 390 c 1
EndSplineSet
EndChar

StartChar: germandbls.dup
Encoding: 65546 -1 10
Width: 620
Flags: MW
HStem: -110 42<-39 7> -9 42<338.5 408.5 336 434> 456 32<147 201 141 208> 667 33<450 507.5>
VStem: 393 82<421 423.5> 558 93<176 248.5> 571 80
LayerCount: 2
Fore
SplineSet
651 225 m 0xba
 651 83 501 -9 367 -9 c 0
 310 -9 269 3 227 34 c 1
 252 65 l 1
 297 40 318 33 354 33 c 0
 463 33 558 124 558 228 c 0x44
 558 269 542 291 485 324 c 0
 408 370 393 384 393 410 c 0
 393 437 416 459 482 497 c 0
 533 526 571 550 571 598 c 0
 571 641 536 667 479 667 c 0
 330 667 305 514 298 478 c 2
 242 169 l 2
 196 -80 42 -110 -28 -110 c 0
 -67 -110 -95 -104 -121 -89 c 1
 -100 -53 l 1
 -60 -66 -50 -68 -28 -68 c 0
 112 -68 139 106 151 174 c 2
 201 456 l 1
 141 456 l 1
 147 488 l 1
 208 488 l 1
 241 688 421 700 479 700 c 0
 549 700 653 681 653 597 c 0
 653 536 606 490 506 452 c 0
 483 444 475 436 475 426 c 0
 475 416 482 410 503 400 c 0
 608 344 651 307 651 225 c 0xba
EndSplineSet
EndChar

StartChar: hyphen.dup
Encoding: 65547 -1 11
Width: 320
Flags: MW
HStem: 232 53<104 308 78 336>
LayerCount: 2
Fore
SplineSet
336 285 m 1
 308 232 l 1
 78 232 l 1
 104 285 l 1
 336 285 l 1
EndSplineSet
EndChar

StartChar: Kcedilla
Encoding: 65548 -1 12
Width: 720
Flags: MW
HStem: -279 21G<295 295> -71 20G<351.5 387.5> 0 29<26 26 26 303 21 26> 652 29<139 426 421 421 799 799>
VStem: 297 129<-138 -104>
LayerCount: 2
Fore
SplineSet
755 29 m 1
 749 0 l 1
 459 0 l 1
 464 29 l 1
 480 31 l 2
 523 37 543 47 543 68 c 0
 543 76 540 86 534 98 c 2
 381 371 l 1
 258 277 l 1
 231 128 l 2
 228 114 227 101 227 89 c 0
 227 57 239 34 285 31 c 2
 308 29 l 1
 303 0 l 1
 21 0 l 1
 26 29 l 1
 43 31 l 2
 98 38 118 59 131 128 c 2
 208 553 l 2
 211 565 213 577 213 587 c 0
 213 621 196 645 155 650 c 2
 139 652 l 1
 145 681 l 1
 426 681 l 1
 421 652 l 1
 397 650 l 2
 342 643 320 621 308 553 c 2
 269 336 l 1
 562 568 l 2
 579 582 590 598 590 613 c 0
 590 629 575 644 539 650 c 2
 527 652 l 1
 532 681 l 1
 804 681 l 1
 799 652 l 1
 746 639 691 605 621 552 c 2
 459 430 l 1
 636 127 l 2
 674 62 695 44 755 29 c 1
426 -115 m 0
 426 -181 372 -248 295 -279 c 1
 286 -261 l 1
 336 -233 366 -199 378 -155 c 1
 364 -167 352 -172 338 -172 c 0
 314 -172 297 -152 297 -124 c 0
 297 -84 331 -51 372 -51 c 0
 403 -51 426 -78 426 -115 c 0
EndSplineSet
EndChar

StartChar: kcedilla
Encoding: 65549 -1 13
Width: 600
Flags: MW
HStem: -279 21G<215 215> -71 20G<271.5 307.5> -9 60<481 577> 388 107<587.5 612> 417 78<500 615> 653 29<117 122> 695 20G<269 310 310 310>
VStem: 217 129<-138 -104>
LayerCount: 2
Fore
SplineSet
642 43 m 1x28
 603 13 549 -9 513 -9 c 0
 449 -9 399 31 368 107 c 0
 356 138 345 179 323 284 c 1
 231 187 205 135 180 0 c 1
 88 0 l 1
 193 577 l 2
 194 586 195 594 195 601 c 0
 195 630 182 644 133 651 c 2
 117 653 l 1
 122 682 l 1
 191 689 224 697 269 715 c 1
 310 715 l 1
 217 201 l 1
 272 288 299 322 346 366 c 0
 432 449 521 495 597 495 c 0
 633 495 657 476 657 449 c 0
 657 416 629 388 595 388 c 0xf7
 580 388 567 393 547 405 c 0
 532 414 525 417 516 417 c 0
 484 417 426 385 405 356 c 1
 411 286 430 212 455 152 c 0
 484 83 520 51 568 51 c 0
 586 51 609 57 625 66 c 1
 642 43 l 1x28
346 -115 m 0
 346 -181 292 -248 215 -279 c 1
 206 -261 l 1
 256 -233 286 -199 298 -155 c 1
 284 -167 272 -172 258 -172 c 0
 234 -172 217 -152 217 -124 c 0
 217 -84 251 -51 292 -51 c 0
 323 -51 346 -78 346 -115 c 0
EndSplineSet
EndChar

StartChar: Lcedilla
Encoding: 65550 -1 14
Width: 580
Flags: MW
HStem: -279 21G<204 204> -71 20G<260.5 296.5> 0 29<26 26 26 559 21 26> 0 39<273 342 273 559> 652 29<139 419 413 413>
VStem: 206 129<-138 -104>
LayerCount: 2
Fore
SplineSet
656 209 m 1x18
 559 0 l 1
 21 0 l 1
 26 29 l 1xe4
 43 31 l 2
 97 38 118 59 131 128 c 2
 208 553 l 2
 211 565 213 577 213 587 c 0
 213 621 196 645 155 650 c 2
 139 652 l 1
 145 681 l 1
 419 681 l 1
 413 652 l 1
 397 650 l 2
 342 643 320 622 308 553 c 2
 233 139 l 2
 229 118 226 100 226 86 c 0
 226 55 241 39 305 39 c 0
 379 39 450 64 519 115 c 0
 558 143 583 169 627 223 c 1
 656 209 l 1x18
335 -115 m 0
 335 -181 281 -248 204 -279 c 1
 195 -261 l 1
 245 -233 275 -199 287 -155 c 1
 273 -167 261 -172 247 -172 c 0
 223 -172 206 -152 206 -124 c 0
 206 -84 240 -51 281 -51 c 0
 312 -51 335 -78 335 -115 c 0
EndSplineSet
EndChar

StartChar: lcedilla
Encoding: 65551 -1 15
Width: 280
Flags: MW
HStem: -279 21G<40 40> -71 20G<96.5 132.5> -9 57<166 259> 653 29<109 114> 695 20G<261 302 302 302>
VStem: 42 129<-138 -104> 100 93<86 93>
LayerCount: 2
Fore
SplineSet
342 64 m 1x7a
 301 17 247 -9 192 -9 c 0
 140 -9 100 32 100 85 c 0
 100 101 103 125 108 153 c 2
 185 577 l 2
 186 586 187 594 187 601 c 0
 187 631 174 644 124 651 c 2
 109 653 l 1
 114 682 l 1
 183 689 216 697 261 715 c 1
 302 715 l 1
 202 164 l 2
 193 116 193 114 193 101 c 0
 193 71 216 48 248 48 c 0
 270 48 289 58 319 85 c 1
 342 64 l 1x7a
171 -115 m 0
 171 -181 117 -248 40 -279 c 1
 31 -261 l 1
 81 -233 111 -199 123 -155 c 1
 109 -167 97 -172 83 -172 c 0
 59 -172 42 -152 42 -124 c 0x84
 42 -84 76 -51 117 -51 c 0
 148 -51 171 -78 171 -115 c 0
EndSplineSet
EndChar

StartChar: macron.dup
Encoding: 65552 -1 16
Width: 440
Flags: MW
HStem: 602 57<200 468 181 487>
LayerCount: 2
Fore
SplineSet
487 659 m 1
 468 602 l 1
 181 602 l 1
 200 659 l 1
 487 659 l 1
EndSplineSet
EndChar

StartChar: Ncedilla
Encoding: 65553 -1 17
Width: 720
Flags: MW
HStem: -279 21G<273 273> -71 20G<329.5 365.5> 0 29<23 23 23 247 18 23> 652 29<136 360 818 818>
VStem: 275 129<-138 -104>
LayerCount: 2
Fore
SplineSet
818 652 m 1
 801 650 l 2
 746 643 725 621 713 553 c 2
 612 0 l 1
 526 0 l 1
 273 622 l 1
 183 128 l 2
 180 112 179 99 179 87 c 0
 179 54 192 36 237 31 c 2
 252 29 l 1
 247 0 l 1
 18 0 l 1
 23 29 l 1
 40 31 l 2
 95 38 115 59 128 128 c 2
 205 553 l 2
 208 565 210 577 210 587 c 0
 210 621 193 645 152 650 c 2
 136 652 l 1
 142 681 l 1
 360 681 l 1
 581 130 l 1
 658 553 l 2
 660 567 661 579 661 589 c 0
 661 629 645 644 604 650 c 2
 589 652 l 1
 594 681 l 1
 823 681 l 1
 818 652 l 1
404 -115 m 0
 404 -181 350 -248 273 -279 c 1
 264 -261 l 1
 314 -233 344 -199 356 -155 c 1
 342 -167 330 -172 316 -172 c 0
 292 -172 275 -152 275 -124 c 0
 275 -84 309 -51 350 -51 c 0
 381 -51 404 -78 404 -115 c 0
EndSplineSet
EndChar

StartChar: ncedilla
Encoding: 65554 -1 18
Width: 620
Flags: MW
HStem: -279 21G<224 224> -71 20G<280.5 316.5> -9 52<516.5 600.5> 448 47<434.5 451>
VStem: 226 129<-138 -104> 450 93<83.5 95.5> 499 93<392.5 407>
LayerCount: 2
Fore
SplineSet
673 59 m 1x24
 637 15 591 -9 543 -9 c 0
 490 -9 450 32 450 86 c 0xec
 450 105 452 124 461 172 c 2
 490 329 l 2
 492 341 499 371 499 389 c 0
 499 425 472 448 430 448 c 0
 376 448 325 425 249 367 c 1
 183 0 l 1
 91 0 l 1
 156 358 l 2
 157 367 158 375 158 383 c 0
 158 410 147 425 100 433 c 2
 88 435 l 1
 93 464 l 1
 161 470 176 473 233 486 c 1
 271 486 l 1
 258 414 l 1
 339 471 401 495 468 495 c 0
 545 495 592 459 592 401 c 0x12
 592 384 585 346 580 318 c 2
 550 154 l 2
 545 125 543 112 543 99 c 0
 543 68 564 43 591 43 c 0
 610 43 624 52 653 81 c 1
 673 59 l 1x24
355 -115 m 0
 355 -181 301 -248 224 -279 c 1
 215 -261 l 1
 265 -233 295 -199 307 -155 c 1
 293 -167 281 -172 267 -172 c 0
 243 -172 226 -152 226 -124 c 0
 226 -84 260 -51 301 -51 c 0
 332 -51 355 -78 355 -115 c 0
EndSplineSet
EndChar

StartChar: OE.dup
Encoding: 65555 -1 19
Width: 1180
Flags: MW
HStem: -13 47<323 419.5> 0 42<803 876.5 803 1112> 335 47<777 845 768 859> 638 43<881.5 973.5> 647 47<394.5 565.5>
VStem: 88 110<194 346.5 194 383>
LayerCount: 2
Fore
SplineSet
1210 204 m 1x70
 1112 0 l 1
 613 0 l 1x40
 628 81 l 1
 543 16 466 -13 373 -13 c 0
 210 -13 88 108 88 270 c 0
 88 496 281 694 501 694 c 0x8c
 651 694 717 609 723 603 c 1
 737 681 l 1
 1198 681 l 1
 1237 486 l 1
 1197 475 l 1
 1164 540 1141 569 1099 596 c 0
 1054 625 1005 638 942 638 c 0
 821 638 817 605 805 538 c 2
 777 382 l 1
 859 382 l 2
 934 382 966 427 986 502 c 1
 1018 502 l 1
 966 213 l 1
 935 213 l 1
 936 221 936 229 936 236 c 0
 936 318 895 335 845 335 c 2
 768 335 l 1
 730 123 l 2
 728 114 726 105 726 98 c 0
 726 51 772 42 834 42 c 0
 919 42 991 64 1063 113 c 0
 1112 146 1144 176 1176 218 c 1
 1210 204 l 1x70
679 423 m 0
 679 523 641 647 490 647 c 0
 299 647 198 425 198 268 c 0
 198 120 265 34 381 34 c 0x8c
 567 34 679 229 679 423 c 0
EndSplineSet
EndChar

StartChar: oe.dup
Encoding: 65556 -1 20
Width: 900
Flags: MW
HStem: -9 47<641.5 700.5> 227 35<568 576 560 581> 458 37<277 392>
VStem: 65 97<135 218.5 112 278.5> 471 82<131.5 359.5> 855 93<356 412.5>
LayerCount: 2
Fore
SplineSet
896 85 m 1
 827 25 742 -9 659 -9 c 0
 585 -9 524 18 479 71 c 1
 411 15 347 -9 269 -9 c 0
 152 -9 65 77 65 193 c 0
 65 364 192 495 357 495 c 0
 440 495 494 467 539 401 c 1
 623 468 692 495 779 495 c 0
 878 495 948 449 948 385 c 0
 948 288 794 227 576 227 c 2
 560 227 l 1
 554 205 553 193 553 172 c 0
 553 91 603 38 680 38 c 0
 739 38 798 61 874 113 c 1
 896 85 l 1
471 312 m 0
 471 407 430 458 354 458 c 0
 200 458 162 263 162 174 c 0
 162 50 238 33 279 33 c 0
 402 33 471 177 471 312 c 0
855 393 m 0
 855 432 816 462 766 462 c 0
 726 462 623 446 568 262 c 1
 581 262 l 2
 741 262 855 319 855 393 c 0
EndSplineSet
EndChar

StartChar: Oslash.dup
Encoding: 65557 -1 21
Width: 760
Flags: MW
HStem: -95 21G<117 166 117 117> -13 47<362.5 481> 647 47<407 522> 758 20G<712 761 761 761>
VStem: 88 110<211 341 211 393> 689 110<344 463 299 472>
LayerCount: 2
Fore
SplineSet
799 409 m 0
 799 189 623 -13 375 -13 c 0
 322 -13 291 -7 240 13 c 1
 166 -95 l 1
 117 -95 l 1
 204 34 l 1
 161 66 88 129 88 275 c 0
 88 511 275 694 515 694 c 0
 563 694 593 689 640 672 c 1
 712 778 l 1
 761 778 l 1
 676 653 l 1
 761 592 799 517 799 409 c 0
604 618 m 1
 567 640 541 647 503 647 c 0
 311 647 198 439 198 243 c 0
 198 179 210 141 245 95 c 1
 604 618 l 1
689 440 m 0
 689 504 674 547 635 594 c 1
 276 67 l 1
 318 42 343 34 382 34 c 0
 580 34 689 248 689 440 c 0
EndSplineSet
EndChar

StartChar: oslash.dup
Encoding: 65558 -1 22
Width: 540
Flags: MW
HStem: -49 21G<66 108 66 66> -9 42<264.5 353 264.5 354> 453 42<284 373.5> 513 20G<519 559 559 559>
VStem: 65 97<157.5 211.5 153.5 256> 474 97<265.5 326 207.5 330.5>
LayerCount: 2
Fore
SplineSet
571 291 m 0
 571 124 438 -9 270 -9 c 0
 231 -9 204 -2 159 18 c 1
 108 -49 l 1
 66 -49 l 1
 132 37 l 1
 86 78 65 125 65 190 c 0
 65 322 170 495 361 495 c 0
 403 495 429 489 469 470 c 1
 519 533 l 1
 559 533 l 1
 497 453 l 1
 550 408 571 361 571 291 c 0
433 424 m 1
 409 446 391 453 356 453 c 0
 212 453 162 258 162 165 c 0
 162 142 166 126 179 96 c 1
 433 424 l 1
474 316 m 0
 474 345 469 363 452 396 c 1
 196 66 l 1
 223 42 246 33 283 33 c 0
 423 33 474 215 474 316 c 0
EndSplineSet
EndChar

StartChar: quoteleft.dup
Encoding: 65559 -1 23
Width: 280
Flags: MW
HStem: 466 121<229.5 290>
VStem: 191 129<519.5 553.5 519.5 563>
LayerCount: 2
Fore
SplineSet
320 540 m 0
 320 499 286 466 245 466 c 0
 214 466 191 494 191 530 c 0
 191 596 244 664 321 694 c 1
 330 676 l 1
 280 649 251 615 238 570 c 1
 251 582 264 587 278 587 c 0
 302 587 320 567 320 540 c 0
EndSplineSet
EndChar

StartChar: quoteright.dup
Encoding: 65560 -1 24
Width: 280
Flags: MW
HStem: 466 21G<157 157> 573 121<188 249.5>
VStem: 159 129<607.5 641>
LayerCount: 2
Fore
SplineSet
288 630 m 0
 288 564 234 497 157 466 c 1
 148 484 l 1
 198 512 228 546 240 590 c 1
 226 578 214 573 200 573 c 0
 176 573 159 594 159 621 c 0
 159 661 193 694 234 694 c 0
 265 694 288 667 288 630 c 0
EndSplineSet
EndChar

StartChar: Rcedilla
Encoding: 65561 -1 25
Width: 700
Flags: MW
HStem: -279 21G<253 253> -71 20G<309.5 345.5> 0 29<26 26 26 309 21 26> 326 37<274 398 267 399> 639 42<403.5 502> 652 29<139 514>
VStem: 255 129<-138 -104> 624 107<506.5 574.5>
LayerCount: 2
Fore
SplineSet
731 0 m 1x39
 567 0 l 1
 398 326 l 1
 267 326 l 1
 231 128 l 2
 228 114 228 102 227 90 c 0
 227 57 240 35 285 31 c 2
 314 29 l 1
 309 0 l 1
 21 0 l 1
 26 29 l 1
 43 31 l 2
 98 38 118 59 131 128 c 2
 208 553 l 2
 211 565 213 577 213 587 c 0
 213 621 195 645 155 650 c 2
 139 652 l 1x35
 145 681 l 1
 514 681 l 2
 641 681 731 646 731 533 c 0
 731 480 707 354 510 326 c 1
 630 114 l 2
 662 56 674 47 736 29 c 1
 731 0 l 1x39
624 531 m 0
 624 618 550 639 454 639 c 0xcb
 353 639 321 624 312 571 c 2
 274 363 l 1
 399 363 l 2
 517 363 624 395 624 531 c 0
384 -115 m 0
 384 -181 330 -248 253 -279 c 1
 244 -261 l 1
 294 -233 324 -199 336 -155 c 1
 322 -167 310 -172 296 -172 c 0
 272 -172 255 -152 255 -124 c 0
 255 -84 289 -51 330 -51 c 0
 361 -51 384 -78 384 -115 c 0
EndSplineSet
EndChar

StartChar: rcedilla
Encoding: 65562 -1 26
Width: 400
Flags: MW
HStem: -279 21G<51 51> -71 20G<107.5 143.5> 0 21G<91 183 91 91> 392 103<396 435> 419 76<300.5 437> 435 29<88 93>
VStem: 53 129<-138 -104>
LayerCount: 2
Fore
SplineSet
481 446 m 0x08
 481 414 454 392 416 392 c 0xd2
 376 392 363 419 335 419 c 0x08
 266 419 241 323 228 251 c 2
 183 0 l 1
 91 0 l 1
 156 358 l 2
 157 367 158 375 158 383 c 0
 158 410 147 425 100 433 c 2
 88 435 l 1
 93 464 l 1x24
 161 470 176 473 233 486 c 1
 271 486 l 1
 258 414 l 1
 313 470 363 495 417 495 c 0
 457 495 481 477 481 446 c 0x08
182 -115 m 0
 182 -181 128 -248 51 -279 c 1
 42 -261 l 1
 92 -233 122 -199 134 -155 c 1
 120 -167 108 -172 94 -172 c 0
 70 -172 53 -152 53 -124 c 0
 53 -84 87 -51 128 -51 c 0
 159 -51 182 -78 182 -115 c 0
EndSplineSet
EndChar

StartChar: tilde.dup
Encoding: 65563 -1 27
Width: 440
Flags: MW
HStem: 589 60<394 400> 610 60<263.5 274.5>
LayerCount: 2
Fore
SplineSet
489 672 m 1x80
 464 617 425 589 375 589 c 0x80
 344 589 292 610 257 610 c 0
 238 610 222 604 212 594 c 1
 181 594 l 1
 202 642 241 670 286 670 c 0x40
 322 670 382 649 406 649 c 0
 425 649 440 656 460 672 c 1
 489 672 l 1x80
EndSplineSet
EndChar

StartChar: A
Encoding: 65 65 28
Width: 700
Flags: MW
HStem: 0 29<-20 -20 -20 237 -25 -20> 253 40<269 497 269 502 246 497> 661 20G<422 518 518 518>
LayerCount: 2
Fore
SplineSet
715 0 m 1
 444 0 l 1
 449 29 l 1
 461 31 l 2
 516 40 529 60 529 90 c 0
 529 103 527 119 524 136 c 2
 502 253 l 1
 246 253 l 1
 193 157 l 2
 175 124 167 100 167 81 c 0
 167 52 188 38 230 31 c 2
 242 29 l 1
 237 0 l 1
 -25 0 l 1
 -20 29 l 1
 -7 31 l 1
 55 46 74 63 137 175 c 2
 422 681 l 1
 518 681 l 1
 624 156 l 2
 644 57 654 44 708 31 c 2
 720 29 l 1
 715 0 l 1
497 293 m 1
 434 598 l 1
 269 293 l 1
 497 293 l 1
EndSplineSet
Substitution2: "'c2sc' Capitals to Small Capitals lookup 15 subtable" a.sc
Substitution2: "'aalt' Access All Alternates lookup 0 subtable" a.sc
Position2: "'cpsp' Capital Spacing lookup 0 subtable" dx=7 dy=0 dh=14 dv=0
EndChar

StartChar: a
Encoding: 97 97 29
Width: 620
Flags: MW
HStem: -9 47<233 282> -9 60<501 604> 448 47<311.5 388 281.5 404.5>
VStem: 71 97<120.5 211.5 117.5 261.5>
LayerCount: 2
Fore
SplineSet
686 69 m 1x70
 656 25 592 -9 540 -9 c 0
 462 -9 444 70 444 96 c 0
 444 99 444 105 445 112 c 1
 384 29 321 -9 243 -9 c 0
 140 -9 71 65 71 176 c 0
 71 347 204 495 359 495 c 0
 417 495 470 473 504 435 c 1
 513 486 l 1
 605 486 l 1
 546 160 l 2
 541 134 539 117 539 105 c 0
 539 75 563 51 592 51 c 0
 616 51 644 66 664 90 c 1
 686 69 l 1x70
496 393 m 1
 460 433 428 448 381 448 c 0
 242 448 168 272 168 151 c 0
 168 84 205 38 261 38 c 0xb0
 315 38 378 78 415 137 c 0
 451 194 470 252 496 393 c 1
EndSplineSet
Substitution2: "'smcp' Lowercase to Small Capitals lookup 3 subtable" a.sc
Substitution2: "'aalt' Access All Alternates lookup 0 subtable" a.sc
EndChar

StartChar: ampersand
Encoding: 38 38 30
Width: 820
Flags: MW
HStem: -13 42<269.5 342.5 687 725.5> -13 189<647.5 807.5> 657 37<406 454.5>
VStem: 65 102<129.5 221.5> 245 89<528.5 566> 502 70<550 611> 577 142<338 383.5 338 385.5> 646 73<278 383.5> 730 118<93 131.5>
LayerCount: 2
Fore
SplineSet
848 115 m 0x4080
 848 44 773 -13 680 -13 c 0
 615 -13 571 9 523 65 c 1
 451 12 381 -13 304 -13 c 0
 166 -13 65 64 65 169 c 0
 65 274 154 370 287 407 c 1
 260 438 245 477 245 518 c 0
 245 614 336 694 446 694 c 0
 517 694 572 648 572 588 c 0
 572 512 510 445 408 407 c 1
 480 334 537 252 574 170 c 1
 612 206 646 264 646 292 c 0x7d80
 646 326 577 304 577 368 c 0x02
 577 403 613 439 648 439 c 0
 689 439 719 406 719 361 c 0
 719 315 686 234 593 132 c 1
 635 54 663 29 711 29 c 0x81
 740 29 761 41 761 58 c 0
 761 79 730 71 730 115 c 0
 730 148 758 176 792 176 c 0
 823 176 848 149 848 115 c 0x4080
502 591 m 0
 502 631 475 657 434 657 c 0
 378 657 334 609 334 548 c 0
 334 509 349 474 381 437 c 1
 402 447 502 492 502 591 c 0
505 96 m 1
 469 187 389 303 313 375 c 1
 232 364 167 274 167 175 c 0
 167 84 223 29 316 29 c 0x90
 386 29 441 48 505 96 c 1
EndSplineSet
Substitution2: "'lnum' Lining Figures lookup 6 subtable" ampersand
Substitution2: "'onum' Oldstyle Figures lookup 5 subtable" ampersand
Substitution2: "'aalt' Access All Alternates lookup 0 subtable" ampersand
EndChar

StartChar: asciicircum
Encoding: 94 94 31
Width: 600
Flags: MW
HStem: 318 21G<97 186 97 97 510 599 510 510> 702 20G<306 390 390 390>
LayerCount: 2
Fore
SplineSet
599 318 m 1
 510 318 l 1
 348 626 l 1
 186 318 l 1
 97 318 l 1
 306 722 l 1
 390 722 l 1
 599 318 l 1
EndSplineSet
EndChar

StartChar: asciitilde
Encoding: 126 126 32
Width: 600
Flags: MW
HStem: 173 77<446.5 472.5 446.5 481> 242 77<209.5 244.5>
LayerCount: 2
Fore
SplineSet
595 285 m 1x80
 558 214 507 173 455 173 c 0x80
 432 173 407 180 362 199 c 2
 308 221 l 2
 265 239 254 242 235 242 c 0
 184 242 161 200 133 152 c 1
 91 199 l 1
 142 288 179 319 235 319 c 0x40
 256 319 282 313 311 300 c 2
 376 273 l 2
 419 255 437 250 456 250 c 0
 489 250 517 274 552 332 c 1
 595 285 l 1x80
EndSplineSet
EndChar

StartChar: asterisk
Encoding: 42 42 33
Width: 440
Flags: MW
HStem: 324 21G<275 302.5> 678 20G<341.5 369>
LayerCount: 2
Fore
SplineSet
505 586 m 0
 505 557 485 541 442 533 c 2
 366 519 l 1
 360 499 l 1
 432 488 l 2
 465 482 480 471 480 451 c 0
 480 423 450 392 423 392 c 0
 409 392 397 400 383 422 c 2
 344 478 l 1
 324 470 l 1
 339 400 l 1
 341 375 l 2
 341 345 318 324 287 324 c 0
 263 324 248 336 248 356 c 0
 248 367 253 381 263 400 c 2
 300 470 l 1
 286 482 l 1
 228 423 l 2
 207 402 191 393 174 393 c 0
 156 393 139 414 139 437 c 0
 139 465 158 480 202 489 c 2
 278 503 l 1
 284 523 l 1
 212 534 l 2
 179 540 164 551 164 571 c 0
 164 599 194 630 221 630 c 0
 235 630 246 621 261 600 c 2
 300 544 l 1
 320 552 l 1
 305 622 l 1
 303 647 l 2
 303 676 326 698 357 698 c 0
 381 698 396 685 396 666 c 0
 396 655 392 643 381 622 c 2
 344 552 l 1
 358 540 l 1
 416 599 l 2
 437 620 452 629 469 629 c 0
 488 629 505 609 505 586 c 0
EndSplineSet
EndChar

StartChar: at
Encoding: 64 64 34
Width: 780
Flags: MW
HStem: -13 47<378 487.5 378 500> 160 37<355 395.5> 160 50<621 634> 516 37<417.5 477.5 395 489.5> 653 47<378.5 544>
VStem: 102 50<260 430 260 441> 231 73<261 332.5 258.5 371> 754 48<345 467>
LayerCount: 2
Fore
SplineSet
791 188 m 1xbf
 714 15 536 -13 464 -13 c 0
 263 -13 102 145 102 342 c 0
 102 540 264 700 467 700 c 0
 652 700 802 567 802 404 c 0
 802 258 675 160 593 160 c 0
 554 160 522 198 522 244 c 2
 522 255 l 1
 474 189 426 160 365 160 c 0
 285 160 231 218 231 304 c 0
 231 438 335 553 455 553 c 0
 500 553 541 536 568 507 c 1
 575 546 l 1
 647 546 l 1
 600 292 l 2
 597 275 595 257 595 250 c 0
 595 227 611 210 631 210 c 0
 680 210 754 294 754 396 c 0
 754 538 624 653 464 653 c 0
 293 653 152 514 152 346 c 0
 152 174 292 34 464 34 c 0
 511 34 663 46 745 188 c 1
 791 188 l 1xbf
562 474 m 1
 534 504 508 516 471 516 c 0
 364 516 304 380 304 285 c 0
 304 232 333 197 377 197 c 0x52
 419 197 469 229 498 274 c 0
 526 318 541 365 562 474 c 1
EndSplineSet
Substitution2: "'ss02' Style Set 2 lookup 18 subtable" at.alt
Substitution2: "'ss01' Style Set 1 lookup 17 subtable" at.alt
Substitution2: "'salt' Stylistic Alternatives lookup 16 subtable" at.alt
Substitution2: "'aalt' Access All Alternates lookup 0 subtable" at.alt
EndChar

StartChar: B
Encoding: 66 66 35
Width: 720
Flags: MW
HStem: 0 29<26 26 26 375 21 26> 0 40<300 375> 346 37<277 401 271 405> 642 39<400.5 508 508 516.5> 652 29<139 508>
VStem: 610 110<156 277.5> 644 102<525 570.5>
LayerCount: 2
Fore
SplineSet
720 227 m 0x12
 720 31 531 0 375 0 c 2
 21 0 l 1
 26 29 l 1
 43 31 l 2
 98 38 118 59 131 128 c 2
 208 553 l 2
 211 565 213 577 213 587 c 0
 213 621 196 645 155 650 c 2
 139 652 l 1xac
 145 681 l 1
 508 681 l 2
 641 681 746 653 746 542 c 0
 746 508 732 402 570 370 c 1
 598 365 720 343 720 227 c 0x12
644 533 m 0
 644 608 583 642 450 642 c 0x72
 351 642 322 627 311 569 c 2
 277 383 l 1
 405 383 l 2
 611 383 644 473 644 533 c 0
610 235 m 0
 610 320 561 346 401 346 c 2
 271 346 l 1
 230 121 l 2
 228 112 227 104 227 97 c 0
 227 53 262 40 338 40 c 0
 478 40 610 77 610 235 c 0
EndSplineSet
Substitution2: "'c2sc' Capitals to Small Capitals lookup 15 subtable" b.sc
Substitution2: "'aalt' Access All Alternates lookup 0 subtable" b.sc
Position2: "'cpsp' Capital Spacing lookup 0 subtable" dx=7 dy=0 dh=14 dv=0
EndChar

StartChar: b
Encoding: 98 98 36
Width: 600
Flags: MW
HStem: -9 47<314.5 381.5 279.5 418> 448 47<412 463> 653 29<117 122> 695 20G<269 310 310 310>
VStem: 524 97<273.5 365 225 371>
LayerCount: 2
Fore
SplineSet
621 309 m 0
 621 141 491 -9 345 -9 c 0
 284 -9 225 17 191 59 c 1
 152 0 l 1
 88 0 l 1
 193 577 l 2
 194 586 195 593 195 600 c 0
 195 632 181 644 132 651 c 2
 117 653 l 1
 122 682 l 1
 191 689 224 697 269 715 c 1
 310 715 l 1
 246 361 l 1
 292 444 371 495 453 495 c 0
 554 495 621 421 621 309 c 0
524 338 m 0
 524 404 489 448 437 448 c 0
 359 448 288 386 245 279 c 0
 227 235 216 192 198 96 c 1
 201 89 243 38 316 38 c 0
 447 38 524 209 524 338 c 0
EndSplineSet
Substitution2: "'smcp' Lowercase to Small Capitals lookup 3 subtable" b.sc
Substitution2: "'aalt' Access All Alternates lookup 0 subtable" b.sc
EndChar

StartChar: backslash
Encoding: 92 92 37
Width: 600
Flags: MW
HStem: 0 21G<465 542 465 465> 697 20G<84 162 162 162>
LayerCount: 2
Fore
SplineSet
542 0 m 1
 465 0 l 1
 84 717 l 1
 162 717 l 1
 542 0 l 1
EndSplineSet
EndChar

StartChar: bar
Encoding: 124 124 38
Width: 600
Flags: MW
HStem: -121 21G<311 389 311 311> 695 20G<311 389 389 389>
VStem: 311 78<-121 715>
LayerCount: 2
Fore
SplineSet
389 -121 m 1
 311 -121 l 1
 311 715 l 1
 389 715 l 1
 389 -121 l 1
EndSplineSet
EndChar

StartChar: braceleft
Encoding: 123 123 39
Width: 360
Flags: MW
HStem: -155 30<256 278> 720 30<391 434>
VStem: 139 70<-64.5 -54.5 -82 -42> 173 70<195.5 221>
LayerCount: 2
Fore
SplineSet
284 -125 m 1x20
 278 -155 l 1
 159 -155 139 -87 139 -42 c 0xa0
 138 -30 142 6 145 20 c 2
 168 150 l 2
 171 168 173 189 173 202 c 0
 173 240 157 265 120 284 c 1
 125 312 l 1
 185 333 207 367 220 455 c 2
 243 585 l 2
 255 656 279 750 430 750 c 2
 434 750 l 1
 429 720 l 1
 353 720 332 691 313 585 c 2
 290 455 l 2
 276 364 251 321 196 298 c 1
 230 276 243 251 243 204 c 0x50
 243 183 241 163 236 132 c 2
 215 9 l 2
 212 -7 209 -48 209 -61 c 0
 209 -103 228 -125 284 -125 c 1x20
EndSplineSet
EndChar

StartChar: braceright
Encoding: 125 125 40
Width: 360
Flags: MW
HStem: -155 30<20 36 15 57.5> 720 30<171 182 182 193>
VStem: 206 70<373.5 399.5 373.5 401> 240 70<656 672 630.5 677>
LayerCount: 2
Fore
SplineSet
325 283 m 1x20
 265 262 242 228 229 140 c 2
 206 10 l 1
 195 -92 129 -155 36 -155 c 2
 15 -155 l 1
 20 -125 l 1
 95 -125 119 -97 136 10 c 2
 159 140 l 2
 173 230 198 273 253 297 c 1
 219 318 206 344 206 390 c 0xa0
 206 412 208 432 213 462 c 2
 234 586 l 2
 237 602 239 643 240 656 c 0
 240 698 221 720 165 720 c 1
 171 750 l 1
 182 750 l 2
 261 750 310 707 310 637 c 0x50
 310 624 306 589 304 575 c 2
 281 445 l 2
 278 427 276 406 276 393 c 0
 276 354 292 330 330 311 c 1
 325 283 l 1x20
EndSplineSet
EndChar

StartChar: bracketleft
Encoding: 91 91 41
Width: 260
Flags: MW
HStem: -121 31<188 194> 684 31<301.5 326 326 340>
LayerCount: 2
Fore
SplineSet
200 -90 m 1
 194 -121 l 1
 51 -121 l 1
 203 715 l 1
 346 715 l 1
 340 684 l 1
 326 684 l 2
 277 684 270 677 259 615 c 2
 143 -21 l 2
 137 -54 137 -56 137 -62 c 0
 137 -82 152 -90 188 -90 c 2
 200 -90 l 1
EndSplineSet
EndChar

StartChar: bracketright
Encoding: 93 93 42
Width: 260
Flags: MW
HStem: -120 31<18 32 32 56 18 154 12 32> 684 31<164 182>
LayerCount: 2
Fore
SplineSet
306 715 m 1
 154 -120 l 1
 12 -120 l 1
 18 -89 l 1
 32 -89 l 2
 80 -89 87 -82 98 -20 c 2
 214 615 l 2
 220 651 220 651 220 657 c 0
 220 678 206 684 158 684 c 1
 164 715 l 1
 306 715 l 1
EndSplineSet
EndChar

StartChar: C
Encoding: 67 67 43
Width: 720
Flags: MW
HStem: -13 47<344 457> 647 47<413 529 382.5 550>
VStem: 88 107<188.5 251 251 253 184.5 389>
LayerCount: 2
Fore
SplineSet
731 183 m 1
 664 57 528 -13 386 -13 c 0
 207 -13 88 102 88 275 c 0
 88 503 272 694 493 694 c 0
 565 694 614 676 673 630 c 1
 703 681 l 1
 746 681 l 1
 746 444 l 1
 708 444 l 1
 660 589 600 647 500 647 c 0
 326 647 195 454 195 253 c 2
 195 251 l 2
 195 118 279 34 409 34 c 0
 523 34 624 95 690 203 c 1
 731 183 l 1
EndSplineSet
Substitution2: "'c2sc' Capitals to Small Capitals lookup 15 subtable" c.sc
Substitution2: "'aalt' Access All Alternates lookup 0 subtable" c.sc
Position2: "'cpsp' Capital Spacing lookup 0 subtable" dx=7 dy=0 dh=14 dv=0
EndChar

StartChar: c
Encoding: 99 99 44
Width: 480
Flags: MW
HStem: -9 47<257 306.5> 326 169<288 481> 458 37<298 376>
VStem: 65 102<135.5 232.5 135.5 270.5> 429 93<383.5 410.5>
LayerCount: 2
Fore
SplineSet
494 94 m 1xb8
 441 33 347 -9 266 -9 c 0
 147 -9 65 72 65 190 c 0
 65 351 208 495 368 495 c 0
 455 495 522 448 522 387 c 0
 522 352 498 326 464 326 c 0xd8
 442 326 426 340 426 360 c 0
 426 366 429 376 429 391 c 0
 429 430 398 458 354 458 c 0
 242 458 167 289 167 176 c 0
 167 95 219 38 295 38 c 0
 349 38 406 64 472 119 c 1
 494 94 l 1xb8
EndSplineSet
Substitution2: "'smcp' Lowercase to Small Capitals lookup 3 subtable" c.sc
Substitution2: "'aalt' Access All Alternates lookup 0 subtable" c.sc
EndChar

StartChar: colon
Encoding: 58 58 45
Width: 300
Flags: MW
HStem: -13 135<153.5 171> 364 135<214.5 232>
VStem: 96 135<44 62.5> 157 135<421 439.5>
LayerCount: 2
Fore
SplineSet
231 64 m 0xe0
 231 24 192 -13 150 -13 c 0
 118 -13 96 9 96 41 c 0
 96 84 133 122 174 122 c 0
 208 122 231 98 231 64 c 0xe0
292 441 m 0
 292 401 253 364 211 364 c 0
 179 364 157 386 157 418 c 0x50
 157 461 194 499 235 499 c 0
 269 499 292 475 292 441 c 0
EndSplineSet
EndChar

StartChar: comma
Encoding: 44 44 46
Width: 300
Flags: MW
HStem: -115 21G<97 97> -9 121<127.5 189>
VStem: 99 128<25.5 59>
LayerCount: 2
Fore
SplineSet
227 48 m 0
 227 -18 174 -85 97 -115 c 1
 88 -97 l 1
 139 -69 168 -35 180 8 c 1
 167 -4 155 -9 139 -9 c 0
 116 -9 99 12 99 39 c 0
 99 79 133 112 174 112 c 0
 204 112 227 85 227 48 c 0
EndSplineSet
EndChar

StartChar: D
Encoding: 68 68 47
Width: 740
Flags: MW
HStem: 0 29<26 26 26 373 21 26> 0 39<290.5 373> 640 41<402 472 472 522> 652 29<139 472>
VStem: 675 107<348 473 336.5 486>
LayerCount: 2
Fore
SplineSet
782 404 m 0x20
 782 269 700 0 373 0 c 2
 21 0 l 1
 26 29 l 1
 43 31 l 2
 98 38 118 59 131 128 c 2
 208 553 l 2
 211 565 213 577 213 587 c 0
 213 621 196 645 155 650 c 2
 139 652 l 1x98
 145 681 l 1
 472 681 l 2
 720 681 782 542 782 404 c 0x20
675 416 m 0
 675 556 592 640 452 640 c 0
 352 640 321 625 312 572 c 2
 228 110 l 2
 226 102 226 95 226 88 c 0
 226 49 255 39 326 39 c 0x68
 605 39 675 280 675 416 c 0
EndSplineSet
Substitution2: "'c2sc' Capitals to Small Capitals lookup 15 subtable" d.sc
Substitution2: "'aalt' Access All Alternates lookup 0 subtable" d.sc
Position2: "'cpsp' Capital Spacing lookup 0 subtable" dx=7 dy=0 dh=14 dv=0
EndChar

StartChar: d
Encoding: 100 100 48
Width: 640
Flags: MW
HStem: -9 52<233 293.5 233 302> 448 47<306.5 386 276.5 402> 653 29<457 463> 695 20G<610 651 651 651>
VStem: 65 101<122.5 216 120 264.5>
LayerCount: 2
Fore
SplineSet
695 66 m 1
 650 16 600 -9 544 -9 c 0
 490 -9 446 31 446 81 c 0
 446 90 446 96 451 122 c 1
 438 100 366 -9 238 -9 c 0
 134 -9 65 66 65 179 c 0
 65 350 198 495 355 495 c 0
 417 495 461 477 508 433 c 1
 534 577 l 2
 535 586 536 593 536 600 c 0
 536 632 522 644 473 651 c 2
 457 653 l 1
 463 682 l 1
 532 689 565 697 610 715 c 1
 651 715 l 1
 549 165 l 2
 543 142 540 119 540 96 c 0
 540 64 561 43 594 43 c 0
 620 43 637 53 672 87 c 1
 695 66 l 1
499 389 m 1
 462 431 427 448 377 448 c 0
 236 448 166 277 166 155 c 0
 166 85 202 43 264 43 c 0
 323 43 377 78 420 142 c 0
 453 192 470 241 491 347 c 2
 499 389 l 1
EndSplineSet
Substitution2: "'smcp' Lowercase to Small Capitals lookup 3 subtable" d.sc
Substitution2: "'aalt' Access All Alternates lookup 0 subtable" d.sc
EndChar

StartChar: dollar
Encoding: 36 36 49
Width: 620
Flags: MW
HStem: -85 21G<264 306 264 264> 742 20G<418 460 460 460>
VStem: 78 118<180 190> 140 93<472 519> 510 96<187.5 241> 510 109
LayerCount: 2
Fore
SplineSet
606 241 m 0x54
 606 131 483 36 326 25 c 1
 306 -85 l 1
 264 -85 l 1
 284 25 l 1
 184 31 78 80 78 168 c 0
 78 212 106 243 146 243 c 0
 174 243 196 222 196 196 c 0xa8
 196 164 177 152 177 133 c 0
 177 120 193 77 291 67 c 1
 335 305 l 1
 234 325 140 357 140 464 c 0
 140 574 246 649 399 661 c 1
 418 762 l 1
 460 762 l 1
 441 659 l 1
 603 636 619 553 619 526 c 0
 619 490 592 460 559 460 c 0
 534 460 511 480 511 502 c 0
 511 521 526 539 526 555 c 0
 526 567 507 606 434 620 c 1
 393 394 l 1
 458 379 606 360 606 241 c 0x54
352 401 m 1
 392 622 l 1
 300 619 233 565 233 495 c 0x18
 233 449 261 427 352 401 c 1
510 201 m 0
 510 281 413 287 375 296 c 1
 334 68 l 1
 494 84 510 174 510 201 c 0
EndSplineSet
Substitution2: "'onum' Oldstyle Figures lookup 5 subtable" dollar.oldstyle
Substitution2: "'aalt' Access All Alternates lookup 0 subtable" dollar.oldstyle
EndChar

StartChar: E
Encoding: 69 69 50
Width: 680
Flags: MW
HStem: 0 29<26 26 26 608 21 26> 0 43<293 369 293 608> 336 44<277 352 269 354> 638 43<382.5 494.5> 652 29<139 698>
LayerCount: 2
Fore
SplineSet
707 205 m 1x70
 608 0 l 1
 21 0 l 1
 26 29 l 1
 43 31 l 2
 98 38 119 60 131 128 c 2
 208 553 l 2
 211 565 213 577 213 587 c 0
 213 621 196 645 155 650 c 2
 139 652 l 1x88
 145 681 l 1
 698 681 l 1
 736 484 l 1
 694 474 l 1
 629 604 553 638 436 638 c 0
 329 638 318 606 310 560 c 2
 277 380 l 1
 354 380 l 2
 430 380 460 407 489 501 c 1
 521 501 l 1
 469 214 l 1
 437 214 l 1
 438 221 438 228 438 234 c 0
 438 298 414 336 352 336 c 2
 269 336 l 1
 229 115 l 2
 228 109 227 103 227 98 c 0
 227 58 256 43 330 43 c 0
 408 43 489 67 553 109 c 0
 596 137 628 166 675 218 c 1
 707 205 l 1x70
EndSplineSet
Substitution2: "'c2sc' Capitals to Small Capitals lookup 15 subtable" e.sc
Substitution2: "'aalt' Access All Alternates lookup 0 subtable" e.sc
Position2: "'cpsp' Capital Spacing lookup 0 subtable" dx=7 dy=0 dh=14 dv=0
EndChar

StartChar: e
Encoding: 101 101 51
Width: 540
Flags: MW
HStem: -9 60<267 320> 458 37<369.5 416>
VStem: 65 109<139 188 139 261.5> 478 97<341.5 407>
LayerCount: 2
Fore
SplineSet
527 87 m 1
 445 24 359 -9 281 -9 c 0
 157 -9 65 71 65 178 c 0
 65 345 229 495 411 495 c 0
 505 495 575 449 575 387 c 0
 575 289 436 233 179 218 c 1
 175 203 174 194 174 182 c 0
 174 96 222 51 312 51 c 0
 371 51 415 65 501 114 c 1
 527 87 l 1
478 386 m 0
 478 428 442 458 390 458 c 0
 349 458 244 439 186 255 c 1
 199 255 l 2
 321 255 478 297 478 386 c 0
EndSplineSet
Substitution2: "'smcp' Lowercase to Small Capitals lookup 3 subtable" e.sc
Substitution2: "'aalt' Access All Alternates lookup 0 subtable" e.sc
EndChar

StartChar: eight
Encoding: 56 56 52
Width: 620
Flags: MW
HStem: -13 42<258 366 258 393.5> 657 37<397 485>
VStem: 61 82<116.5 197.5 116.5 208.5> 163 107<495.5 542> 515 102<159 228> 573 82<517 586>
LayerCount: 2
Fore
SplineSet
617 226 m 0xf4
 617 92 481 -13 306 -13 c 0
 159 -13 61 56 61 160 c 0
 61 257 134 329 264 360 c 1
 191 392 163 426 163 484 c 0
 163 600 287 694 438 694 c 0
 566 694 655 634 655 547 c 0
 655 449 565 407 469 384 c 1
 542 353 617 323 617 226 c 0xf4
573 554 m 0
 573 618 524 657 446 657 c 0
 348 657 270 596 270 520 c 0
 270 471 302 446 418 404 c 1
 513 422 573 480 573 554 c 0
515 187 m 0
 515 269 442 291 364 320 c 0
 352 325 334 331 311 340 c 1
 212 315 143 240 143 155 c 0
 143 78 207 29 309 29 c 0
 423 29 515 100 515 187 c 0
EndSplineSet
Substitution2: "'pnum' Proportional Numbers lookup 7 subtable" eight.prop
Substitution2: "'onum' Oldstyle Figures lookup 5 subtable" eight.oldstyle
AlternateSubs2: "'aalt' Access All Alternates lookup 1 subtable" eight.oldstyle eight.prop
EndChar

StartChar: equal
Encoding: 61 61 53
Width: 600
Flags: MW
HStem: 126 78<90 610 90 610> 296 78<90 610 90 610>
LayerCount: 2
Fore
SplineSet
610 296 m 1
 90 296 l 1
 90 374 l 1
 610 374 l 1
 610 296 l 1
610 126 m 1
 90 126 l 1
 90 204 l 1
 610 204 l 1
 610 126 l 1
EndSplineSet
EndChar

StartChar: exclam
Encoding: 33 33 54
Width: 320
Flags: MW
HStem: -13 135<160.5 178> 674 20G<252 302.5>
VStem: 103 135<44 62.5> 193 149<401 652>
LayerCount: 2
Fore
SplineSet
342 632 m 0xd0
 342 592 332 558 280 424 c 0
 238 314 225 266 209 180 c 1
 172 180 l 1
 188 270 193 342 193 460 c 0
 193 641 220 694 284 694 c 0
 321 694 342 672 342 632 c 0xd0
238 64 m 0
 238 24 199 -13 157 -13 c 0
 125 -13 103 9 103 41 c 0xa0
 103 84 140 122 181 122 c 0
 215 122 238 98 238 64 c 0
EndSplineSet
EndChar

StartChar: F
Encoding: 70 70 55
Width: 620
Flags: MW
HStem: 0 29<26 26 26 309 21 26> 335 40<276 344 269 357> 638 43<389.5 508.5> 652 29<139 698>
LayerCount: 2
Fore
SplineSet
743 483 m 1x20
 705 471 l 1
 650 587 571 638 446 638 c 0x20
 333 638 320 622 304 531 c 2
 276 375 l 1
 357 375 l 2
 462 375 476 431 496 500 c 1
 529 500 l 1
 476 210 l 1
 444 210 l 1
 445 281 448 335 344 335 c 2
 269 335 l 1
 231 128 l 2
 228 113 227 100 227 88 c 0
 227 55 240 36 293 31 c 2
 314 29 l 1
 309 0 l 1
 21 0 l 1
 26 29 l 1
 43 31 l 2
 98 38 118 59 131 128 c 2
 208 553 l 2
 211 565 213 577 213 587 c 0
 213 621 196 645 155 650 c 2
 139 652 l 1xd0
 145 681 l 1
 698 681 l 1
 743 483 l 1x20
EndSplineSet
Substitution2: "'c2sc' Capitals to Small Capitals lookup 15 subtable" f.sc
Substitution2: "'aalt' Access All Alternates lookup 0 subtable" f.sc
Position2: "'cpsp' Capital Spacing lookup 0 subtable" dx=7 dy=0 dh=14 dv=0
EndChar

StartChar: f
Encoding: 102 102 56
Width: 340
Flags: MW
HStem: -206 35<8.5 57 8.5 77> -206 115<-128 77> 454 32<131 215 125 219 313 408> 627 101<410 523.5> 695 33<410 425>
LayerCount: 2
Fore
SplineSet
557 668 m 0xa8
 557 645 536 627 511 627 c 0x10
 490 627 474 638 461 661 c 0
 445 688 436 695 414 695 c 0
 348 695 337 621 330 579 c 2
 313 486 l 1
 414 486 l 1
 408 454 l 1
 307 454 l 1
 237 69 l 2
 217 -42 175 -206 -21 -206 c 0
 -100 -206 -160 -174 -160 -132 c 0
 -160 -109 -141 -91 -115 -91 c 0x68
 -89 -91 -76 -99 -45 -135 c 0
 -24 -160 -3 -171 20 -171 c 0
 94 -171 119 -70 148 84 c 2
 215 454 l 1
 125 454 l 1
 131 486 l 1
 219 486 l 1
 230 554 240 588 258 620 c 0
 296 687 369 728 451 728 c 0
 512 728 557 703 557 668 c 0xa8
EndSplineSet
Substitution2: "'smcp' Lowercase to Small Capitals lookup 3 subtable" f.sc
Substitution2: "'aalt' Access All Alternates lookup 0 subtable" f.sc
EndChar

StartChar: five
Encoding: 53 53 57
Width: 620
Flags: MW
HStem: -13 42<258.5 340.5 258.5 369.5> 412 52<363 406.5> 601 80<247 587 247 247>
VStem: 70 102<78.5 92.5 63.5 137> 70 118<78.5 165> 501 110<204.5 315.5>
LayerCount: 2
Fore
SplineSet
611 285 m 0xf4
 611 120 462 -13 277 -13 c 0
 157 -13 70 41 70 116 c 0
 70 158 105 197 141 197 c 0
 168 197 188 178 188 152 c 0x8c
 188 132 172 101 172 84 c 0
 172 43 239 29 278 29 c 0
 403 29 501 136 501 273 c 0
 501 358 448 412 365 412 c 0
 297 412 242 382 186 313 c 1
 136 329 l 1
 209 681 l 1
 614 681 l 1
 587 601 l 1
 247 601 l 1
 199 387 l 1
 265 440 326 464 400 464 c 0
 527 464 611 393 611 285 c 0xf4
EndSplineSet
Substitution2: "'pnum' Proportional Numbers lookup 7 subtable" five.prop
Substitution2: "'onum' Oldstyle Figures lookup 5 subtable" five.oldstyle
AlternateSubs2: "'aalt' Access All Alternates lookup 1 subtable" five.oldstyle five.prop
EndChar

StartChar: four
Encoding: 52 52 58
Width: 620
Flags: MW
HStem: 0 29<264 264 264 551 259 264> 186 53<138 388 492 610> 661 20G<478 572 572 572>
LayerCount: 2
Fore
SplineSet
634 239 m 1
 610 186 l 1
 482 186 l 1
 470 118 l 2
 469 111 468 104 468 98 c 0
 468 61 486 33 523 31 c 2
 556 29 l 1
 551 0 l 1
 259 0 l 1
 264 29 l 1
 289 31 l 2
 339 34 368 68 378 128 c 2
 388 186 l 1
 79 186 l 1
 69 226 l 1
 478 681 l 1
 572 681 l 1
 492 239 l 1
 634 239 l 1
398 239 m 1
 463 599 l 1
 138 239 l 1
 398 239 l 1
EndSplineSet
Substitution2: "'pnum' Proportional Numbers lookup 7 subtable" four.prop
Substitution2: "'onum' Oldstyle Figures lookup 5 subtable" four.oldstyle
AlternateSubs2: "'aalt' Access All Alternates lookup 1 subtable" four.oldstyle four.prop
EndChar

StartChar: G
Encoding: 71 71 59
Width: 760
Flags: MW
HStem: -13 47<351 408> 295 29<536 813 808 808> 647 47<392 511.5 368 525>
VStem: 88 107<190 345.5 168 390>
LayerCount: 2
Fore
SplineSet
808 295 m 1
 794 293 l 2
 745 286 721 255 710 196 c 2
 674 0 l 1
 620 0 l 1
 604 74 l 1
 546 20 454 -13 362 -13 c 0
 200 -13 88 105 88 275 c 0
 88 505 262 694 474 694 c 0
 549 694 619 671 660 633 c 1
 685 681 l 1
 715 681 l 1
 736 467 l 1
 705 467 l 1
 642 590 571 647 479 647 c 0
 305 647 195 433 195 258 c 0
 195 78 314 34 388 34 c 0
 514 34 614 120 614 227 c 0
 614 266 595 284 547 293 c 2
 536 295 l 1
 541 324 l 1
 813 324 l 1
 808 295 l 1
EndSplineSet
Substitution2: "'c2sc' Capitals to Small Capitals lookup 15 subtable" g.sc
Substitution2: "'aalt' Access All Alternates lookup 0 subtable" g.sc
Position2: "'cpsp' Capital Spacing lookup 0 subtable" dx=7 dy=0 dh=14 dv=0
EndChar

StartChar: g
Encoding: 103 103 60
Width: 560
Flags: MW
HStem: -221 37<190 256 190 269> -221 132<45.5 269> -9 47<216.5 262.5> 448 47<292 365 262.5 391>
VStem: 59 97<121 212 116 263>
LayerCount: 2
Fore
SplineSet
581 486 m 1xb8
 500 42 l 2
 465 -149 348 -221 190 -221 c 0
 91 -221 4 -182 4 -138 c 0
 4 -111 30 -89 61 -89 c 0x78
 86 -89 102 -99 113 -121 c 0
 141 -176 171 -184 209 -184 c 0
 303 -184 382 -104 403 12 c 2
 422 118 l 1
 377 40 301 -9 224 -9 c 0
 125 -9 59 65 59 177 c 0
 59 349 187 495 338 495 c 0
 392 495 443 472 477 432 c 1
 500 486 l 1
 581 486 l 1xb8
470 390 m 1
 458 402 428 448 354 448 c 0
 230 448 156 273 156 151 c 0
 156 81 189 38 244 38 c 0
 300 38 361 82 399 148 c 0
 432 206 442 241 470 390 c 1
EndSplineSet
Substitution2: "'smcp' Lowercase to Small Capitals lookup 3 subtable" g.sc
Substitution2: "'aalt' Access All Alternates lookup 0 subtable" g.sc
EndChar

StartChar: grave
Encoding: 96 96 61
Width: 340
Flags: MW
HStem: 685 20G<242 253>
LayerCount: 2
Fore
SplineSet
362 583 m 1
 339 554 l 1
 242 599 l 2
 200 618 186 637 195 662 c 0
 204 685 231 705 253 705 c 0
 274 704 292 691 317 651 c 2
 362 583 l 1
EndSplineSet
EndChar

StartChar: greater
Encoding: 62 62 62
Width: 600
Flags: MW
HStem: -44 21G<111 111> 524 20G<111 111>
LayerCount: 2
Fore
SplineSet
570 216 m 1
 111 -44 l 1
 111 46 l 1
 472 250 l 1
 111 454 l 1
 111 544 l 1
 570 284 l 1
 570 216 l 1
EndSplineSet
EndChar

StartChar: H
Encoding: 72 72 63
Width: 800
Flags: MW
HStem: 0 29<26 26 26 307 21 26> 347 40<278 640 271 648> 652 29<139 431 425 425 883 883>
LayerCount: 2
Fore
SplineSet
770 29 m 1
 764 0 l 1
 478 0 l 1
 484 29 l 1
 512 31 l 2
 567 38 589 60 601 128 c 2
 640 347 l 1
 271 347 l 1
 231 128 l 2
 228 114 227 101 227 89 c 0
 227 57 239 34 285 31 c 2
 312 29 l 1
 307 0 l 1
 21 0 l 1
 26 29 l 1
 43 31 l 2
 98 38 118 59 131 128 c 2
 208 553 l 2
 211 565 213 577 213 587 c 0
 213 621 196 645 155 650 c 2
 139 652 l 1
 145 681 l 1
 431 681 l 1
 425 652 l 1
 397 650 l 2
 342 643 320 621 308 553 c 2
 278 387 l 1
 648 387 l 1
 678 553 l 2
 681 567 683 580 683 592 c 0
 683 623 670 646 624 650 c 2
 597 652 l 1
 602 681 l 1
 888 681 l 1
 883 652 l 1
 866 650 l 2
 811 643 791 622 778 553 c 2
 701 128 l 2
 698 116 696 104 696 93 c 0
 696 60 713 36 754 31 c 2
 770 29 l 1
EndSplineSet
Substitution2: "'c2sc' Capitals to Small Capitals lookup 15 subtable" h.sc
Substitution2: "'aalt' Access All Alternates lookup 0 subtable" h.sc
Position2: "'cpsp' Capital Spacing lookup 0 subtable" dx=7 dy=0 dh=14 dv=0
EndChar

StartChar: h
Encoding: 104 104 64
Width: 620
Flags: MW
HStem: -9 52<516.5 607> 448 47<433.5 448> 653 29<117 122> 695 20G<269 310 310 310>
VStem: 447 93<80.5 95> 495 93<396.5 405>
LayerCount: 2
Fore
SplineSet
689 61 m 1x88
 649 17 597 -9 544 -9 c 0
 489 -9 447 33 447 88 c 0x88
 447 102 449 122 453 144 c 2
 490 347 l 2
 493 364 495 379 495 387 c 0
 495 423 467 448 429 448 c 0
 379 448 312 417 246 364 c 1
 180 0 l 1
 88 0 l 1
 193 577 l 2
 194 586 195 593 195 600 c 0
 195 632 181 644 132 651 c 2
 117 653 l 1
 122 682 l 1
 191 689 224 697 269 715 c 1
 310 715 l 1
 255 412 l 1
 350 475 400 495 467 495 c 0
 537 495 588 458 588 405 c 0x74
 588 388 584 360 578 325 c 2
 547 153 l 2
 540 114 541 107 540 96 c 0
 540 65 563 43 595 43 c 0
 619 43 637 53 668 83 c 1
 689 61 l 1x88
EndSplineSet
Substitution2: "'smcp' Lowercase to Small Capitals lookup 3 subtable" h.sc
Substitution2: "'aalt' Access All Alternates lookup 0 subtable" h.sc
EndChar

StartChar: hyphen
Encoding: 45 45 65
Width: 320
Flags: MW
HStem: 232 53<104 308 78 336>
LayerCount: 2
Fore
SplineSet
336 285 m 1
 308 232 l 1
 78 232 l 1
 104 285 l 1
 336 285 l 1
EndSplineSet
EndChar

StartChar: I
Encoding: 73 73 66
Width: 320
Flags: MW
HStem: 0 29<26 26 26 288 21 26> 652 29<139 412 407 407>
LayerCount: 2
Fore
SplineSet
294 29 m 1
 288 0 l 1
 21 0 l 1
 26 29 l 1
 43 31 l 2
 96 39 116 61 128 128 c 2
 205 553 l 2
 207 567 210 580 210 591 c 0
 210 625 195 645 155 650 c 2
 139 652 l 1
 145 681 l 1
 412 681 l 1
 407 652 l 1
 390 650 l 2
 337 642 317 620 305 553 c 2
 228 128 l 2
 225 114 224 101 224 90 c 0
 224 56 238 36 278 31 c 2
 294 29 l 1
EndSplineSet
Substitution2: "'c2sc' Capitals to Small Capitals lookup 15 subtable" i.sc
Substitution2: "'aalt' Access All Alternates lookup 0 subtable" i.sc
Position2: "'cpsp' Capital Spacing lookup 0 subtable" dx=7 dy=0 dh=14 dv=0
EndChar

StartChar: i
Encoding: 105 105 67
Width: 280
Flags: MW
HStem: -9 52<177.5 267> 435 29<88 93> 466 20G<233 271 271 271> 570 121<244 257.5>
VStem: 111 93<84.5 98.5> 191 121<622 640.5>
LayerCount: 2
Fore
SplineSet
351 65 m 1xe8
 305 15 258 -9 207 -9 c 0
 148 -9 111 30 111 93 c 0
 111 104 112 117 114 128 c 2
 156 358 l 2
 158 367 158 372 158 383 c 0
 158 412 142 426 100 433 c 2
 88 435 l 1
 93 464 l 1
 161 470 176 473 233 486 c 1
 271 486 l 1
 206 128 l 2
 205 119 204 112 204 102 c 0
 204 67 225 43 257 43 c 0
 277 43 298 55 328 86 c 1
 351 65 l 1xe8
312 641 m 0x14
 312 603 277 570 238 570 c 0
 210 570 191 591 191 622 c 0
 191 659 225 691 263 691 c 0
 291 691 312 670 312 641 c 0x14
EndSplineSet
Substitution2: "'smcp' Lowercase to Small Capitals lookup 3 subtable" i.sc
Substitution2: "'aalt' Access All Alternates lookup 0 subtable" i.sc
EndChar

StartChar: J
Encoding: 74 74 68
Width: 560
Flags: MW
HStem: -13 47<163.5 282 163.5 332> 652 29<387 666 661 661>
VStem: -2 77<108 135.5 100.5 192> -2 136<108 246>
LayerCount: 2
Fore
SplineSet
661 652 m 1xe0
 644 650 l 2
 589 643 568 622 556 553 c 2
 502 255 l 2
 486 167 455 -13 209 -13 c 0
 83 -13 -2 57 -2 159 c 0
 -2 225 36 276 86 276 c 0
 114 276 134 259 134 233 c 0xd0
 134 211 126 198 97 172 c 0
 81 158 75 145 75 126 c 0
 75 75 129 34 198 34 c 0
 366 34 392 202 400 246 c 2
 456 553 l 2
 459 568 459 582 460 593 c 0
 460 627 447 644 402 650 c 2
 387 652 l 1
 392 681 l 1
 666 681 l 1
 661 652 l 1xe0
EndSplineSet
Substitution2: "'c2sc' Capitals to Small Capitals lookup 15 subtable" j.sc
Substitution2: "'aalt' Access All Alternates lookup 0 subtable" j.sc
Position2: "'cpsp' Capital Spacing lookup 0 subtable" dx=7 dy=0 dh=14 dv=0
EndChar

StartChar: j
Encoding: 106 106 69
Width: 280
Flags: MW
HStem: -221 37<-42 16.5 -42 43> -221 117<-161 43> 435 29<91 96> 466 20G<236 274 274 274> 570 121<247 260.5>
VStem: 194 121<622 640.5>
LayerCount: 2
Fore
SplineSet
274 486 m 1xb0
 191 31 l 2
 178 -39 151 -221 -65 -221 c 0
 -141 -221 -200 -190 -200 -151 c 0
 -200 -124 -177 -104 -145 -104 c 0x50
 -120 -104 -103 -115 -85 -144 c 0
 -66 -176 -54 -184 -30 -184 c 0
 63 -184 82 -65 100 36 c 2
 160 362 l 2
 161 369 161 372 161 381 c 0
 161 412 146 425 102 433 c 2
 91 435 l 1
 96 464 l 1
 163 470 179 473 236 486 c 1
 274 486 l 1xb0
315 641 m 0x0c
 315 603 280 570 241 570 c 0
 213 570 194 591 194 622 c 0
 194 659 228 691 266 691 c 0
 294 691 315 670 315 641 c 0x0c
EndSplineSet
Substitution2: "'smcp' Lowercase to Small Capitals lookup 3 subtable" j.sc
Substitution2: "'aalt' Access All Alternates lookup 0 subtable" j.sc
EndChar

StartChar: K
Encoding: 75 75 70
Width: 720
Flags: MW
HStem: 0 29<26 26 26 303 21 26> 652 29<139 426 421 421 799 799>
LayerCount: 2
Fore
SplineSet
755 29 m 1
 749 0 l 1
 459 0 l 1
 464 29 l 1
 480 31 l 2
 523 37 543 47 543 68 c 0
 543 76 540 86 534 98 c 2
 381 371 l 1
 258 277 l 1
 231 128 l 2
 228 114 227 101 227 89 c 0
 227 57 239 34 285 31 c 2
 308 29 l 1
 303 0 l 1
 21 0 l 1
 26 29 l 1
 43 31 l 2
 98 38 118 59 131 128 c 2
 208 553 l 2
 211 565 213 577 213 587 c 0
 213 621 196 645 155 650 c 2
 139 652 l 1
 145 681 l 1
 426 681 l 1
 421 652 l 1
 397 650 l 2
 342 643 320 621 308 553 c 2
 269 336 l 1
 562 568 l 2
 579 582 590 598 590 613 c 0
 590 629 575 644 539 650 c 2
 527 652 l 1
 532 681 l 1
 804 681 l 1
 799 652 l 1
 746 639 691 605 621 552 c 2
 459 430 l 1
 636 127 l 2
 674 62 695 44 755 29 c 1
EndSplineSet
Substitution2: "'c2sc' Capitals to Small Capitals lookup 15 subtable" k.sc
Substitution2: "'aalt' Access All Alternates lookup 0 subtable" k.sc
Position2: "'cpsp' Capital Spacing lookup 0 subtable" dx=7 dy=0 dh=14 dv=0
EndChar

StartChar: k
Encoding: 107 107 71
Width: 600
Flags: MW
HStem: -9 60<481 577> 388 107<587.5 612> 417 78<500 615> 653 29<117 122> 695 20G<269 310 310 310>
LayerCount: 2
Fore
SplineSet
642 43 m 1xa0
 603 13 549 -9 513 -9 c 0
 449 -9 399 31 368 107 c 0
 356 138 345 179 323 284 c 1
 231 187 205 135 180 0 c 1
 88 0 l 1
 193 577 l 2
 194 586 195 594 195 601 c 0
 195 630 182 644 133 651 c 2
 117 653 l 1
 122 682 l 1
 191 689 224 697 269 715 c 1
 310 715 l 1
 217 201 l 1
 272 288 299 322 346 366 c 0
 432 449 521 495 597 495 c 0
 633 495 657 476 657 449 c 0
 657 416 629 388 595 388 c 0xd8
 580 388 567 393 547 405 c 0
 532 414 525 417 516 417 c 0
 484 417 426 385 405 356 c 1
 411 286 430 212 455 152 c 0
 484 83 520 51 568 51 c 0
 586 51 609 57 625 66 c 1
 642 43 l 1xa0
EndSplineSet
Substitution2: "'smcp' Lowercase to Small Capitals lookup 3 subtable" k.sc
Substitution2: "'aalt' Access All Alternates lookup 0 subtable" k.sc
EndChar

StartChar: L
Encoding: 76 76 72
Width: 580
Flags: MW
HStem: 0 29<26 26 26 559 21 26> 0 39<273 342 273 559> 652 29<139 419 413 413>
LayerCount: 2
Fore
SplineSet
656 209 m 1x60
 559 0 l 1
 21 0 l 1
 26 29 l 1x80
 43 31 l 2
 97 38 118 59 131 128 c 2
 208 553 l 2
 211 565 213 577 213 587 c 0
 213 621 196 645 155 650 c 2
 139 652 l 1
 145 681 l 1
 419 681 l 1
 413 652 l 1
 397 650 l 2
 342 643 320 622 308 553 c 2
 233 139 l 2
 229 118 226 100 226 86 c 0
 226 55 241 39 305 39 c 0
 379 39 450 64 519 115 c 0
 558 143 583 169 627 223 c 1
 656 209 l 1x60
EndSplineSet
Substitution2: "'c2sc' Capitals to Small Capitals lookup 15 subtable" l.sc
Substitution2: "'aalt' Access All Alternates lookup 0 subtable" l.sc
Position2: "'cpsp' Capital Spacing lookup 0 subtable" dx=7 dy=0 dh=14 dv=0
EndChar

StartChar: l
Encoding: 108 108 73
Width: 280
Flags: MW
HStem: -9 57<166 259> 653 29<109 114> 695 20G<261 302 302 302>
VStem: 100 93<86 93>
LayerCount: 2
Fore
SplineSet
342 64 m 1
 301 17 247 -9 192 -9 c 0
 140 -9 100 32 100 85 c 0
 100 101 103 125 108 153 c 2
 185 577 l 2
 186 586 187 594 187 601 c 0
 187 631 174 644 124 651 c 2
 109 653 l 1
 114 682 l 1
 183 689 216 697 261 715 c 1
 302 715 l 1
 202 164 l 2
 193 116 193 114 193 101 c 0
 193 71 216 48 248 48 c 0
 270 48 289 58 319 85 c 1
 342 64 l 1
EndSplineSet
Substitution2: "'smcp' Lowercase to Small Capitals lookup 3 subtable" l.sc
Substitution2: "'aalt' Access All Alternates lookup 0 subtable" l.sc
EndChar

StartChar: less
Encoding: 60 60 74
Width: 600
Flags: MW
HStem: -44 21G<570 570> 524 20G<570 570>
LayerCount: 2
Fore
SplineSet
570 -44 m 1
 111 216 l 1
 111 284 l 1
 570 544 l 1
 570 454 l 1
 209 250 l 1
 570 46 l 1
 570 -44 l 1
EndSplineSet
EndChar

StartChar: M
Encoding: 77 77 75
Width: 860
Flags: MW
HStem: 0 29<23 23 23 247 18 23> 652 29<136 365 951 951>
LayerCount: 2
Fore
SplineSet
838 29 m 1
 832 0 l 1
 558 0 l 1
 564 29 l 1
 580 31 l 2
 635 38 657 59 669 128 c 2
 756 612 l 1
 415 0 l 1
 372 0 l 1
 272 620 l 1
 183 128 l 2
 180 112 179 99 179 87 c 0
 179 54 192 36 237 31 c 2
 252 29 l 1
 247 0 l 1
 18 0 l 1
 23 29 l 1
 40 31 l 2
 95 38 115 59 128 128 c 2
 205 553 l 2
 208 565 210 577 210 587 c 0
 210 621 193 645 152 650 c 2
 136 652 l 1
 142 681 l 1
 365 681 l 1
 449 156 l 1
 741 681 l 1
 956 681 l 1
 951 652 l 1
 934 650 l 2
 879 643 859 622 846 553 c 2
 769 128 l 2
 766 116 764 104 764 93 c 0
 764 60 781 36 822 31 c 2
 838 29 l 1
EndSplineSet
Substitution2: "'c2sc' Capitals to Small Capitals lookup 15 subtable" m.sc
Substitution2: "'aalt' Access All Alternates lookup 0 subtable" m.sc
Position2: "'cpsp' Capital Spacing lookup 0 subtable" dx=7 dy=0 dh=14 dv=0
EndChar

StartChar: m
Encoding: 109 109 76
Width: 880
Flags: MW
HStem: -9 52<798 884> 435 29<88 93> 448 47<411 426.5 716.5 731>
VStem: 733 93<79 95> 780 94<399 404.5>
LayerCount: 2
Fore
SplineSet
952 48 m 1x88
 917 12 870 -9 825 -9 c 0
 771 -9 733 32 733 90 c 0x90
 733 100 736 129 739 146 c 2
 774 337 l 2
 779 363 780 373 780 385 c 0
 780 424 753 448 709 448 c 0
 670 448 616 425 564 387 c 1
 494 0 l 1
 402 0 l 1
 461 324 l 2
 465 345 467 364 467 381 c 0
 467 422 452 448 401 448 c 0x28
 360 448 300 423 253 387 c 1
 183 0 l 1
 91 0 l 1
 156 358 l 2
 157 367 158 375 158 383 c 0
 158 410 147 425 100 433 c 2
 88 435 l 1
 93 464 l 1x40
 161 470 176 473 233 486 c 1
 271 486 l 1
 262 433 l 1
 331 477 383 495 439 495 c 0
 505 495 545 471 561 423 c 1
 625 472 684 495 749 495 c 0
 827 495 874 459 874 399 c 0x28
 872 387 873 370 868 345 c 2
 833 162 l 2
 829 135 826 107 826 95 c 0x10
 826 63 845 43 874 43 c 0
 894 43 911 51 934 73 c 1
 952 48 l 1x88
EndSplineSet
Substitution2: "'smcp' Lowercase to Small Capitals lookup 3 subtable" m.sc
Substitution2: "'aalt' Access All Alternates lookup 0 subtable" m.sc
EndChar

StartChar: N
Encoding: 78 78 77
Width: 720
Flags: MW
HStem: 0 29<23 23 23 247 18 23> 652 29<136 360 818 818>
LayerCount: 2
Fore
SplineSet
818 652 m 1
 801 650 l 2
 746 643 725 621 713 553 c 2
 612 0 l 1
 526 0 l 1
 273 622 l 1
 183 128 l 2
 180 112 179 99 179 87 c 0
 179 54 192 36 237 31 c 2
 252 29 l 1
 247 0 l 1
 18 0 l 1
 23 29 l 1
 40 31 l 2
 95 38 115 59 128 128 c 2
 205 553 l 2
 208 565 210 577 210 587 c 0
 210 621 193 645 152 650 c 2
 136 652 l 1
 142 681 l 1
 360 681 l 1
 581 130 l 1
 658 553 l 2
 660 567 661 579 661 589 c 0
 661 629 645 644 604 650 c 2
 589 652 l 1
 594 681 l 1
 823 681 l 1
 818 652 l 1
EndSplineSet
Substitution2: "'c2sc' Capitals to Small Capitals lookup 15 subtable" n.sc
Substitution2: "'aalt' Access All Alternates lookup 0 subtable" n.sc
Position2: "'cpsp' Capital Spacing lookup 0 subtable" dx=7 dy=0 dh=14 dv=0
EndChar

StartChar: n
Encoding: 110 110 78
Width: 620
Flags: MW
HStem: -9 52<516.5 600.5> 448 47<434.5 451>
VStem: 450 93<83.5 95.5> 499 93<392.5 407>
LayerCount: 2
Fore
SplineSet
673 59 m 1xa0
 637 15 591 -9 543 -9 c 0
 490 -9 450 32 450 86 c 0xa0
 450 105 452 124 461 172 c 2
 490 329 l 2
 492 341 499 371 499 389 c 0
 499 425 472 448 430 448 c 0
 376 448 325 425 249 367 c 1
 183 0 l 1
 91 0 l 1
 156 358 l 2
 157 367 158 375 158 383 c 0
 158 410 147 425 100 433 c 2
 88 435 l 1
 93 464 l 1
 161 470 176 473 233 486 c 1
 271 486 l 1
 258 414 l 1
 339 471 401 495 468 495 c 0
 545 495 592 459 592 401 c 0x50
 592 384 585 346 580 318 c 2
 550 154 l 2
 545 125 543 112 543 99 c 0
 543 68 564 43 591 43 c 0
 610 43 624 52 653 81 c 1
 673 59 l 1xa0
EndSplineSet
Substitution2: "'smcp' Lowercase to Small Capitals lookup 3 subtable" n.sc
Substitution2: "'aalt' Access All Alternates lookup 0 subtable" n.sc
EndChar

StartChar: nine
Encoding: 57 57 79
Width: 620
Flags: MW
HStem: -13 42<254 344 254 412.5> -13 176<119 412.5> 249 47<304 357.5> 652 42<347 455.5>
VStem: 77 107<72 77 62 119> 111 102<382.5 469 382.5 496> 547 102<470.5 536.5 388 563>
LayerCount: 2
Fore
SplineSet
649 468 m 0xb4
 649 308 556 -13 269 -13 c 0
 167 -13 77 41 77 103 c 0
 77 135 104 163 134 163 c 0
 165 163 188 138 188 104 c 0
 188 95 184 80 184 74 c 0x6a
 184 50 228 29 280 29 c 0
 408 29 495 143 533 358 c 1
 465 280 402 249 313 249 c 0
 195 249 111 322 111 425 c 0
 111 567 258 694 422 694 c 0
 559 694 649 605 649 468 c 0xb4
547 524 m 0
 547 602 496 652 415 652 c 0
 279 652 213 519 213 419 c 0x16
 213 346 266 296 342 296 c 0
 472 296 547 417 547 524 c 0
EndSplineSet
Substitution2: "'pnum' Proportional Numbers lookup 7 subtable" nine.prop
Substitution2: "'onum' Oldstyle Figures lookup 5 subtable" nine.oldstyle
AlternateSubs2: "'aalt' Access All Alternates lookup 1 subtable" nine.oldstyle nine.prop
EndChar

StartChar: numbersign
Encoding: 35 35 80
Width: 620
Flags: MW
HStem: 0 21G<186 244 186 186 376 434 376 376> 216 57<107 218 107 226 284 408 107 275 474 569> 405 57<136 245 136 254 136 303 311 435 501 598> 646 20G<284 341 341 341 474 531 531 531>
LayerCount: 2
Fore
SplineSet
569 216 m 1
 465 216 l 1
 434 0 l 1
 376 0 l 1
 408 216 l 1
 275 216 l 1
 244 0 l 1
 186 0 l 1
 218 216 l 1
 107 216 l 1
 107 273 l 1
 226 273 l 1
 245 405 l 1
 136 405 l 1
 136 462 l 1
 254 462 l 1
 284 666 l 1
 341 666 l 1
 311 462 l 1
 444 462 l 1
 474 666 l 1
 531 666 l 1
 501 462 l 1
 598 462 l 1
 598 405 l 1
 493 405 l 1
 474 273 l 1
 569 273 l 1
 569 216 l 1
416 273 m 1
 435 405 l 1
 303 405 l 1
 284 273 l 1
 416 273 l 1
EndSplineSet
EndChar

StartChar: O
Encoding: 79 79 81
Width: 760
Flags: MW
HStem: -13 47<327 485 327 501.5> 647 47<405 557>
VStem: 88 110<191 339 184 377> 689 110<350.5 491 298 502.5>
LayerCount: 2
Fore
SplineSet
799 406 m 0
 799 190 624 -13 379 -13 c 0
 206 -13 88 105 88 277 c 0
 88 477 247 694 512 694 c 0
 681 694 799 576 799 406 c 0
689 441 m 0
 689 564 613 647 501 647 c 0
 309 647 198 429 198 249 c 0
 198 119 271 34 383 34 c 0
 587 34 689 260 689 441 c 0
EndSplineSet
Substitution2: "'c2sc' Capitals to Small Capitals lookup 15 subtable" o.sc
Substitution2: "'aalt' Access All Alternates lookup 0 subtable" o.sc
Position2: "'cpsp' Capital Spacing lookup 0 subtable" dx=7 dy=0 dh=14 dv=0
EndChar

StartChar: o
Encoding: 111 111 82
Width: 540
Flags: MW
HStem: -9 42<243 356.5 243 356.5> 453 42<289 380.5>
VStem: 65 97<130.5 224.5 130.5 265.5> 470 102<277.5 351.5 207 372>
LayerCount: 2
Fore
SplineSet
572 290 m 0
 572 124 439 -9 274 -9 c 0
 149 -9 65 71 65 190 c 0
 65 341 183 495 364 495 c 0
 489 495 572 413 572 290 c 0
470 314 m 0
 470 430 403 453 358 453 c 0
 220 453 162 273 162 176 c 0
 162 85 205 33 281 33 c 0
 432 33 470 241 470 314 c 0
EndSplineSet
Substitution2: "'smcp' Lowercase to Small Capitals lookup 3 subtable" o.sc
Substitution2: "'aalt' Access All Alternates lookup 0 subtable" o.sc
EndChar

StartChar: one
Encoding: 49 49 83
Width: 620
Flags: MW
HStem: 0 29<159 159 159 495 154 159> 614 28<271 271 271 290 266 271> 661 20G<455 495 495 495>
LayerCount: 2
Fore
SplineSet
495 0 m 1
 154 0 l 1
 159 29 l 1
 285 36 290 70 299 121 c 2
 375 540 l 2
 377 546 377 552 377 561 c 0
 377 602 358 614 290 614 c 2
 266 614 l 1
 271 642 l 1
 372 658 384 661 455 681 c 1
 495 681 l 1
 394 127 l 2
 392 115 390 94 390 84 c 0
 390 49 411 35 473 31 c 2
 500 29 l 1
 495 0 l 1
EndSplineSet
Substitution2: "'pnum' Proportional Numbers lookup 7 subtable" one.prop
Substitution2: "'onum' Oldstyle Figures lookup 5 subtable" one.oldstyle
AlternateSubs2: "'aalt' Access All Alternates lookup 1 subtable" one.oldstyle one.prop
EndChar

StartChar: P
Encoding: 80 80 84
Width: 600
Flags: MW
HStem: 0 29<26 26 26 309 21 26> 289 37<267 353 260 360> 639 42<388.5 450 450 476> 652 29<139 450>
VStem: 584 97<485 566.5>
LayerCount: 2
Fore
SplineSet
681 518 m 0x20
 681 321 512 289 353 289 c 2
 260 289 l 1
 231 128 l 2
 229 115 226 103 226 92 c 0
 226 57 242 33 285 31 c 2
 314 29 l 1
 309 0 l 1
 21 0 l 1
 26 29 l 1
 43 31 l 2
 98 38 118 59 131 128 c 2
 208 553 l 2
 211 565 213 577 213 587 c 0
 213 621 196 645 155 650 c 2
 139 652 l 1xd8
 145 681 l 1
 450 681 l 2
 582 681 681 654 681 518 c 0x20
584 518 m 0
 584 615 517 639 435 639 c 0x28
 342 639 317 600 311 569 c 2
 267 326 l 1
 360 326 l 2
 557 326 584 452 584 518 c 0
EndSplineSet
Substitution2: "'c2sc' Capitals to Small Capitals lookup 15 subtable" p.sc
Substitution2: "'aalt' Access All Alternates lookup 0 subtable" p.sc
Position2: "'cpsp' Capital Spacing lookup 0 subtable" dx=7 dy=0 dh=14 dv=0
EndChar

StartChar: p
Encoding: 112 112 85
Width: 600
Flags: MW
HStem: -212 29<-19 -19 -19 240 -24 -19> -9 47<316.5 389 300 417.5> 435 29<98 103> 448 47<416 466>
VStem: 527 93<275 368.5 228.5 371.5>
LayerCount: 2
Fore
SplineSet
620 314 m 0x10
 620 143 490 -9 345 -9 c 0
 288 -9 236 14 202 55 c 1
 173 -107 l 2
 171 -115 171 -122 171 -129 c 0
 171 -164 193 -177 230 -181 c 2
 245 -183 l 1
 240 -212 l 1
 -24 -212 l 1
 -19 -183 l 1
 -2 -181 l 2
 50 -175 72 -155 81 -107 c 2
 166 358 l 2
 167 367 168 375 168 383 c 0
 168 410 157 425 109 433 c 2
 98 435 l 1
 103 464 l 1xe8
 170 470 186 473 243 486 c 1
 281 486 l 1
 257 353 l 1
 296 440 374 495 458 495 c 0
 555 495 620 423 620 314 c 0x10
527 339 m 0
 527 404 492 448 440 448 c 0x18
 362 448 282 372 244 244 c 0
 239 228 233 200 220 142 c 0
 219 136 218 129 210 95 c 1
 236 58 276 38 324 38 c 0
 454 38 527 211 527 339 c 0
EndSplineSet
Substitution2: "'smcp' Lowercase to Small Capitals lookup 3 subtable" p.sc
Substitution2: "'aalt' Access All Alternates lookup 0 subtable" p.sc
EndChar

StartChar: parenleft
Encoding: 40 40 86
Width: 280
Flags: MW
HStem: -120 21G<226 226> 695 20G<378 378>
VStem: 91 82<29.5 95 11.5 123>
LayerCount: 2
Fore
SplineSet
373 686 m 1
 318 658 290 619 259 524 c 0
 218 399 173 149 173 41 c 0
 173 -18 188 -60 232 -89 c 1
 226 -120 l 1
 143 -99 91 -22 91 81 c 0
 91 165 120 336 155 460 c 0
 197 610 263 695 378 715 c 1
 373 686 l 1
EndSplineSet
EndChar

StartChar: parenright
Encoding: 41 41 87
Width: 280
Flags: MW
HStem: -120 21G<0 0> 695 20G<152 152>
VStem: 205 82<499.5 565 471 582>
LayerCount: 2
Fore
SplineSet
223 135 m 0
 181 -16 115 -100 0 -120 c 1
 5 -91 l 1
 60 -63 88 -24 119 71 c 0
 160 196 205 446 205 553 c 0
 205 611 190 654 146 684 c 1
 152 715 l 1
 235 694 287 617 287 513 c 0
 287 429 258 259 223 135 c 0
EndSplineSet
EndChar

StartChar: percent
Encoding: 37 37 88
Width: 800
Flags: MW
HStem: -8 33<578 657.5 578 658.5> 265 33<177 256.5 177 257.5> 383 33<610.5 690> 656 33<209.5 289>
VStem: 56 70<377.5 433 370.5 471> 340 70<509 574.5 452 585> 457 70<105 160 97.5 199> 741 70<236 301.5 179 311.5>
LayerCount: 2
Fore
SplineSet
410 524 m 0
 410 380 316 265 199 265 c 0
 112 265 56 329 56 426 c 0
 56 516 117 689 271 689 c 0
 356 689 410 625 410 524 c 0
340 551 m 0
 340 619 313 656 265 656 c 0
 154 656 126 463 126 403 c 0
 126 338 154 298 200 298 c 0
 313 298 340 467 340 551 c 0
647 681 m 1
 273 0 l 1
 221 0 l 1
 595 681 l 1
 647 681 l 1
811 251 m 0
 811 107 717 -8 600 -8 c 0
 513 -8 457 56 457 154 c 0
 457 244 519 416 672 416 c 0
 757 416 811 352 811 251 c 0
741 278 m 0
 741 345 714 383 666 383 c 0
 555 383 527 190 527 130 c 0
 527 65 555 25 601 25 c 0
 714 25 741 194 741 278 c 0
EndSplineSet
EndChar

StartChar: period
Encoding: 46 46 89
Width: 300
Flags: MW
HStem: -13 135<153.5 171>
VStem: 96 135<44 62.5>
LayerCount: 2
Fore
SplineSet
231 64 m 0
 231 24 192 -13 150 -13 c 0
 118 -13 96 9 96 41 c 0
 96 84 133 122 174 122 c 0
 208 122 231 98 231 64 c 0
EndSplineSet
EndChar

StartChar: plus
Encoding: 43 43 90
Width: 600
Flags: MW
HStem: -10 21G<311 389 311 311> 211 78<90 311 90 311 389 610> 490 20G<311 389 389 389>
VStem: 311 78<-10 211 -10 211 289 510>
LayerCount: 2
Fore
SplineSet
610 211 m 1
 389 211 l 1
 389 -10 l 1
 311 -10 l 1
 311 211 l 1
 90 211 l 1
 90 289 l 1
 311 289 l 1
 311 510 l 1
 389 510 l 1
 389 289 l 1
 610 289 l 1
 610 211 l 1
EndSplineSet
EndChar

StartChar: Q
Encoding: 81 81 91
Width: 780
Flags: MW
HStem: -191 47<298.5 429 298.5 444> -13 37<400 426.5> 98 68<422 464.5> 647 47<393 585>
VStem: 61 110<-95.5 -75.5 -97.5 -44> 80 107<190.5 313.5 190.5 371> 594 82<-29.5 2.5> 702 110<416.5 480.5>
LayerCount: 2
Fore
SplineSet
812 406 m 0xd6
 812 276 752 155 651 78 c 1
 669 55 676 33 676 4 c 0
 676 -107 537 -191 351 -191 c 0
 206 -191 61 -132 61 -59 c 0
 61 -29 91 -3 125 -3 c 0
 153 -3 176 -22 176 -45 c 0
 176 -59 171 -70 171 -81 c 0xab
 171 -114 253 -144 344 -144 c 0
 514 -144 594 -58 594 -1 c 0
 594 6 590 17 583 32 c 1
 512 -2 463 -13 390 -13 c 0
 206 -13 80 100 80 266 c 0
 80 476 244 694 506 694 c 0
 694 694 812 583 812 406 c 0xd6
702 440 m 0
 702 521 663 647 507 647 c 0
 279 647 187 390 187 237 c 0x75
 187 144 231 44 342 25 c 1
 323 42 317 54 317 73 c 0
 317 127 379 166 465 166 c 0
 518 166 553 156 600 129 c 1
 689 221 702 393 702 440 c 0
547 71 m 1
 516 90 486 98 443 98 c 0
 393 98 360 80 360 54 c 0
 360 36 383 24 417 24 c 0
 462 24 512 42 547 71 c 1
EndSplineSet
Substitution2: "'c2sc' Capitals to Small Capitals lookup 15 subtable" q.sc
Substitution2: "'aalt' Access All Alternates lookup 0 subtable" q.sc
Position2: "'cpsp' Capital Spacing lookup 0 subtable" dx=7 dy=0 dh=14 dv=0
EndChar

StartChar: q
Encoding: 113 113 92
Width: 560
Flags: MW
HStem: -212 29<285 285 285 543 279 285> -9 47<223 269.5> 448 47<294 369 265.5 381>
VStem: 65 93<126 223 121 267>
LayerCount: 2
Fore
SplineSet
549 -183 m 1
 543 -212 l 1
 279 -212 l 1
 285 -183 l 1
 301 -181 l 2
 353 -175 375 -155 384 -107 c 2
 425 118 l 1
 378 36 309 -9 230 -9 c 0
 131 -9 65 68 65 184 c 0
 65 350 193 495 338 495 c 0
 400 495 443 475 490 425 c 1
 529 486 l 1
 584 486 l 1
 476 -107 l 2
 475 -115 474 -123 474 -130 c 0
 474 -160 487 -175 533 -181 c 2
 549 -183 l 1
476 396 m 1
 448 432 403 448 359 448 c 0
 229 448 158 287 158 159 c 0
 158 83 193 38 253 38 c 0
 313 38 375 83 413 154 c 0
 442 207 453 250 476 396 c 1
EndSplineSet
Substitution2: "'smcp' Lowercase to Small Capitals lookup 3 subtable" q.sc
Substitution2: "'aalt' Access All Alternates lookup 0 subtable" q.sc
EndChar

StartChar: question
Encoding: 63 63 93
Width: 540
Flags: MW
HStem: -13 136<234.5 252> 657 37<326 409>
VStem: 114 102<562.5 567> 176 136<44.5 63> 497 107<519 584.5 495 585.5>
LayerCount: 2
Fore
SplineSet
604 538 m 0xe8
 604 452 544 371 430 336 c 0
 330 306 297 269 285 177 c 1
 240 177 l 1
 255 296 266 312 378 379 c 0
 476 437 497 485 497 553 c 0
 497 618 449 657 369 657 c 0
 283 657 216 619 216 571 c 0
 216 554 226 541 226 528 c 0
 226 499 196 472 165 472 c 0
 135 472 114 492 114 522 c 0
 114 612 238 694 373 694 c 0
 510 694 604 631 604 538 c 0xe8
312 65 m 0
 312 24 273 -13 231 -13 c 0
 198 -13 176 9 176 41 c 0x90
 176 85 213 123 256 123 c 0
 289 123 312 99 312 65 c 0
EndSplineSet
EndChar

StartChar: quotedbl
Encoding: 34 34 94
Width: 360
Flags: MW
HStem: 462 21G<107 142 107 107 254 254 254 289> 674 20G<199.5 225.5 346.5 372.5>
LayerCount: 2
Fore
SplineSet
255 662 m 0
 255 651 251 642 237 619 c 2
 142 462 l 1
 107 462 l 1
 164 648 l 2
 175 684 186 694 213 694 c 0
 238 694 255 681 255 662 c 0
402 662 m 0
 402 651 398 642 384 619 c 2
 289 462 l 1
 254 462 l 1
 311 648 l 2
 322 684 333 694 360 694 c 0
 385 694 402 681 402 662 c 0
EndSplineSet
EndChar

StartChar: quotesingle
Encoding: 39 39 95
Width: 200
Flags: MW
HStem: 462 21G<99 134 99 99> 674 20G<191.5 217.5>
LayerCount: 2
Fore
SplineSet
247 662 m 0
 247 651 243 642 229 619 c 2
 134 462 l 1
 99 462 l 1
 156 648 l 2
 167 684 178 694 205 694 c 0
 230 694 247 681 247 662 c 0
EndSplineSet
EndChar

StartChar: R
Encoding: 82 82 96
Width: 700
Flags: MW
HStem: 0 29<26 26 26 309 21 26> 326 37<274 398 267 399> 639 42<403.5 502> 652 29<139 514>
VStem: 624 107<506.5 574.5>
LayerCount: 2
Fore
SplineSet
731 0 m 1xe8
 567 0 l 1
 398 326 l 1
 267 326 l 1
 231 128 l 2
 228 114 228 102 227 90 c 0
 227 57 240 35 285 31 c 2
 314 29 l 1
 309 0 l 1
 21 0 l 1
 26 29 l 1
 43 31 l 2
 98 38 118 59 131 128 c 2
 208 553 l 2
 211 565 213 577 213 587 c 0
 213 621 195 645 155 650 c 2
 139 652 l 1xd8
 145 681 l 1
 514 681 l 2
 641 681 731 646 731 533 c 0
 731 480 707 354 510 326 c 1
 630 114 l 2
 662 56 674 47 736 29 c 1
 731 0 l 1xe8
624 531 m 0
 624 618 550 639 454 639 c 0x28
 353 639 321 624 312 571 c 2
 274 363 l 1
 399 363 l 2
 517 363 624 395 624 531 c 0
EndSplineSet
Substitution2: "'c2sc' Capitals to Small Capitals lookup 15 subtable" r.sc
Substitution2: "'aalt' Access All Alternates lookup 0 subtable" r.sc
Position2: "'cpsp' Capital Spacing lookup 0 subtable" dx=7 dy=0 dh=14 dv=0
EndChar

StartChar: r
Encoding: 114 114 97
Width: 400
Flags: MW
HStem: 0 21G<91 183 91 91> 392 103<396 435> 419 76<300.5 437> 435 29<88 93>
LayerCount: 2
Fore
SplineSet
481 446 m 0x20
 481 414 454 392 416 392 c 0x40
 376 392 363 419 335 419 c 0x20
 266 419 241 323 228 251 c 2
 183 0 l 1
 91 0 l 1
 156 358 l 2
 157 367 158 375 158 383 c 0
 158 410 147 425 100 433 c 2
 88 435 l 1
 93 464 l 1x90
 161 470 176 473 233 486 c 1
 271 486 l 1
 258 414 l 1
 313 470 363 495 417 495 c 0
 457 495 481 477 481 446 c 0x20
EndSplineSet
Substitution2: "'smcp' Lowercase to Small Capitals lookup 3 subtable" r.sc
Substitution2: "'aalt' Access All Alternates lookup 0 subtable" r.sc
EndChar

StartChar: S
Encoding: 83 83 98
Width: 640
Flags: MW
HStem: -13 47<309 405.5 289 436> 652 42<367 443.5>
VStem: 136 107<501 548> 556 107<164 233.5>
LayerCount: 2
Fore
SplineSet
663 231 m 0
 663 97 522 -13 350 -13 c 0
 268 -13 206 6 147 50 c 1
 119 0 l 1
 83 0 l 1
 61 247 l 1
 100 247 l 1
 138 112 229 34 349 34 c 0
 462 34 556 109 556 200 c 0
 556 267 496 282 381 312 c 0
 288 336 254 348 216 367 c 0
 166 392 136 439 136 491 c 0
 136 605 257 694 411 694 c 0
 479 694 528 680 586 644 c 1
 605 681 l 1
 637 681 l 1
 668 486 l 1
 633 486 l 1
 606 542 593 564 571 587 c 0
 532 628 473 652 414 652 c 0
 320 652 243 592 243 520 c 0
 243 482 268 457 325 438 c 0
 351 429 391 418 512 385 c 0
 619 356 663 311 663 231 c 0
EndSplineSet
Substitution2: "'c2sc' Capitals to Small Capitals lookup 15 subtable" s.sc
Substitution2: "'aalt' Access All Alternates lookup 0 subtable" s.sc
Position2: "'cpsp' Capital Spacing lookup 0 subtable" dx=7 dy=0 dh=14 dv=0
EndChar

StartChar: s
Encoding: 115 115 99
Width: 540
Flags: MW
HStem: -9 37<266.5 328 266.5 351> -9 151<96 351> 363 132<282.5 514.5> 458 37<304 355.5>
VStem: 131 102<367.5 389> 419 102<112 141.5>
LayerCount: 2
Fore
SplineSet
521 160 m 0x18
 521 64 419 -9 283 -9 c 0
 172 -9 65 43 65 97 c 0
 65 123 84 142 108 142 c 0x44
 138 142 154 129 183 84 c 0
 209 44 241 28 292 28 c 0
 364 28 419 69 419 123 c 0
 419 160 396 180 331 201 c 0
 255 225 219 238 190 253 c 0
 154 273 131 309 131 346 c 0
 131 432 221 495 344 495 c 0
 448 495 547 451 547 405 c 0
 547 381 528 363 501 363 c 0xac
 474 363 466 369 436 414 c 0
 418 440 377 458 334 458 c 0
 274 458 233 426 233 379 c 0
 233 356 244 336 266 323 c 0
 281 314 298 308 364 287 c 0
 449 261 521 236 521 160 c 0x18
EndSplineSet
Substitution2: "'smcp' Lowercase to Small Capitals lookup 3 subtable" s.sc
Substitution2: "'aalt' Access All Alternates lookup 0 subtable" s.sc
EndChar

StartChar: semicolon
Encoding: 59 59 100
Width: 300
Flags: MW
HStem: -115 21G<97 97> -9 121<127.5 189> 364 135<214.5 232>
VStem: 99 128<25.5 59> 157 135<421 439.5>
LayerCount: 2
Fore
SplineSet
227 48 m 0xf0
 227 -18 174 -85 97 -115 c 1
 88 -97 l 1
 139 -69 168 -35 180 8 c 1
 167 -4 155 -9 139 -9 c 0
 116 -9 99 12 99 39 c 0
 99 79 133 112 174 112 c 0
 204 112 227 85 227 48 c 0xf0
292 441 m 0
 292 401 253 364 211 364 c 0
 179 364 157 386 157 418 c 0x28
 157 461 194 499 235 499 c 0
 269 499 292 475 292 441 c 0
EndSplineSet
EndChar

StartChar: seven
Encoding: 55 55 101
Width: 620
Flags: MW
HStem: 0 21G<178 309 178 178> 601 80<354.5 375 375 582>
LayerCount: 2
Fore
SplineSet
672 633 m 1
 472 431 337 196 309 0 c 1
 178 0 l 1
 258 298 582 601 582 601 c 1
 375 601 l 2
 334 601 210 580 176 510 c 1
 143 510 l 1
 206 681 l 1
 669 681 l 1
 672 633 l 1
EndSplineSet
Substitution2: "'pnum' Proportional Numbers lookup 7 subtable" seven.prop
Substitution2: "'onum' Oldstyle Figures lookup 5 subtable" seven.oldstyle
AlternateSubs2: "'aalt' Access All Alternates lookup 1 subtable" seven.oldstyle seven.prop
EndChar

StartChar: six
Encoding: 54 54 102
Width: 620
Flags: MW
HStem: -13 47<281.5 378 281.5 396.5> 384 52<376.5 428> 519 175<354 612.5> 647 47<355 480>
VStem: 89 102<154.5 207.5 122.5 343> 515 107<193.5 295> 544 113<564 574.5>
LayerCount: 2
Fore
SplineSet
622 255 m 0x52
 622 110 480 -13 313 -13 c 0
 174 -13 89 79 89 230 c 0
 89 456 241 694 467 694 c 0
 569 694 657 641 657 580 c 0
 657 548 628 519 597 519 c 0xaa
 567 519 544 541 544 570 c 0
 544 579 550 603 550 603 c 1
 550 627 506 647 454 647 c 0
 256 647 214 377 207 333 c 1
 265 403 334 436 419 436 c 0
 542 436 622 365 622 255 c 0x52
515 256 m 0
 515 334 466 384 390 384 c 0
 247 384 191 253 191 162 c 0
 191 83 241 34 322 34 c 0
 434 34 515 131 515 256 c 0
EndSplineSet
Substitution2: "'pnum' Proportional Numbers lookup 7 subtable" six.prop
Substitution2: "'onum' Oldstyle Figures lookup 5 subtable" six.oldstyle
AlternateSubs2: "'aalt' Access All Alternates lookup 1 subtable" six.oldstyle six.prop
EndChar

StartChar: slash
Encoding: 47 47 103
Width: 600
Flags: MW
HStem: -121 21G<104 181 104 104> 695 20G<484 562 562 562>
LayerCount: 2
Fore
SplineSet
562 715 m 1
 181 -121 l 1
 104 -121 l 1
 484 715 l 1
 562 715 l 1
EndSplineSet
EndChar

StartChar: T
Encoding: 84 84 105
Width: 600
Flags: MW
HStem: 0 29<146 146 146 451 141 146> 639 42<274 329.5 485 559.5>
LayerCount: 2
Fore
SplineSet
725 484 m 1
 693 484 l 1
 664 551 617 639 502 639 c 0
 468 639 460 632 453 594 c 2
 369 128 l 2
 366 116 364 105 364 94 c 0
 364 61 381 35 426 31 c 2
 456 29 l 1
 451 0 l 1
 141 0 l 1
 146 29 l 1
 176 31 l 2
 234 36 256 59 269 128 c 2
 354 599 l 2
 355 604 355 608 355 612 c 0
 355 633 342 639 317 639 c 0
 231 639 156 590 84 486 c 1
 50 486 l 1
 134 681 l 1
 700 681 l 1
 725 484 l 1
EndSplineSet
Substitution2: "'c2sc' Capitals to Small Capitals lookup 15 subtable" t.sc
Substitution2: "'aalt' Access All Alternates lookup 0 subtable" t.sc
Position2: "'cpsp' Capital Spacing lookup 0 subtable" dx=7 dy=0 dh=14 dv=0
EndChar

StartChar: t
Encoding: 116 116 106
Width: 340
Flags: MW
HStem: -9 42<239 254.5> 454 32<94 94 94 170 88 94 268 405> 645 20G<264 300 300 300>
VStem: 105 94<74.5 83>
LayerCount: 2
Fore
SplineSet
380 55 m 1
 334 12 283 -9 226 -9 c 0
 150 -9 105 21 105 73 c 0
 105 93 108 113 115 153 c 2
 170 454 l 1
 88 454 l 1
 94 486 l 1
 196 493 237 536 264 665 c 1
 300 665 l 1
 268 486 l 1
 411 486 l 1
 405 454 l 1
 262 454 l 1
 210 170 l 2
 201 121 199 109 199 92 c 0
 199 57 222 33 256 33 c 0
 289 33 319 46 358 80 c 1
 380 55 l 1
EndSplineSet
Substitution2: "'smcp' Lowercase to Small Capitals lookup 3 subtable" t.sc
Substitution2: "'aalt' Access All Alternates lookup 0 subtable" t.sc
EndChar

StartChar: three
Encoding: 51 51 107
Width: 620
Flags: MW
HStem: -13 42<244 364> 354 37<331 370 308 395> 652 42<358.5 436>
VStem: 55 100<81 112 79 142> 145 107<507.5 593.5> 493 107<194.5 274> 515 107<530.5 583>
LayerCount: 2
Fore
SplineSet
600 229 m 0x6a
 600 92 457 -13 271 -13 c 0
 145 -13 55 42 55 120 c 0
 55 164 91 205 129 205 c 0
 155 205 176 185 176 160 c 0
 176 136 155 124 155 100 c 0
 155 58 206 29 282 29 c 0
 451 29 493 157 493 232 c 0x94
 493 316 447 354 343 354 c 0
 319 354 304 353 276 349 c 1
 283 393 l 1
 297 391 304 391 312 391 c 0
 428 391 515 449 515 550 c 0
 515 616 474 652 398 652 c 0
 319 652 252 615 252 572 c 0
 252 559 260 546 260 528 c 0
 260 498 232 475 198 475 c 0
 167 475 145 494 145 521 c 0
 145 590 245 694 410 694 c 0
 492 694 622 665 622 549 c 0
 622 512 607 417 434 375 c 1
 496 366 600 347 600 229 c 0x6a
EndSplineSet
Substitution2: "'pnum' Proportional Numbers lookup 7 subtable" three.prop
Substitution2: "'onum' Oldstyle Figures lookup 5 subtable" three.oldstyle
AlternateSubs2: "'aalt' Access All Alternates lookup 1 subtable" three.oldstyle three.prop
EndChar

StartChar: two
Encoding: 50 50 108
Width: 620
Flags: MW
HStem: 0 80<174 417 417 454.5 174 532> 647 47<376.5 436.5>
VStem: 139 102<472.5 573.5> 139 119<474 503 474 510> 526 110<491 572>
LayerCount: 2
Fore
SplineSet
611 185 m 1xd8
 532 0 l 1
 66 0 l 1
 79 71 l 1
 210 147 253 176 318 231 c 0
 392 292 526 417 526 541 c 0
 526 603 474 647 399 647 c 0
 317 647 241 599 241 548 c 0xe8
 241 519 258 516 258 490 c 0
 258 458 230 432 194 432 c 0
 163 432 139 456 139 489 c 0
 139 531 166 580 209 619 c 0
 266 669 335 694 418 694 c 0
 547 694 636 630 636 539 c 0
 636 443 570 349 425 238 c 0
 348 179 336 172 174 80 c 1
 417 80 l 2
 492 80 526 105 577 198 c 1
 611 185 l 1xd8
EndSplineSet
Substitution2: "'pnum' Proportional Numbers lookup 7 subtable" two.prop
Substitution2: "'onum' Oldstyle Figures lookup 5 subtable" two.oldstyle
AlternateSubs2: "'aalt' Access All Alternates lookup 1 subtable" two.oldstyle two.prop
EndChar

StartChar: U
Encoding: 85 85 109
Width: 720
Flags: MW
HStem: -13 47<336 487> 652 29<118 397 392 392 837 837>
VStem: 118 107<120 152.5>
LayerCount: 2
Fore
SplineSet
837 652 m 1
 820 650 l 2
 765 643 745 622 732 553 c 2
 675 239 l 2
 654 125 618 -13 356 -13 c 0
 157 -13 118 90 118 145 c 0
 118 160 122 192 126 217 c 2
 187 553 l 2
 190 567 192 578 192 588 c 0
 192 624 173 645 134 650 c 2
 118 652 l 1
 123 681 l 1
 397 681 l 1
 392 652 l 1
 376 650 l 2
 321 643 300 622 287 553 c 2
 231 246 l 2
 228 229 225 185 225 161 c 0
 225 79 283 34 389 34 c 0
 588 34 609 181 622 252 c 2
 677 553 l 2
 680 568 680 582 681 593 c 0
 681 626 668 645 623 650 c 2
 608 652 l 1
 613 681 l 1
 842 681 l 1
 837 652 l 1
EndSplineSet
Substitution2: "'c2sc' Capitals to Small Capitals lookup 15 subtable" u.sc
Substitution2: "'aalt' Access All Alternates lookup 0 subtable" u.sc
Position2: "'cpsp' Capital Spacing lookup 0 subtable" dx=7 dy=0 dh=14 dv=0
EndChar

StartChar: u
Encoding: 117 117 110
Width: 620
Flags: MW
HStem: -9 52<246 267> 435 29<88 93> 466 20G<233 271 271 271 515 607 607 607>
VStem: 111 93<84.5 92.5>
LayerCount: 2
Fore
SplineSet
686 66 m 1
 644 17 595 -9 545 -9 c 0
 488 -9 450 25 442 83 c 1
 397 40 311 -9 223 -9 c 0
 152 -9 111 26 111 84 c 0
 111 101 113 121 117 144 c 2
 156 358 l 2
 158 366 158 372 158 379 c 0
 158 417 129 428 100 433 c 2
 88 435 l 1
 93 464 l 1
 161 470 176 473 233 486 c 1
 271 486 l 1
 209 143 l 2
 205 121 204 113 204 103 c 0
 204 66 227 43 265 43 c 0
 319 43 368 64 449 123 c 1
 515 486 l 1
 607 486 l 1
 548 159 l 2
 545 140 543 122 543 107 c 0
 543 68 555 43 591 43 c 0
 614 43 643 61 663 87 c 1
 686 66 l 1
EndSplineSet
Substitution2: "'smcp' Lowercase to Small Capitals lookup 3 subtable" u.sc
Substitution2: "'aalt' Access All Alternates lookup 0 subtable" u.sc
EndChar

StartChar: underscore
Encoding: 95 95 111
Width: 500
Flags: MW
HStem: -155 60<0 500 0 500>
LayerCount: 2
Fore
SplineSet
500 -155 m 1
 0 -155 l 1
 0 -95 l 1
 500 -95 l 1
 500 -155 l 1
EndSplineSet
EndChar

StartChar: V
Encoding: 86 86 112
Width: 680
Flags: MW
HStem: 0 21G<297 358 297 297> 652 29<87 364 359 359 810 810>
LayerCount: 2
Fore
SplineSet
810 652 m 1
 797 650 l 2
 745 642 713 615 678 555 c 2
 358 0 l 1
 297 0 l 1
 172 575 l 2
 161 626 145 642 100 650 c 2
 87 652 l 1
 92 681 l 1
 364 681 l 1
 359 652 l 1
 339 650 l 2
 296 645 277 625 277 587 c 0
 277 577 278 566 281 553 c 2
 368 107 l 1
 622 555 l 2
 632 572 636 588 636 601 c 0
 636 629 616 646 576 650 c 2
 558 652 l 1
 564 681 l 1
 815 681 l 1
 810 652 l 1
EndSplineSet
Substitution2: "'c2sc' Capitals to Small Capitals lookup 15 subtable" v.sc
Substitution2: "'aalt' Access All Alternates lookup 0 subtable" v.sc
Position2: "'cpsp' Capital Spacing lookup 0 subtable" dx=7 dy=0 dh=14 dv=0
EndChar

StartChar: v
Encoding: 118 118 113
Width: 540
Flags: MW
HStem: -9 52<256.5 335> 435 29<88 93> 479 20G<467 507.5>
VStem: 112 93<85 97.5> 422 140<254 448.5> 500 62<254 301.5>
LayerCount: 2
Fore
SplineSet
562 359 m 0x28
 562 149 425 -9 245 -9 c 0
 161 -9 112 27 112 88 c 0
 112 107 114 128 118 150 c 2
 156 358 l 2
 157 367 158 375 158 383 c 0
 158 410 147 425 100 433 c 2
 88 435 l 1
 93 464 l 1
 161 470 176 473 233 486 c 1
 271 486 l 1
 208 137 l 2
 206 126 205 117 205 105 c 0
 205 65 232 43 281 43 c 0
 396 43 500 154 500 277 c 0xd4
 500 326 486 356 447 387 c 0
 429 401 422 414 422 430 c 0
 422 467 451 499 483 499 c 0
 532 499 562 445 562 359 c 0x28
EndSplineSet
Substitution2: "'smcp' Lowercase to Small Capitals lookup 3 subtable" v.sc
Substitution2: "'aalt' Access All Alternates lookup 0 subtable" v.sc
EndChar

StartChar: W
Encoding: 87 87 114
Width: 960
Flags: MW
HStem: 0 21G<263 326 263 263 615 680 615 615> 652 29<87 351 346 346 700 700 1090 1090>
LayerCount: 2
Fore
SplineSet
1090 652 m 1
 1078 650 l 2
 1028 643 996 614 965 554 c 2
 680 0 l 1
 615 0 l 1
 549 442 l 1
 326 0 l 1
 263 0 l 1
 174 540 l 2
 160 624 152 634 96 650 c 2
 87 652 l 1
 92 681 l 1
 351 681 l 1
 346 652 l 1
 331 650 l 2
 287 644 274 625 274 593 c 0
 274 585 274 576 276 566 c 2
 340 126 l 1
 534 521 l 1
 522 607 505 634 454 650 c 1
 444 652 l 1
 449 681 l 1
 705 681 l 1
 700 652 l 1
 684 650 l 2
 641 644 630 625 630 596 c 0
 630 584 633 570 635 554 c 2
 695 126 l 1
 891 521 l 2
 910 559 922 587 922 607 c 0
 922 630 906 643 864 650 c 2
 850 652 l 1
 855 681 l 1
 1095 681 l 1
 1090 652 l 1
EndSplineSet
Substitution2: "'c2sc' Capitals to Small Capitals lookup 15 subtable" w.sc
Substitution2: "'aalt' Access All Alternates lookup 0 subtable" w.sc
Position2: "'cpsp' Capital Spacing lookup 0 subtable" dx=7 dy=0 dh=14 dv=0
EndChar

StartChar: w
Encoding: 119 119 115
Width: 880
Flags: MW
HStem: -9 47<258 272.5 596.5 618.5> 435 29<88 93> 479 20G<796 836.5>
VStem: 110 95<82 92.5> 751 142<319 450.5> 829 64<216.5 412>
LayerCount: 2
Fore
SplineSet
893 374 m 0x28
 893 264 852 150 790 84 c 0
 733 23 659 -9 578 -9 c 0
 503 -9 456 22 452 75 c 1
 390 23 308 -9 237 -9 c 0
 158 -9 110 27 110 86 c 0
 110 99 111 113 114 127 c 2
 156 358 l 2
 157 367 158 375 158 383 c 0
 158 410 147 425 100 433 c 2
 88 435 l 1
 93 464 l 1
 161 470 176 473 233 486 c 1
 271 486 l 1
 212 163 l 2
 208 138 205 114 205 102 c 0
 205 62 234 38 282 38 c 0
 327 38 394 69 450 115 c 1
 517 486 l 1
 609 486 l 1
 555 190 l 2
 550 164 547 140 547 119 c 0
 547 69 565 38 628 38 c 0
 729 38 829 156 829 277 c 0xd4
 829 324 815 357 784 381 c 0
 758 401 751 412 751 433 c 0
 751 468 780 499 812 499 c 0
 861 499 893 450 893 374 c 0x28
EndSplineSet
Substitution2: "'smcp' Lowercase to Small Capitals lookup 3 subtable" w.sc
Substitution2: "'aalt' Access All Alternates lookup 0 subtable" w.sc
EndChar

StartChar: X
Encoding: 88 88 116
Width: 700
Flags: MW
HStem: 0 29<-20 -20 -20 239 -25 -20> 652 29<123 417 411 411 810 810>
LayerCount: 2
Fore
SplineSet
728 29 m 1
 722 0 l 1
 412 0 l 1
 417 29 l 1
 433 31 l 2
 483 37 505 54 505 78 c 0
 505 91 498 106 488 124 c 2
 381 309 l 1
 207 126 l 2
 190 108 181 89 181 72 c 0
 181 51 196 34 227 31 c 2
 244 29 l 1
 239 0 l 1
 -25 0 l 1
 -20 29 l 1
 54 53 107 88 183 167 c 2
 356 349 l 1
 227 576 l 2
 205 620 178 641 133 650 c 2
 123 652 l 1
 128 681 l 1
 417 681 l 1
 411 652 l 1
 397 650 l 2
 357 645 337 626 337 602 c 0
 337 594 340 584 345 575 c 2
 441 406 l 1
 571 547 l 2
 592 569 607 596 607 617 c 0
 607 635 597 648 572 650 c 2
 551 652 l 1
 556 681 l 1
 815 681 l 1
 810 652 l 1
 792 650 l 2
 751 648 691 608 632 545 c 2
 463 366 l 1
 608 117 l 2
 639 63 657 47 710 33 c 2
 728 29 l 1
EndSplineSet
Substitution2: "'c2sc' Capitals to Small Capitals lookup 15 subtable" x.sc
Substitution2: "'aalt' Access All Alternates lookup 0 subtable" x.sc
Position2: "'cpsp' Capital Spacing lookup 0 subtable" dx=7 dy=0 dh=14 dv=0
EndChar

StartChar: x
Encoding: 120 120 117
Width: 540
Flags: MW
HStem: -13 100<42 123> 399 100<512.5 596.5>
LayerCount: 2
Fore
SplineSet
582 55 m 1
 543 16 492 -9 450 -9 c 0
 359 -9 331 87 303 156 c 2
 280 211 l 1
 189 51 124 -13 56 -13 c 0
 28 -13 9 8 9 40 c 0
 9 69 30 90 59 90 c 0
 63 90 88 87 95 87 c 0
 151 87 200 135 264 253 c 1
 239 318 l 2
 205 408 194 420 127 435 c 1
 132 464 l 1
 185 470 212 474 256 486 c 1
 282 486 l 1
 352 279 l 1
 445 425 523 499 585 499 c 0
 608 499 626 479 626 454 c 0
 626 423 596 398 558 398 c 0
 535 398 553 399 535 399 c 0
 490 399 431 343 370 242 c 1
 413 133 421 116 438 92 c 0
 458 64 480 51 503 51 c 0
 521 51 534 57 560 75 c 1
 582 55 l 1
EndSplineSet
Substitution2: "'smcp' Lowercase to Small Capitals lookup 3 subtable" x.sc
Substitution2: "'aalt' Access All Alternates lookup 0 subtable" x.sc
EndChar

StartChar: Y
Encoding: 89 89 118
Width: 660
Flags: MW
HStem: 0 29<165 165 165 470 160 165> 652 29<87 362 357 357 804 804>
LayerCount: 2
Fore
SplineSet
804 652 m 1
 730 642 696 615 624 532 c 2
 419 297 l 1
 388 128 l 2
 385 114 384 101 384 90 c 0
 384 54 400 34 445 31 c 2
 475 29 l 1
 470 0 l 1
 160 0 l 1
 165 29 l 1
 195 31 l 2
 253 36 275 58 288 128 c 2
 316 281 l 1
 170 588 l 2
 152 627 141 636 97 649 c 2
 87 652 l 1
 92 681 l 1
 362 681 l 1
 357 652 l 1
 346 650 l 2
 305 642 282 626 282 601 c 0
 282 593 285 584 290 574 c 2
 399 339 l 1
 596 575 l 2
 606 587 610 599 610 610 c 0
 610 629 594 644 559 650 c 2
 547 652 l 1
 553 681 l 1
 809 681 l 1
 804 652 l 1
EndSplineSet
Substitution2: "'c2sc' Capitals to Small Capitals lookup 15 subtable" y.sc
Substitution2: "'aalt' Access All Alternates lookup 0 subtable" y.sc
Position2: "'cpsp' Capital Spacing lookup 0 subtable" dx=7 dy=0 dh=14 dv=0
EndChar

StartChar: y
Encoding: 121 121 119
Width: 600
Flags: MW
HStem: -221 37<230.5 273.5> -221 118<97.5 273.5> -9 47<246 266.5> 435 29<84 89> 466 20G<229 267 267 267 517 609 609 609>
VStem: 109 91<83 96.5>
LayerCount: 2
Fore
SplineSet
609 486 m 1xbc
 520 -3 l 2
 488 -181 318 -221 229 -221 c 0
 137 -221 60 -186 60 -145 c 0
 60 -120 82 -103 113 -103 c 0x48
 137 -103 151 -112 165 -136 c 0
 185 -169 211 -184 250 -184 c 0
 337 -184 409 -110 429 -1 c 2
 444 82 l 1
 381 26 301 -9 232 -9 c 0
 155 -9 109 28 109 89 c 0
 109 104 112 138 114 150 c 2
 152 358 l 2
 153 367 154 376 154 383 c 0
 154 410 143 425 96 433 c 2
 84 435 l 1
 89 464 l 1
 156 470 173 473 229 486 c 1
 267 486 l 1
 206 150 l 2
 202 129 200 111 200 102 c 0
 200 64 227 38 265 38 c 0
 322 38 391 69 451 123 c 1
 517 486 l 1
 609 486 l 1xbc
EndSplineSet
Substitution2: "'smcp' Lowercase to Small Capitals lookup 3 subtable" y.sc
Substitution2: "'aalt' Access All Alternates lookup 0 subtable" y.sc
EndChar

StartChar: Z
Encoding: 90 90 120
Width: 580
Flags: MW
HStem: 0 44<239 308 239 557> 638 43<383.5 468>
LayerCount: 2
Fore
SplineSet
643 194 m 1
 557 0 l 1
 24 0 l 1
 8 35 l 1
 550 628 l 1
 510 636 487 638 449 638 c 0
 318 638 239 598 144 482 c 1
 114 495 l 1
 200 681 l 1
 683 681 l 1
 695 642 l 1
 155 49 l 1
 197 45 221 44 257 44 c 0
 359 44 430 59 494 95 c 0
 541 121 570 148 615 209 c 1
 643 194 l 1
EndSplineSet
Substitution2: "'c2sc' Capitals to Small Capitals lookup 15 subtable" z.sc
Substitution2: "'aalt' Access All Alternates lookup 0 subtable" z.sc
Position2: "'cpsp' Capital Spacing lookup 0 subtable" dx=7 dy=0 dh=14 dv=0
EndChar

StartChar: z
Encoding: 122 122 121
Width: 520
Flags: MW
HStem: -9 21G<373 417> -5 36 -5 147 346 149<141.5 311.5> 457 38<286.5 311.5 237 348>
LayerCount: 2
Fore
SplineSet
534 95 m 0x20
 534 35 461 -9 373 -9 c 2
 176 -2 l 1
 58 0 l 1
 38 27 l 1
 433 447 l 1
 407 453 367 457 329 457 c 0x88
 244 457 226 417 216 395 c 0
 201 365 182 346 155 346 c 0x10
 128 346 110 367 110 398 c 0
 110 454 186 495 288 495 c 0
 335 495 413 486 444 486 c 2
 547 486 l 1
 561 447 l 1
 173 39 l 1
 210 39 248 31 298 31 c 0x48
 370 31 411 50 431 93 c 0
 450 132 462 142 492 142 c 0
 516 142 534 122 534 95 c 0x20
EndSplineSet
Substitution2: "'smcp' Lowercase to Small Capitals lookup 3 subtable" z.sc
Substitution2: "'aalt' Access All Alternates lookup 0 subtable" z.sc
EndChar

StartChar: zero
Encoding: 48 48 122
Width: 620
Flags: MW
HStem: -13 47<271.5 403 271.5 405.5> 653 42<328 461>
VStem: 86 102<172 265 157.5 350> 544 102<401.5 506.5 308.5 531.5>
LayerCount: 2
Fore
SplineSet
646 423 m 0
 646 194 505 -13 306 -13 c 0
 173 -13 86 92 86 252 c 0
 86 448 217 695 428 695 c 0
 562 695 646 590 646 423 c 0
544 474 m 0
 544 589 500 653 422 653 c 0
 234 653 188 317 188 213 c 0
 188 102 234 34 309 34 c 0
 497 34 544 329 544 474 c 0
EndSplineSet
Substitution2: "'zero' Slashed Zero lookup 21 subtable" zero.slash
Substitution2: "'pnum' Proportional Numbers lookup 7 subtable" zero.prop
Substitution2: "'onum' Oldstyle Figures lookup 5 subtable" zero.oldstyle
AlternateSubs2: "'aalt' Access All Alternates lookup 1 subtable" zero.oldstyle zero.prop zero.slash
EndChar

StartChar: f_f
Encoding: 64256 64256 123
Width: 780
Flags: MW
HStem: -206 35<8.5 14.5 322.5 378> -206 115<-128 14.5> 454 32<131 215 125 219 313 529 627 722> 627 101<410 523.5> 695 33<410 425 724 739>
LayerCount: 2
Fore
SplineSet
871 668 m 0x30
 871 645 850 627 825 627 c 0x90
 804 627 788 638 775 661 c 0
 759 688 750 695 728 695 c 0
 662 695 651 621 644 579 c 2
 627 486 l 1
 728 486 l 1
 722 454 l 1
 621 454 l 1
 551 69 l 2
 531 -42 498 -206 293 -206 c 0
 220 -206 163 -179 155 -141 c 1
 113 -182 50 -206 -21 -206 c 0
 -100 -206 -160 -174 -160 -132 c 0
 -160 -109 -141 -91 -115 -91 c 0x68
 -89 -91 -76 -99 -45 -135 c 0
 -24 -160 -3 -171 20 -171 c 0
 103 -171 128 -78 148 84 c 1
 215 454 l 1
 125 454 l 1
 131 486 l 1
 219 486 l 1
 230 554 240 588 258 620 c 0
 296 687 369 728 451 728 c 0
 512 728 557 703 557 668 c 0
 557 645 536 627 511 627 c 0xb0
 490 627 474 638 461 661 c 0
 445 688 436 695 414 695 c 0x08
 348 695 337 621 330 579 c 2
 313 486 l 1
 533 486 l 1
 544 554 554 588 572 620 c 0
 610 687 683 728 765 728 c 0
 826 728 871 703 871 668 c 0x30
462 84 m 2
 529 454 l 1
 307 454 l 1
 237 69 l 2
 221 -16 211 -58 192 -91 c 1
 199 -91 l 2x60
 225 -91 238 -99 269 -135 c 0
 290 -160 311 -171 334 -171 c 0
 422 -171 437 -70 462 84 c 2
EndSplineSet
Ligature2: "'liga' Standard Ligatures lookup 9 subtable" f f
EndChar

StartChar: f_f_i
Encoding: 64259 64259 124
Width: 967
Flags: MW
HStem: -206 35<8.5 15> -206 115<-128 15> -9 57<849 938> 454 32<131 215 125 219 313 534 631 750> 572 156 627 101<410 523.5> 695 33<410 425 733 789>
VStem: 782 93<85 93>
LayerCount: 2
Fore
SplineSet
1023 65 m 1x33
 975 15 927 -9 877 -9 c 0
 821 -9 782 30 782 87 c 0
 782 99 784 120 785 128 c 2
 823 336 l 2
 826 355 830 389 830 402 c 0
 830 441 810 454 750 454 c 2
 626 454 l 1
 547 21 l 2
 535 -43 498 -205 300 -205 c 0
 232 -205 167 -174 156 -140 c 1
 115 -182 51 -206 -21 -206 c 0
 -100 -206 -160 -174 -160 -132 c 0
 -160 -109 -141 -91 -115 -91 c 0x71
 -89 -91 -76 -99 -45 -135 c 0
 -24 -160 -3 -171 20 -171 c 0
 92 -171 120 -70 148 84 c 2
 215 454 l 1
 125 454 l 1
 131 486 l 1
 219 486 l 1
 230 554 240 588 258 620 c 0
 296 687 369 728 451 728 c 0
 512 728 557 703 557 668 c 0
 557 645 536 627 511 627 c 0x94
 490 627 474 638 461 661 c 0
 445 688 436 695 414 695 c 0x02
 348 695 337 621 330 579 c 2
 313 486 l 1
 539 486 l 1
 555 575 560 592 580 625 c 0
 619 690 692 728 774 728 c 0
 872 728 960 674 960 614 c 0
 960 590 941 572 914 572 c 0x18
 898 572 882 580 873 593 c 0
 869 599 869 599 860 629 c 0
 846 673 814 695 764 695 c 0
 667 695 657 626 646 565 c 2
 631 486 l 1
 942 486 l 1
 880 145 l 2
 877 131 875 108 875 99 c 0
 875 71 898 48 926 48 c 0
 950 48 971 58 1004 85 c 1
 1023 65 l 1x33
534 454 m 1
 307 454 l 1
 237 69 l 2
 221 -17 211 -58 191 -92 c 1
 195 -91 199 -91 204 -91 c 0
 228 -91 244 -101 272 -132 c 0
 296 -159 313 -168 338 -168 c 0
 413 -168 436 -89 456 25 c 2
 534 454 l 1
EndSplineSet
Ligature2: "'liga' Standard Ligatures in Latin lookup 13 subtable" f_f i
Ligature2: "'liga' Standard Ligatures in Latin lookup 12 subtable" f_f i
Ligature2: "'liga' Standard Ligatures lookup 10 subtable" f_f i
EndChar

StartChar: f_f_l
Encoding: 64260 64260 125
Width: 971
Flags: MW
HStem: -206 38 -206 115<-128 15> -9 60<850.5 937.5> 454 32<131 215 125 219 313 534 631 728> 627 101<410 523.5> 695 33<410 425 761 810>
VStem: 782 93<87.5 95.5>
LayerCount: 2
Fore
SplineSet
1027 66 m 1x36
 980 17 930 -9 877 -9 c 0
 824 -9 782 34 782 89 c 0
 782 102 784 120 787 138 c 2
 869 589 l 2
 871 602 873 618 873 626 c 0
 873 667 851 695 769 695 c 0xb6
 701 695 663 659 649 584 c 2
 631 486 l 1
 734 486 l 1
 728 454 l 1
 626 454 l 1
 557 76 l 2
 536 -41 508 -205 298 -205 c 0
 225 -205 165 -177 156 -140 c 1
 115 -182 51 -206 -21 -206 c 0
 -100 -206 -160 -174 -160 -132 c 0
 -160 -109 -141 -91 -115 -91 c 0
 -89 -91 -76 -99 -45 -135 c 0
 -24 -160 -3 -171 20 -171 c 0
 95 -172 120 -70 148 84 c 2
 215 454 l 1
 125 454 l 1
 131 486 l 1
 219 486 l 1
 230 554 240 588 258 620 c 0
 296 687 369 728 451 728 c 0
 512 728 557 703 557 668 c 0
 557 645 536 627 511 627 c 0x58
 490 627 474 638 461 661 c 0
 445 688 436 695 414 695 c 0
 348 695 337 621 330 579 c 2
 313 486 l 1
 539 486 l 1
 551 564 567 609 596 645 c 0
 640 698 715 728 807 728 c 0
 850 728 896 724 983 712 c 1
 882 154 l 2
 876 121 875 114 875 101 c 0
 875 74 898 51 925 51 c 0
 950 51 979 64 1004 86 c 1
 1027 66 l 1x36
534 454 m 1
 307 454 l 1
 237 69 l 2
 221 -17 210 -59 191 -93 c 1
 194 -92 198 -92 202 -92 c 0
 226 -92 242 -101 268 -131 c 0
 293 -159 309 -168 335 -168 c 0
 434 -168 443 -42 467 88 c 2
 534 454 l 1
EndSplineSet
Ligature2: "'liga' Standard Ligatures lookup 9 subtable" f f l
EndChar

StartChar: f_i
Encoding: 64257 64257 126
Width: 640
Flags: MW
HStem: -205 37<11.5 61.5 11.5 85> -205 114<-123 85> -9 57<535 624> 454 32<138 220 132 225 317 436> 572 156<419 613.5> 695 33<419 475>
VStem: 468 93<85 93>
LayerCount: 2
Fore
SplineSet
709 65 m 1x36
 661 15 613 -9 563 -9 c 0
 507 -9 468 30 468 87 c 0
 468 99 470 120 471 128 c 2
 509 336 l 2
 513 361 515 382 516 398 c 0
 516 439 498 454 436 454 c 2
 312 454 l 1
 233 21 l 2
 221 -43 184 -205 -14 -205 c 0
 -88 -205 -159 -168 -159 -130 c 0
 -159 -109 -136 -91 -110 -91 c 0x72
 -86 -91 -70 -101 -42 -132 c 0
 -18 -159 -1 -168 24 -168 c 0
 99 -168 121 -89 142 25 c 2
 220 454 l 1
 132 454 l 1
 138 486 l 1
 225 486 l 1
 241 575 246 592 266 625 c 0
 305 690 378 728 460 728 c 0
 558 728 646 674 646 614 c 0
 646 590 627 572 600 572 c 0x98
 572 572 561 579 546 629 c 0
 532 673 500 695 450 695 c 0
 366 695 343 626 332 565 c 2
 317 486 l 1
 628 486 l 1
 566 145 l 2
 563 131 561 108 561 99 c 0
 561 71 584 48 612 48 c 0
 636 48 657 58 690 85 c 1
 709 65 l 1x36
EndSplineSet
Ligature2: "'liga' Standard Ligatures in Latin lookup 13 subtable" f i
Ligature2: "'liga' Standard Ligatures in Latin lookup 12 subtable" f i
Ligature2: "'liga' Standard Ligatures lookup 10 subtable" f i
EndChar

StartChar: f_l
Encoding: 64258 64258 127
Width: 660
Flags: MW
HStem: -205 37<8 70.5 8 90.5> -205 113<-126.5 90.5> -9 60<536.5 623.5> 454 32<137 220 131 225 317 414> 695 33<447 496>
VStem: 468 93<87.5 95.5>
LayerCount: 2
Fore
SplineSet
713 66 m 1xbc
 666 17 616 -9 563 -9 c 0
 510 -9 468 34 468 89 c 0
 468 102 470 120 473 138 c 2
 555 589 l 2
 557 602 559 618 559 626 c 0
 559 667 537 695 455 695 c 0
 387 695 349 659 335 584 c 2
 317 486 l 1
 420 486 l 1
 414 454 l 1
 312 454 l 1
 243 76 l 2
 223 -33 197 -205 -16 -205 c 0
 -95 -205 -159 -172 -159 -130 c 0
 -159 -107 -141 -92 -112 -92 c 0x7c
 -88 -92 -72 -101 -46 -131 c 0
 -21 -159 -5 -168 21 -168 c 0
 120 -168 129 -42 153 88 c 2
 220 454 l 1
 131 454 l 1
 137 486 l 1
 225 486 l 1
 237 564 253 609 282 645 c 0
 326 698 401 728 493 728 c 0
 536 728 582 724 669 712 c 1
 568 154 l 2
 562 121 561 114 561 101 c 0
 561 74 584 51 611 51 c 0
 636 51 665 64 690 86 c 1
 713 66 l 1xbc
EndSplineSet
Ligature2: "'liga' Standard Ligatures lookup 9 subtable" f l
EndChar

StartChar: Aacute
Encoding: 193 193 128
Width: 700
Flags: MW
HStem: 0 29<-20 -20 -20 237 -25 -20> 253 40<269 497 269 502 246 497> 661 20G<422 518 518 518> 728 21G<410 410> 844 20G<553.5 577.5>
LayerCount: 2
Fore
SplineSet
715 0 m 1
 444 0 l 1
 449 29 l 1
 461 31 l 2
 516 40 529 60 529 90 c 0
 529 103 527 119 524 136 c 2
 502 253 l 1
 246 253 l 1
 193 157 l 2
 175 124 167 100 167 81 c 0
 167 52 188 38 230 31 c 2
 242 29 l 1
 237 0 l 1
 -25 0 l 1
 -20 29 l 1
 -7 31 l 1
 55 46 74 63 137 175 c 2
 422 681 l 1
 518 681 l 1
 624 156 l 2
 644 57 654 44 708 31 c 2
 720 29 l 1
 715 0 l 1
497 293 m 1
 434 598 l 1
 269 293 l 1
 497 293 l 1
612 825 m 0x18
 612 803 588 786 534 769 c 2
 410 728 l 1
 397 754 l 1
 473 815 l 2
 518 851 542 864 565 864 c 0
 590 864 612 846 612 825 c 0x18
EndSplineSet
Substitution2: "'c2sc' Capitals to Small Capitals lookup 15 subtable" aacute.sc
Substitution2: "'aalt' Access All Alternates lookup 0 subtable" aacute.sc
Position2: "'cpsp' Capital Spacing lookup 0 subtable" dx=7 dy=0 dh=14 dv=0
EndChar

StartChar: aacute
Encoding: 225 225 129
Width: 620
Flags: MW
HStem: -9 47<233 282> -9 60<501 604> 448 47<311.5 388 281.5 404.5> 554 21G<342 342> 685 20G<483 494>
VStem: 71 97<120.5 211.5 117.5 261.5>
LayerCount: 2
Fore
SplineSet
686 69 m 1x64
 656 25 592 -9 540 -9 c 0
 462 -9 444 70 444 96 c 0
 444 99 444 105 445 112 c 1
 384 29 321 -9 243 -9 c 0
 140 -9 71 65 71 176 c 0
 71 347 204 495 359 495 c 0
 417 495 470 473 504 435 c 1
 513 486 l 1
 605 486 l 1
 546 160 l 2
 541 134 539 117 539 105 c 0
 539 75 563 51 592 51 c 0
 616 51 644 66 664 90 c 1
 686 69 l 1x64
496 393 m 1
 460 433 428 448 381 448 c 0
 242 448 168 272 168 151 c 0
 168 84 205 38 261 38 c 0xa4
 315 38 378 78 415 137 c 0
 451 194 470 252 496 393 c 1
525 662 m 0x18
 525 637 504 618 455 599 c 2
 342 554 l 1
 330 583 l 1
 399 651 l 2
 439 691 462 704 483 705 c 0
 505 705 525 685 525 662 c 0x18
EndSplineSet
Substitution2: "'smcp' Lowercase to Small Capitals lookup 3 subtable" aacute.sc
Substitution2: "'aalt' Access All Alternates lookup 0 subtable" aacute.sc
EndChar

StartChar: Abreve
Encoding: 258 258 130
Width: 700
Flags: MW
HStem: 0 29<-20 -20 -20 237 -25 -20> 253 40<269 497 269 502 246 497> 661 20G<422 518 518 518> 748 60<450.5 517.5 450.5 524> 825 20G<343 343>
LayerCount: 2
Fore
SplineSet
715 0 m 1
 444 0 l 1
 449 29 l 1
 461 31 l 2
 516 40 529 60 529 90 c 0
 529 103 527 119 524 136 c 2
 502 253 l 1
 246 253 l 1
 193 157 l 2
 175 124 167 100 167 81 c 0
 167 52 188 38 230 31 c 2
 242 29 l 1
 237 0 l 1
 -25 0 l 1
 -20 29 l 1
 -7 31 l 1
 55 46 74 63 137 175 c 2
 422 681 l 1
 518 681 l 1
 624 156 l 2
 644 57 654 44 708 31 c 2
 720 29 l 1
 715 0 l 1
497 293 m 1
 434 598 l 1
 269 293 l 1
 497 293 l 1
657 835 m 1x18
 616 773 566 748 482 748 c 0
 405 748 349 776 317 834 c 1
 343 845 l 1
 372 820 416 808 485 808 c 0
 550 808 599 820 633 844 c 1
 657 835 l 1x18
EndSplineSet
Substitution2: "'c2sc' Capitals to Small Capitals lookup 15 subtable" abreve.sc
Substitution2: "'aalt' Access All Alternates lookup 0 subtable" abreve.sc
Position2: "'cpsp' Capital Spacing lookup 0 subtable" dx=7 dy=0 dh=14 dv=0
EndChar

StartChar: abreve
Encoding: 259 259 131
Width: 620
Flags: MW
HStem: -9 47<233 282> -9 60<501 604> 448 47<311.5 388 281.5 404.5> 576 67<376.5 437.5 376.5 443> 664 20G<279 279>
VStem: 71 97<120.5 211.5 117.5 261.5>
LayerCount: 2
Fore
SplineSet
686 69 m 1x64
 656 25 592 -9 540 -9 c 0
 462 -9 444 70 444 96 c 0
 444 99 444 105 445 112 c 1
 384 29 321 -9 243 -9 c 0
 140 -9 71 65 71 176 c 0
 71 347 204 495 359 495 c 0
 417 495 470 473 504 435 c 1
 513 486 l 1
 605 486 l 1
 546 160 l 2
 541 134 539 117 539 105 c 0
 539 75 563 51 592 51 c 0
 616 51 644 66 664 90 c 1
 686 69 l 1x64
496 393 m 1
 460 433 428 448 381 448 c 0
 242 448 168 272 168 151 c 0
 168 84 205 38 261 38 c 0xa4
 315 38 378 78 415 137 c 0
 451 194 470 252 496 393 c 1
564 673 m 1x18
 527 604 481 576 405 576 c 0
 335 576 284 608 255 672 c 1
 279 684 l 1
 305 656 345 643 408 643 c 0
 467 643 511 656 542 683 c 1
 564 673 l 1x18
EndSplineSet
Substitution2: "'smcp' Lowercase to Small Capitals lookup 3 subtable" abreve.sc
Substitution2: "'aalt' Access All Alternates lookup 0 subtable" abreve.sc
EndChar

StartChar: Abreveacute
Encoding: 7854 7854 132
Width: 700
Flags: MW
HStem: 0 29<-20 -20 -20 237 -25 -20> 253 40<269 497 269 502 246 497> 661 20G<422 518 518 518> 748 60<450.5 517.5 450.5 524> 825 20G<343 343> 865 21G<454 454> 981 20G<597.5 621.5>
LayerCount: 2
Fore
SplineSet
715 0 m 1
 444 0 l 1
 449 29 l 1
 461 31 l 2
 516 40 529 60 529 90 c 0
 529 103 527 119 524 136 c 2
 502 253 l 1
 246 253 l 1
 193 157 l 2
 175 124 167 100 167 81 c 0
 167 52 188 38 230 31 c 2
 242 29 l 1
 237 0 l 1
 -25 0 l 1
 -20 29 l 1
 -7 31 l 1
 55 46 74 63 137 175 c 2
 422 681 l 1
 518 681 l 1
 624 156 l 2
 644 57 654 44 708 31 c 2
 720 29 l 1
 715 0 l 1
497 293 m 1
 434 598 l 1
 269 293 l 1
 497 293 l 1
656 962 m 0x1e
 656 940 632 923 578 906 c 2
 454 865 l 1
 441 891 l 1
 517 952 l 2
 562 988 586 1001 609 1001 c 0
 634 1001 656 983 656 962 c 0x1e
657 835 m 1
 616 773 566 748 482 748 c 0
 405 748 349 776 317 834 c 1
 343 845 l 1
 372 820 416 808 485 808 c 0
 550 808 599 820 633 844 c 1
 657 835 l 1
EndSplineSet
Substitution2: "'c2sc' Capitals to Small Capitals lookup 15 subtable" abreveacute.sc
Substitution2: "'aalt' Access All Alternates lookup 0 subtable" abreveacute.sc
Position2: "'cpsp' Capital Spacing lookup 0 subtable" dx=7 dy=0 dh=14 dv=0
EndChar

StartChar: abreveacute
Encoding: 7855 7855 133
Width: 620
Flags: MW
HStem: -9 47<233 282> -9 60<501 604> 448 47<311.5 388 281.5 404.5> 566 60<371.5 438.5 371.5 445> 643 20G<264 264> 683 21G<375 375> 799 20G<518.5 542.5>
VStem: 71 97<120.5 211.5 117.5 261.5>
LayerCount: 2
Fore
SplineSet
686 69 m 1x61
 656 25 592 -9 540 -9 c 0
 462 -9 444 70 444 96 c 0
 444 99 444 105 445 112 c 1
 384 29 321 -9 243 -9 c 0
 140 -9 71 65 71 176 c 0
 71 347 204 495 359 495 c 0
 417 495 470 473 504 435 c 1
 513 486 l 1
 605 486 l 1
 546 160 l 2
 541 134 539 117 539 105 c 0
 539 75 563 51 592 51 c 0
 616 51 644 66 664 90 c 1
 686 69 l 1x61
496 393 m 1
 460 433 428 448 381 448 c 0
 242 448 168 272 168 151 c 0
 168 84 205 38 261 38 c 0xa1
 315 38 378 78 415 137 c 0
 451 194 470 252 496 393 c 1
577 780 m 0x1e
 577 758 553 741 499 724 c 2
 375 683 l 1
 362 709 l 1
 438 770 l 2
 483 806 507 819 530 819 c 0
 555 819 577 801 577 780 c 0x1e
578 653 m 1
 537 591 487 566 403 566 c 0
 326 566 270 594 238 652 c 1
 264 663 l 1
 293 638 337 626 406 626 c 0
 471 626 520 638 554 662 c 1
 578 653 l 1
EndSplineSet
Substitution2: "'smcp' Lowercase to Small Capitals lookup 3 subtable" abreveacute.sc
Substitution2: "'aalt' Access All Alternates lookup 0 subtable" abreveacute.sc
EndChar

StartChar: Abrevedotbelow
Encoding: 7862 7862 134
Width: 700
Flags: MW
HStem: -210 121<315 328.5> 0 29<-20 -20 -20 237 -25 -20> 253 40<269 497 269 502 246 497> 661 20G<422 518 518 518> 748 60<450.5 517.5 450.5 524> 825 20G<343 343>
VStem: 262 121<-158 -139.5>
LayerCount: 2
Fore
SplineSet
715 0 m 1
 444 0 l 1
 449 29 l 1
 461 31 l 2
 516 40 529 60 529 90 c 0
 529 103 527 119 524 136 c 2
 502 253 l 1
 246 253 l 1
 193 157 l 2
 175 124 167 100 167 81 c 0
 167 52 188 38 230 31 c 2
 242 29 l 1
 237 0 l 1
 -25 0 l 1
 -20 29 l 1
 -7 31 l 1
 55 46 74 63 137 175 c 2
 422 681 l 1
 518 681 l 1
 624 156 l 2
 644 57 654 44 708 31 c 2
 720 29 l 1
 715 0 l 1
497 293 m 1
 434 598 l 1
 269 293 l 1
 497 293 l 1
657 835 m 1
 616 773 566 748 482 748 c 0
 405 748 349 776 317 834 c 1
 343 845 l 1
 372 820 416 808 485 808 c 0
 550 808 599 820 633 844 c 1
 657 835 l 1
383 -139 m 0x82
 383 -177 348 -210 309 -210 c 0
 281 -210 262 -189 262 -158 c 0
 262 -121 296 -89 334 -89 c 0
 362 -89 383 -110 383 -139 c 0x82
EndSplineSet
Substitution2: "'c2sc' Capitals to Small Capitals lookup 15 subtable" abrevedotbelow.sc
Substitution2: "'aalt' Access All Alternates lookup 0 subtable" abrevedotbelow.sc
Position2: "'cpsp' Capital Spacing lookup 0 subtable" dx=7 dy=0 dh=14 dv=0
EndChar

StartChar: abrevedotbelow
Encoding: 7863 7863 135
Width: 620
Flags: MW
HStem: -210 121<265 278.5> -9 47<233 282> -9 60<501 604> 448 47<311.5 388 281.5 404.5> 576 67<376.5 437.5 376.5 443> 664 20G<279 279>
VStem: 71 97<120.5 211.5 117.5 261.5> 212 121<-158 -139.5>
LayerCount: 2
Fore
SplineSet
686 69 m 1x32
 656 25 592 -9 540 -9 c 0
 462 -9 444 70 444 96 c 0
 444 99 444 105 445 112 c 1
 384 29 321 -9 243 -9 c 0
 140 -9 71 65 71 176 c 0
 71 347 204 495 359 495 c 0
 417 495 470 473 504 435 c 1
 513 486 l 1
 605 486 l 1
 546 160 l 2
 541 134 539 117 539 105 c 0
 539 75 563 51 592 51 c 0
 616 51 644 66 664 90 c 1
 686 69 l 1x32
496 393 m 1
 460 433 428 448 381 448 c 0
 242 448 168 272 168 151 c 0
 168 84 205 38 261 38 c 0x5e
 315 38 378 78 415 137 c 0
 451 194 470 252 496 393 c 1
564 673 m 1
 527 604 481 576 405 576 c 0
 335 576 284 608 255 672 c 1
 279 684 l 1
 305 656 345 643 408 643 c 0
 467 643 511 656 542 683 c 1
 564 673 l 1
333 -139 m 0x81
 333 -177 298 -210 259 -210 c 0
 231 -210 212 -189 212 -158 c 0
 212 -121 246 -89 284 -89 c 0
 312 -89 333 -110 333 -139 c 0x81
EndSplineSet
Substitution2: "'smcp' Lowercase to Small Capitals lookup 3 subtable" abrevedotbelow.sc
Substitution2: "'aalt' Access All Alternates lookup 0 subtable" abrevedotbelow.sc
EndChar

StartChar: Abrevegrave
Encoding: 7856 7856 136
Width: 700
Flags: MW
HStem: 0 29<-20 -20 -20 237 -25 -20> 253 40<269 497 269 502 246 497> 661 20G<422 518 518 518> 748 60<450.5 517.5 450.5 524> 825 20G<343 343> 865 21G<562 562> 981 20G<443.5 467.5>
LayerCount: 2
Fore
SplineSet
715 0 m 1
 444 0 l 1
 449 29 l 1
 461 31 l 2
 516 40 529 60 529 90 c 0
 529 103 527 119 524 136 c 2
 502 253 l 1
 246 253 l 1
 193 157 l 2
 175 124 167 100 167 81 c 0
 167 52 188 38 230 31 c 2
 242 29 l 1
 237 0 l 1
 -25 0 l 1
 -20 29 l 1
 -7 31 l 1
 55 46 74 63 137 175 c 2
 422 681 l 1
 518 681 l 1
 624 156 l 2
 644 57 654 44 708 31 c 2
 720 29 l 1
 715 0 l 1
497 293 m 1
 434 598 l 1
 269 293 l 1
 497 293 l 1
584 891 m 1x1e
 562 865 l 1
 452 906 l 2
 405 923 387 940 395 962 c 0
 402 983 431 1001 456 1001 c 0
 479 1001 498 988 530 952 c 2
 584 891 l 1x1e
657 835 m 1
 616 773 566 748 482 748 c 0
 405 748 349 776 317 834 c 1
 343 845 l 1
 372 820 416 808 485 808 c 0
 550 808 599 820 633 844 c 1
 657 835 l 1
EndSplineSet
Substitution2: "'c2sc' Capitals to Small Capitals lookup 15 subtable" abrevegrave.sc
Substitution2: "'aalt' Access All Alternates lookup 0 subtable" abrevegrave.sc
Position2: "'cpsp' Capital Spacing lookup 0 subtable" dx=7 dy=0 dh=14 dv=0
EndChar

StartChar: abrevegrave
Encoding: 7857 7857 137
Width: 620
Flags: MW
HStem: -9 47<233 282> -9 60<501 604> 448 47<311.5 388 281.5 404.5> 566 60<371.5 438.5 371.5 445> 643 20G<264 264> 683 21G<483 483> 799 20G<364.5 388.5>
VStem: 71 97<120.5 211.5 117.5 261.5>
LayerCount: 2
Fore
SplineSet
686 69 m 1x61
 656 25 592 -9 540 -9 c 0
 462 -9 444 70 444 96 c 0
 444 99 444 105 445 112 c 1
 384 29 321 -9 243 -9 c 0
 140 -9 71 65 71 176 c 0
 71 347 204 495 359 495 c 0
 417 495 470 473 504 435 c 1
 513 486 l 1
 605 486 l 1
 546 160 l 2
 541 134 539 117 539 105 c 0
 539 75 563 51 592 51 c 0
 616 51 644 66 664 90 c 1
 686 69 l 1x61
496 393 m 1
 460 433 428 448 381 448 c 0
 242 448 168 272 168 151 c 0
 168 84 205 38 261 38 c 0xa1
 315 38 378 78 415 137 c 0
 451 194 470 252 496 393 c 1
505 709 m 1x1e
 483 683 l 1
 373 724 l 2
 326 741 308 758 316 780 c 0
 323 801 352 819 377 819 c 0
 400 819 419 806 451 770 c 2
 505 709 l 1x1e
578 653 m 1
 537 591 487 566 403 566 c 0
 326 566 270 594 238 652 c 1
 264 663 l 1
 293 638 337 626 406 626 c 0
 471 626 520 638 554 662 c 1
 578 653 l 1
EndSplineSet
Substitution2: "'smcp' Lowercase to Small Capitals lookup 3 subtable" abrevegrave.sc
Substitution2: "'aalt' Access All Alternates lookup 0 subtable" abrevegrave.sc
EndChar

StartChar: Abrevehookabove
Encoding: 7858 7858 138
Width: 700
Flags: MW
HStem: 0 29<-20 -20 -20 237 -25 -20> 253 40<269 497 269 502 246 497> 661 20G<422 518 518 518> 748 60<450.5 517.5 450.5 524> 825 20G 825 21G<455 500 455 455> 992 34<510 537.5>
VStem: 403 73<949.5 958.5 949.5 974> 566 71<960 974>
LayerCount: 2
Fore
SplineSet
715 0 m 1xe0
 444 0 l 1
 449 29 l 1
 461 31 l 2
 516 40 529 60 529 90 c 0
 529 103 527 119 524 136 c 2
 502 253 l 1
 246 253 l 1
 193 157 l 2
 175 124 167 100 167 81 c 0
 167 52 188 38 230 31 c 2
 242 29 l 1
 237 0 l 1
 -25 0 l 1
 -20 29 l 1
 -7 31 l 1
 55 46 74 63 137 175 c 2
 422 681 l 1
 518 681 l 1
 624 156 l 2
 644 57 654 44 708 31 c 2
 720 29 l 1
 715 0 l 1xe0
497 293 m 1
 434 598 l 1
 269 293 l 1
 497 293 l 1
637 960 m 0x1780
 637 875 511 896 500 825 c 1
 455 825 l 1
 464 882 468 887 523 913 c 0
 542 922 546 927 555 935 c 1
 555 934 l 1
 562 944 566 955 566 965 c 0
 566 983 550 992 525 992 c 0
 495 992 471 983 471 972 c 0
 471 960 476 960 476 957 c 0
 476 942 457 928 437 928 c 0
 417 928 403 938 403 956 c 0
 403 992 462 1026 526 1026 c 0
 592 1026 637 999 637 960 c 0x1780
657 835 m 1
 616 773 566 748 482 748 c 0
 405 748 349 776 317 834 c 1
 343 845 l 1x18
 372 820 416 808 485 808 c 0
 550 808 599 820 633 844 c 1
 657 835 l 1
EndSplineSet
Substitution2: "'c2sc' Capitals to Small Capitals lookup 15 subtable" abrevehookabove.sc
Substitution2: "'aalt' Access All Alternates lookup 0 subtable" abrevehookabove.sc
Position2: "'cpsp' Capital Spacing lookup 0 subtable" dx=7 dy=0 dh=14 dv=0
EndChar

StartChar: abrevehookabove
Encoding: 7859 7859 139
Width: 620
Flags: MW
HStem: -9 47<233 282> -9 60<501 604> 448 47<311.5 388 281.5 404.5> 566 60<371.5 438.5 371.5 445> 643 20G 643 21G<376 421 376 376> 810 34<431 458.5>
VStem: 71 97<120.5 211.5 117.5 261.5> 324 73<767.5 776.5 767.5 792> 487 71<778 792>
LayerCount: 2
Fore
SplineSet
686 69 m 1x61
 656 25 592 -9 540 -9 c 0
 462 -9 444 70 444 96 c 0
 444 99 444 105 445 112 c 1
 384 29 321 -9 243 -9 c 0
 140 -9 71 65 71 176 c 0
 71 347 204 495 359 495 c 0
 417 495 470 473 504 435 c 1
 513 486 l 1
 605 486 l 1
 546 160 l 2
 541 134 539 117 539 105 c 0
 539 75 563 51 592 51 c 0
 616 51 644 66 664 90 c 1
 686 69 l 1x61
496 393 m 1
 460 433 428 448 381 448 c 0
 242 448 168 272 168 151 c 0
 168 84 205 38 261 38 c 0xa1
 315 38 378 78 415 137 c 0
 451 194 470 252 496 393 c 1
558 778 m 0x16c0
 558 693 432 714 421 643 c 1
 376 643 l 1
 385 700 389 705 444 731 c 0
 463 740 467 745 476 753 c 1
 476 752 l 1
 483 762 487 773 487 783 c 0
 487 801 471 810 446 810 c 0
 416 810 392 801 392 790 c 0
 392 778 397 778 397 775 c 0
 397 760 378 746 358 746 c 0
 338 746 324 756 324 774 c 0
 324 810 383 844 447 844 c 0
 513 844 558 817 558 778 c 0x16c0
578 653 m 1
 537 591 487 566 403 566 c 0
 326 566 270 594 238 652 c 1
 264 663 l 1x18
 293 638 337 626 406 626 c 0
 471 626 520 638 554 662 c 1
 578 653 l 1
EndSplineSet
Substitution2: "'smcp' Lowercase to Small Capitals lookup 3 subtable" abrevehookabove.sc
Substitution2: "'aalt' Access All Alternates lookup 0 subtable" abrevehookabove.sc
EndChar

StartChar: Abrevetilde
Encoding: 7860 7860 140
Width: 700
Flags: MW
HStem: 0 29<-20 -20 -20 237 -25 -20> 253 40<269 497 269 502 246 497> 661 20G<422 518 518 518> 748 60<450.5 517.5 450.5 524> 825 20G<343 343>
LayerCount: 2
Fore
SplineSet
715 0 m 1
 444 0 l 1
 449 29 l 1
 461 31 l 2
 516 40 529 60 529 90 c 0
 529 103 527 119 524 136 c 2
 502 253 l 1
 246 253 l 1
 193 157 l 2
 175 124 167 100 167 81 c 0
 167 52 188 38 230 31 c 2
 242 29 l 1
 237 0 l 1
 -25 0 l 1
 -20 29 l 1
 -7 31 l 1
 55 46 74 63 137 175 c 2
 422 681 l 1
 518 681 l 1
 624 156 l 2
 644 57 654 44 708 31 c 2
 720 29 l 1
 715 0 l 1
497 293 m 1
 434 598 l 1
 269 293 l 1
 497 293 l 1
666 954 m 1x18
 641 899 602 871 552 871 c 0
 521 871 469 892 434 892 c 0
 415 892 399 886 389 876 c 1
 358 876 l 1
 379 924 418 952 463 952 c 0
 499 952 559 931 583 931 c 0
 602 931 617 938 637 954 c 1
 666 954 l 1x18
657 835 m 1
 616 773 566 748 482 748 c 0
 405 748 349 776 317 834 c 1
 343 845 l 1
 372 820 416 808 485 808 c 0
 550 808 599 820 633 844 c 1
 657 835 l 1
EndSplineSet
Substitution2: "'c2sc' Capitals to Small Capitals lookup 15 subtable" abrevetilde.sc
Substitution2: "'aalt' Access All Alternates lookup 0 subtable" abrevetilde.sc
Position2: "'cpsp' Capital Spacing lookup 0 subtable" dx=7 dy=0 dh=14 dv=0
EndChar

StartChar: abrevetilde
Encoding: 7861 7861 141
Width: 620
Flags: MW
HStem: -9 47<233 282> -9 60<501 604> 448 47<311.5 388 281.5 404.5> 566 60<371.5 438.5 371.5 445> 643 20G<264 264>
VStem: 71 97<120.5 211.5 117.5 261.5>
LayerCount: 2
Fore
SplineSet
686 69 m 1x64
 656 25 592 -9 540 -9 c 0
 462 -9 444 70 444 96 c 0
 444 99 444 105 445 112 c 1
 384 29 321 -9 243 -9 c 0
 140 -9 71 65 71 176 c 0
 71 347 204 495 359 495 c 0
 417 495 470 473 504 435 c 1
 513 486 l 1
 605 486 l 1
 546 160 l 2
 541 134 539 117 539 105 c 0
 539 75 563 51 592 51 c 0
 616 51 644 66 664 90 c 1
 686 69 l 1x64
496 393 m 1
 460 433 428 448 381 448 c 0
 242 448 168 272 168 151 c 0
 168 84 205 38 261 38 c 0xa4
 315 38 378 78 415 137 c 0
 451 194 470 252 496 393 c 1
587 772 m 1x18
 562 717 523 689 473 689 c 0
 442 689 390 710 355 710 c 0
 336 710 320 704 310 694 c 1
 279 694 l 1
 300 742 339 770 384 770 c 0
 420 770 480 749 504 749 c 0
 523 749 538 756 558 772 c 1
 587 772 l 1x18
578 653 m 1
 537 591 487 566 403 566 c 0
 326 566 270 594 238 652 c 1
 264 663 l 1
 293 638 337 626 406 626 c 0
 471 626 520 638 554 662 c 1
 578 653 l 1
EndSplineSet
Substitution2: "'smcp' Lowercase to Small Capitals lookup 3 subtable" abrevetilde.sc
Substitution2: "'aalt' Access All Alternates lookup 0 subtable" abrevetilde.sc
EndChar

StartChar: Acaron
Encoding: 461 461 142
Width: 700
Flags: MW
HStem: 0 29<-20 -20 -20 237 -25 -20> 253 40<269 497 269 502 246 497> 661 20G<422 518 518 518> 740 21G<480 480> 832 20G<639 639>
LayerCount: 2
Fore
SplineSet
715 0 m 1
 444 0 l 1
 449 29 l 1
 461 31 l 2
 516 40 529 60 529 90 c 0
 529 103 527 119 524 136 c 2
 502 253 l 1
 246 253 l 1
 193 157 l 2
 175 124 167 100 167 81 c 0
 167 52 188 38 230 31 c 2
 242 29 l 1
 237 0 l 1
 -25 0 l 1
 -20 29 l 1
 -7 31 l 1
 55 46 74 63 137 175 c 2
 422 681 l 1
 518 681 l 1
 624 156 l 2
 644 57 654 44 708 31 c 2
 720 29 l 1
 715 0 l 1
497 293 m 1
 434 598 l 1
 269 293 l 1
 497 293 l 1
663 829 m 1x18
 480 740 l 1
 330 829 l 1
 357 851 l 1
 493 811 l 1
 639 852 l 1
 663 829 l 1x18
EndSplineSet
EndChar

StartChar: acaron
Encoding: 462 462 143
Width: 620
Flags: MW
HStem: -9 47<233 282> -9 60<501 604> 448 47<311.5 388 281.5 404.5> 568 21G<403 403> 673 20G<547 547>
VStem: 71 97<120.5 211.5 117.5 261.5>
LayerCount: 2
Fore
SplineSet
686 69 m 1x64
 656 25 592 -9 540 -9 c 0
 462 -9 444 70 444 96 c 0
 444 99 444 105 445 112 c 1
 384 29 321 -9 243 -9 c 0
 140 -9 71 65 71 176 c 0
 71 347 204 495 359 495 c 0
 417 495 470 473 504 435 c 1
 513 486 l 1
 605 486 l 1
 546 160 l 2
 541 134 539 117 539 105 c 0
 539 75 563 51 592 51 c 0
 616 51 644 66 664 90 c 1
 686 69 l 1x64
496 393 m 1
 460 433 428 448 381 448 c 0
 242 448 168 272 168 151 c 0
 168 84 205 38 261 38 c 0xa4
 315 38 378 78 415 137 c 0
 451 194 470 252 496 393 c 1
569 668 m 1x18
 403 568 l 1
 266 667 l 1
 291 692 l 1
 414 647 l 1
 547 693 l 1
 569 668 l 1x18
EndSplineSet
EndChar

StartChar: Acircumflex
Encoding: 194 194 144
Width: 700
Flags: MW
HStem: 0 29<-20 -20 -20 237 -25 -20> 253 40<269 497 269 502 246 497> 661 20G<422 518 518 518> 740 21G<342 342> 832 20G<501 501>
LayerCount: 2
Fore
SplineSet
715 0 m 1
 444 0 l 1
 449 29 l 1
 461 31 l 2
 516 40 529 60 529 90 c 0
 529 103 527 119 524 136 c 2
 502 253 l 1
 246 253 l 1
 193 157 l 2
 175 124 167 100 167 81 c 0
 167 52 188 38 230 31 c 2
 242 29 l 1
 237 0 l 1
 -25 0 l 1
 -20 29 l 1
 -7 31 l 1
 55 46 74 63 137 175 c 2
 422 681 l 1
 518 681 l 1
 624 156 l 2
 644 57 654 44 708 31 c 2
 720 29 l 1
 715 0 l 1
497 293 m 1
 434 598 l 1
 269 293 l 1
 497 293 l 1
651 763 m 1x18
 624 741 l 1
 488 781 l 1
 342 740 l 1
 318 763 l 1
 501 852 l 1
 651 763 l 1x18
EndSplineSet
Substitution2: "'c2sc' Capitals to Small Capitals lookup 15 subtable" acircumflex.sc
Substitution2: "'aalt' Access All Alternates lookup 0 subtable" acircumflex.sc
Position2: "'cpsp' Capital Spacing lookup 0 subtable" dx=7 dy=0 dh=14 dv=0
EndChar

StartChar: acircumflex
Encoding: 226 226 145
Width: 620
Flags: MW
HStem: -9 47<233 282> -9 60<501 604> 448 47<311.5 388 281.5 404.5> 568 21G<278 278> 673 20G<422 422>
VStem: 71 97<120.5 211.5 117.5 261.5>
LayerCount: 2
Fore
SplineSet
686 69 m 1x64
 656 25 592 -9 540 -9 c 0
 462 -9 444 70 444 96 c 0
 444 99 444 105 445 112 c 1
 384 29 321 -9 243 -9 c 0
 140 -9 71 65 71 176 c 0
 71 347 204 495 359 495 c 0
 417 495 470 473 504 435 c 1
 513 486 l 1
 605 486 l 1
 546 160 l 2
 541 134 539 117 539 105 c 0
 539 75 563 51 592 51 c 0
 616 51 644 66 664 90 c 1
 686 69 l 1x64
496 393 m 1
 460 433 428 448 381 448 c 0
 242 448 168 272 168 151 c 0
 168 84 205 38 261 38 c 0xa4
 315 38 378 78 415 137 c 0
 451 194 470 252 496 393 c 1
559 594 m 1x18
 534 569 l 1
 411 614 l 1
 278 568 l 1
 256 594 l 1
 422 693 l 1
 559 594 l 1x18
EndSplineSet
Substitution2: "'smcp' Lowercase to Small Capitals lookup 3 subtable" acircumflex.sc
Substitution2: "'aalt' Access All Alternates lookup 0 subtable" acircumflex.sc
EndChar

StartChar: Acircumflexacute
Encoding: 7844 7844 146
Width: 700
Flags: MW
HStem: 0 29<-20 -20 -20 237 -25 -20> 253 40<269 497 269 502 246 497> 661 20G<422 518 518 518> 740 21G<342 342> 832 20G<501 501> 872 21G<436 436> 988 20G<579.5 603.5>
LayerCount: 2
Fore
SplineSet
715 0 m 1
 444 0 l 1
 449 29 l 1
 461 31 l 2
 516 40 529 60 529 90 c 0
 529 103 527 119 524 136 c 2
 502 253 l 1
 246 253 l 1
 193 157 l 2
 175 124 167 100 167 81 c 0
 167 52 188 38 230 31 c 2
 242 29 l 1
 237 0 l 1
 -25 0 l 1
 -20 29 l 1
 -7 31 l 1
 55 46 74 63 137 175 c 2
 422 681 l 1
 518 681 l 1
 624 156 l 2
 644 57 654 44 708 31 c 2
 720 29 l 1
 715 0 l 1
497 293 m 1
 434 598 l 1
 269 293 l 1
 497 293 l 1
638 969 m 0x1e
 638 947 614 930 560 913 c 2
 436 872 l 1
 423 898 l 1
 499 959 l 2
 544 995 568 1008 591 1008 c 0
 616 1008 638 990 638 969 c 0x1e
651 763 m 1
 624 741 l 1
 488 781 l 1
 342 740 l 1
 318 763 l 1
 501 852 l 1
 651 763 l 1
EndSplineSet
Substitution2: "'c2sc' Capitals to Small Capitals lookup 15 subtable" acircumflexacute.sc
Substitution2: "'aalt' Access All Alternates lookup 0 subtable" acircumflexacute.sc
Position2: "'cpsp' Capital Spacing lookup 0 subtable" dx=7 dy=0 dh=14 dv=0
EndChar

StartChar: acircumflexacute
Encoding: 7845 7845 147
Width: 620
Flags: MW
HStem: -9 47<233 282> -9 60<501 604> 448 47<311.5 388 281.5 404.5> 558 21G<263 263> 650 20G<422 422> 690 21G<357 357> 806 20G<500.5 524.5>
VStem: 71 97<120.5 211.5 117.5 261.5>
LayerCount: 2
Fore
SplineSet
686 69 m 1x61
 656 25 592 -9 540 -9 c 0
 462 -9 444 70 444 96 c 0
 444 99 444 105 445 112 c 1
 384 29 321 -9 243 -9 c 0
 140 -9 71 65 71 176 c 0
 71 347 204 495 359 495 c 0
 417 495 470 473 504 435 c 1
 513 486 l 1
 605 486 l 1
 546 160 l 2
 541 134 539 117 539 105 c 0
 539 75 563 51 592 51 c 0
 616 51 644 66 664 90 c 1
 686 69 l 1x61
496 393 m 1
 460 433 428 448 381 448 c 0
 242 448 168 272 168 151 c 0
 168 84 205 38 261 38 c 0xa1
 315 38 378 78 415 137 c 0
 451 194 470 252 496 393 c 1
559 787 m 0x1e
 559 765 535 748 481 731 c 2
 357 690 l 1
 344 716 l 1
 420 777 l 2
 465 813 489 826 512 826 c 0
 537 826 559 808 559 787 c 0x1e
572 581 m 1
 545 559 l 1
 409 599 l 1
 263 558 l 1
 239 581 l 1
 422 670 l 1
 572 581 l 1
EndSplineSet
Substitution2: "'smcp' Lowercase to Small Capitals lookup 3 subtable" acircumflexacute.sc
Substitution2: "'aalt' Access All Alternates lookup 0 subtable" acircumflexacute.sc
EndChar

StartChar: Acircumflexdotbelow
Encoding: 7852 7852 148
Width: 700
Flags: MW
HStem: -210 121<315 328.5> 0 29<-20 -20 -20 237 -25 -20> 253 40<269 497 269 502 246 497> 661 20G<422 518 518 518> 740 21G<342 342> 832 20G<501 501>
VStem: 262 121<-158 -139.5>
LayerCount: 2
Fore
SplineSet
715 0 m 1
 444 0 l 1
 449 29 l 1
 461 31 l 2
 516 40 529 60 529 90 c 0
 529 103 527 119 524 136 c 2
 502 253 l 1
 246 253 l 1
 193 157 l 2
 175 124 167 100 167 81 c 0
 167 52 188 38 230 31 c 2
 242 29 l 1
 237 0 l 1
 -25 0 l 1
 -20 29 l 1
 -7 31 l 1
 55 46 74 63 137 175 c 2
 422 681 l 1
 518 681 l 1
 624 156 l 2
 644 57 654 44 708 31 c 2
 720 29 l 1
 715 0 l 1
497 293 m 1
 434 598 l 1
 269 293 l 1
 497 293 l 1
651 763 m 1
 624 741 l 1
 488 781 l 1
 342 740 l 1
 318 763 l 1
 501 852 l 1
 651 763 l 1
383 -139 m 0x82
 383 -177 348 -210 309 -210 c 0
 281 -210 262 -189 262 -158 c 0
 262 -121 296 -89 334 -89 c 0
 362 -89 383 -110 383 -139 c 0x82
EndSplineSet
Substitution2: "'c2sc' Capitals to Small Capitals lookup 15 subtable" acircumflexdotbelow.sc
Substitution2: "'aalt' Access All Alternates lookup 0 subtable" acircumflexdotbelow.sc
Position2: "'cpsp' Capital Spacing lookup 0 subtable" dx=7 dy=0 dh=14 dv=0
EndChar

StartChar: acircumflexdotbelow
Encoding: 7853 7853 149
Width: 620
Flags: MW
HStem: -210 121<265 278.5> -9 47<233 282> -9 60<501 604> 448 47<311.5 388 281.5 404.5> 568 21G<278 278> 673 20G<422 422>
VStem: 71 97<120.5 211.5 117.5 261.5> 212 121<-158 -139.5>
LayerCount: 2
Fore
SplineSet
686 69 m 1x32
 656 25 592 -9 540 -9 c 0
 462 -9 444 70 444 96 c 0
 444 99 444 105 445 112 c 1
 384 29 321 -9 243 -9 c 0
 140 -9 71 65 71 176 c 0
 71 347 204 495 359 495 c 0
 417 495 470 473 504 435 c 1
 513 486 l 1
 605 486 l 1
 546 160 l 2
 541 134 539 117 539 105 c 0
 539 75 563 51 592 51 c 0
 616 51 644 66 664 90 c 1
 686 69 l 1x32
496 393 m 1
 460 433 428 448 381 448 c 0
 242 448 168 272 168 151 c 0
 168 84 205 38 261 38 c 0x5e
 315 38 378 78 415 137 c 0
 451 194 470 252 496 393 c 1
559 594 m 1
 534 569 l 1
 411 614 l 1
 278 568 l 1
 256 594 l 1
 422 693 l 1
 559 594 l 1
333 -139 m 0x81
 333 -177 298 -210 259 -210 c 0
 231 -210 212 -189 212 -158 c 0
 212 -121 246 -89 284 -89 c 0
 312 -89 333 -110 333 -139 c 0x81
EndSplineSet
Substitution2: "'smcp' Lowercase to Small Capitals lookup 3 subtable" acircumflexdotbelow.sc
Substitution2: "'aalt' Access All Alternates lookup 0 subtable" acircumflexdotbelow.sc
EndChar

StartChar: Acircumflexgrave
Encoding: 7846 7846 150
Width: 700
Flags: MW
HStem: 0 29<-20 -20 -20 237 -25 -20> 253 40<269 497 269 502 246 497> 661 20G<422 518 518 518> 740 21G<342 342> 832 20G<501 501> 872 21G<583 583> 988 20G<464.5 488.5>
LayerCount: 2
Fore
SplineSet
715 0 m 1
 444 0 l 1
 449 29 l 1
 461 31 l 2
 516 40 529 60 529 90 c 0
 529 103 527 119 524 136 c 2
 502 253 l 1
 246 253 l 1
 193 157 l 2
 175 124 167 100 167 81 c 0
 167 52 188 38 230 31 c 2
 242 29 l 1
 237 0 l 1
 -25 0 l 1
 -20 29 l 1
 -7 31 l 1
 55 46 74 63 137 175 c 2
 422 681 l 1
 518 681 l 1
 624 156 l 2
 644 57 654 44 708 31 c 2
 720 29 l 1
 715 0 l 1
497 293 m 1
 434 598 l 1
 269 293 l 1
 497 293 l 1
605 898 m 1x1e
 583 872 l 1
 474 913 l 2
 426 930 408 947 416 969 c 0
 424 990 452 1008 477 1008 c 0
 500 1008 520 995 552 959 c 2
 605 898 l 1x1e
651 763 m 1
 624 741 l 1
 488 781 l 1
 342 740 l 1
 318 763 l 1
 501 852 l 1
 651 763 l 1
EndSplineSet
Substitution2: "'c2sc' Capitals to Small Capitals lookup 15 subtable" acircumflexgrave.sc
Substitution2: "'aalt' Access All Alternates lookup 0 subtable" acircumflexgrave.sc
Position2: "'cpsp' Capital Spacing lookup 0 subtable" dx=7 dy=0 dh=14 dv=0
EndChar

StartChar: acircumflexgrave
Encoding: 7847 7847 151
Width: 620
Flags: MW
HStem: -9 47<233 282> -9 60<501 604> 448 47<311.5 388 281.5 404.5> 558 21G<263 263> 650 20G<422 422> 690 21G<504 504> 806 20G<385.5 409.5>
VStem: 71 97<120.5 211.5 117.5 261.5>
LayerCount: 2
Fore
SplineSet
686 69 m 1x61
 656 25 592 -9 540 -9 c 0
 462 -9 444 70 444 96 c 0
 444 99 444 105 445 112 c 1
 384 29 321 -9 243 -9 c 0
 140 -9 71 65 71 176 c 0
 71 347 204 495 359 495 c 0
 417 495 470 473 504 435 c 1
 513 486 l 1
 605 486 l 1
 546 160 l 2
 541 134 539 117 539 105 c 0
 539 75 563 51 592 51 c 0
 616 51 644 66 664 90 c 1
 686 69 l 1x61
496 393 m 1
 460 433 428 448 381 448 c 0
 242 448 168 272 168 151 c 0
 168 84 205 38 261 38 c 0xa1
 315 38 378 78 415 137 c 0
 451 194 470 252 496 393 c 1
526 716 m 1x1e
 504 690 l 1
 395 731 l 2
 347 748 329 765 337 787 c 0
 345 808 373 826 398 826 c 0
 421 826 441 813 473 777 c 2
 526 716 l 1x1e
572 581 m 1
 545 559 l 1
 409 599 l 1
 263 558 l 1
 239 581 l 1
 422 670 l 1
 572 581 l 1
EndSplineSet
Substitution2: "'smcp' Lowercase to Small Capitals lookup 3 subtable" acircumflexgrave.sc
Substitution2: "'aalt' Access All Alternates lookup 0 subtable" acircumflexgrave.sc
EndChar

StartChar: Acircumflexhookabove
Encoding: 7848 7848 152
Width: 700
Flags: MW
HStem: 0 29<-20 -20 -20 237 -25 -20> 253 40<269 497 269 502 246 497> 661 20G<422 518 518 518> 740 21G<342 342> 832 20G<501 501>
VStem: 460 73<996.5 1005.5 996.5 1021> 623 71<1007 1021>
LayerCount: 2
Fore
SplineSet
715 0 m 1
 444 0 l 1
 449 29 l 1
 461 31 l 2
 516 40 529 60 529 90 c 0
 529 103 527 119 524 136 c 2
 502 253 l 1
 246 253 l 1
 193 157 l 2
 175 124 167 100 167 81 c 0
 167 52 188 38 230 31 c 2
 242 29 l 1
 237 0 l 1
 -25 0 l 1
 -20 29 l 1
 -7 31 l 1
 55 46 74 63 137 175 c 2
 422 681 l 1
 518 681 l 1
 624 156 l 2
 644 57 654 44 708 31 c 2
 720 29 l 1
 715 0 l 1
497 293 m 1
 434 598 l 1
 269 293 l 1
 497 293 l 1
694 1007 m 0x1e
 694 922 568 943 557 872 c 1
 512 872 l 1
 521 929 525 934 580 960 c 0
 599 969 603 974 612 982 c 1
 612 981 l 1
 619 991 623 1002 623 1012 c 0
 623 1030 607 1039 582 1039 c 0
 552 1039 528 1030 528 1019 c 0
 528 1007 533 1007 533 1004 c 0
 533 989 514 975 494 975 c 0
 474 975 460 985 460 1003 c 0
 460 1039 519 1073 583 1073 c 0
 649 1073 694 1046 694 1007 c 0x1e
651 763 m 1
 624 741 l 1
 488 781 l 1
 342 740 l 1
 318 763 l 1
 501 852 l 1
 651 763 l 1
EndSplineSet
Substitution2: "'c2sc' Capitals to Small Capitals lookup 15 subtable" acircumflexhookabove.sc
Substitution2: "'aalt' Access All Alternates lookup 0 subtable" acircumflexhookabove.sc
Position2: "'cpsp' Capital Spacing lookup 0 subtable" dx=7 dy=0 dh=14 dv=0
EndChar

StartChar: acircumflexhookabove
Encoding: 7849 7849 153
Width: 620
Flags: MW
HStem: -9 47<233 282> -9 60<501 604> 448 47<311.5 388 281.5 404.5> 558 21G<263 263> 650 20G<422 422>
VStem: 71 97<120.5 211.5 117.5 261.5> 381 73<814.5 823.5 814.5 839> 544 71<825 839>
LayerCount: 2
Fore
SplineSet
686 69 m 1x64
 656 25 592 -9 540 -9 c 0
 462 -9 444 70 444 96 c 0
 444 99 444 105 445 112 c 1
 384 29 321 -9 243 -9 c 0
 140 -9 71 65 71 176 c 0
 71 347 204 495 359 495 c 0
 417 495 470 473 504 435 c 1
 513 486 l 1
 605 486 l 1
 546 160 l 2
 541 134 539 117 539 105 c 0
 539 75 563 51 592 51 c 0
 616 51 644 66 664 90 c 1
 686 69 l 1x64
496 393 m 1
 460 433 428 448 381 448 c 0
 242 448 168 272 168 151 c 0
 168 84 205 38 261 38 c 0xa6
 315 38 378 78 415 137 c 0
 451 194 470 252 496 393 c 1
615 825 m 0x1b
 615 740 489 761 478 690 c 1
 433 690 l 1
 442 747 446 752 501 778 c 0
 520 787 524 792 533 800 c 1
 533 799 l 1
 540 809 544 820 544 830 c 0
 544 848 528 857 503 857 c 0
 473 857 449 848 449 837 c 0
 449 825 454 825 454 822 c 0
 454 807 435 793 415 793 c 0
 395 793 381 803 381 821 c 0
 381 857 440 891 504 891 c 0
 570 891 615 864 615 825 c 0x1b
572 581 m 1
 545 559 l 1
 409 599 l 1
 263 558 l 1
 239 581 l 1
 422 670 l 1
 572 581 l 1
EndSplineSet
Substitution2: "'smcp' Lowercase to Small Capitals lookup 3 subtable" acircumflexhookabove.sc
Substitution2: "'aalt' Access All Alternates lookup 0 subtable" acircumflexhookabove.sc
EndChar

StartChar: Acircumflextilde
Encoding: 7850 7850 154
Width: 700
Flags: MW
HStem: 0 29<-20 -20 -20 237 -25 -20> 253 40<269 497 269 502 246 497> 661 20G<422 518 518 518> 740 21G<342 342> 832 20G<501 501>
LayerCount: 2
Fore
SplineSet
715 0 m 1
 444 0 l 1
 449 29 l 1
 461 31 l 2
 516 40 529 60 529 90 c 0
 529 103 527 119 524 136 c 2
 502 253 l 1
 246 253 l 1
 193 157 l 2
 175 124 167 100 167 81 c 0
 167 52 188 38 230 31 c 2
 242 29 l 1
 237 0 l 1
 -25 0 l 1
 -20 29 l 1
 -7 31 l 1
 55 46 74 63 137 175 c 2
 422 681 l 1
 518 681 l 1
 624 156 l 2
 644 57 654 44 708 31 c 2
 720 29 l 1
 715 0 l 1
497 293 m 1
 434 598 l 1
 269 293 l 1
 497 293 l 1
668 965 m 1x18
 643 910 604 882 554 882 c 0
 523 882 471 903 436 903 c 0
 417 903 401 897 391 887 c 1
 360 887 l 1
 381 935 420 963 465 963 c 0
 501 963 561 942 585 942 c 0
 604 942 619 949 639 965 c 1
 668 965 l 1x18
651 763 m 1
 624 741 l 1
 488 781 l 1
 342 740 l 1
 318 763 l 1
 501 852 l 1
 651 763 l 1
EndSplineSet
Substitution2: "'c2sc' Capitals to Small Capitals lookup 15 subtable" acircumflextilde.sc
Substitution2: "'aalt' Access All Alternates lookup 0 subtable" acircumflextilde.sc
Position2: "'cpsp' Capital Spacing lookup 0 subtable" dx=7 dy=0 dh=14 dv=0
EndChar

StartChar: acircumflextilde
Encoding: 7851 7851 155
Width: 620
Flags: MW
HStem: -9 47<233 282> -9 60<501 604> 448 47<311.5 388 281.5 404.5> 558 21G<263 263> 650 20G<422 422>
VStem: 71 97<120.5 211.5 117.5 261.5>
LayerCount: 2
Fore
SplineSet
686 69 m 1x64
 656 25 592 -9 540 -9 c 0
 462 -9 444 70 444 96 c 0
 444 99 444 105 445 112 c 1
 384 29 321 -9 243 -9 c 0
 140 -9 71 65 71 176 c 0
 71 347 204 495 359 495 c 0
 417 495 470 473 504 435 c 1
 513 486 l 1
 605 486 l 1
 546 160 l 2
 541 134 539 117 539 105 c 0
 539 75 563 51 592 51 c 0
 616 51 644 66 664 90 c 1
 686 69 l 1x64
496 393 m 1
 460 433 428 448 381 448 c 0
 242 448 168 272 168 151 c 0
 168 84 205 38 261 38 c 0xa4
 315 38 378 78 415 137 c 0
 451 194 470 252 496 393 c 1
589 783 m 1x18
 564 728 525 700 475 700 c 0
 444 700 392 721 357 721 c 0
 338 721 322 715 312 705 c 1
 281 705 l 1
 302 753 341 781 386 781 c 0
 422 781 482 760 506 760 c 0
 525 760 540 767 560 783 c 1
 589 783 l 1x18
572 581 m 1
 545 559 l 1
 409 599 l 1
 263 558 l 1
 239 581 l 1
 422 670 l 1
 572 581 l 1
EndSplineSet
Substitution2: "'smcp' Lowercase to Small Capitals lookup 3 subtable" acircumflextilde.sc
Substitution2: "'aalt' Access All Alternates lookup 0 subtable" acircumflextilde.sc
EndChar

StartChar: acute
Encoding: 180 180 156
Width: 320
Flags: MW
HStem: 554 21G<202 202> 685 20G<343 354>
LayerCount: 2
Fore
SplineSet
385 662 m 0
 385 637 364 618 315 599 c 2
 202 554 l 1
 190 583 l 1
 259 651 l 2
 299 691 322 704 343 705 c 0
 365 705 385 685 385 662 c 0
EndSplineSet
EndChar

StartChar: uni0301
Encoding: 769 769 157
Width: 0
Flags: MW
HStem: 554 21G<-268 -268> 685 20G<-127 -116>
LayerCount: 2
Fore
SplineSet
-85 662 m 0
 -85 637 -106 618 -155 599 c 2
 -268 554 l 1
 -280 583 l 1
 -211 651 l 2
 -171 691 -148 704 -127 705 c 0
 -105 705 -85 685 -85 662 c 0
EndSplineSet
EndChar

StartChar: Adblgrave
Encoding: 512 512 158
Width: 700
Flags: MW
HStem: 0 29<-20 -20 -20 237 -25 -20> 253 40<269 497 269 502 246 497> 661 20G<422 518 518 518> 722 21G<295 295 435 435> 883 20G<297.5 320.5 437.5 460.5>
LayerCount: 2
Fore
SplineSet
715 0 m 1
 444 0 l 1
 449 29 l 1
 461 31 l 2
 516 40 529 60 529 90 c 0
 529 103 527 119 524 136 c 2
 502 253 l 1
 246 253 l 1
 193 157 l 2
 175 124 167 100 167 81 c 0
 167 52 188 38 230 31 c 2
 242 29 l 1
 237 0 l 1
 -25 0 l 1
 -20 29 l 1
 -7 31 l 1
 55 46 74 63 137 175 c 2
 422 681 l 1
 518 681 l 1
 624 156 l 2
 644 57 654 44 708 31 c 2
 720 29 l 1
 715 0 l 1
497 293 m 1
 434 598 l 1
 269 293 l 1
 497 293 l 1
463 738 m 1x18
 435 722 l 1
 399 803 l 2
 390 823 389 847 394 862 c 0
 402 884 427 903 448 903 c 0
 473 903 478 885 471 816 c 2
 463 738 l 1x18
323 738 m 1
 295 722 l 1
 259 803 l 2
 250 823 249 847 254 862 c 0
 262 884 287 903 308 903 c 0
 333 903 338 885 331 816 c 2
 323 738 l 1
EndSplineSet
Substitution2: "'c2sc' Capitals to Small Capitals lookup 15 subtable" adblgrave.sc
Substitution2: "'aalt' Access All Alternates lookup 0 subtable" adblgrave.sc
Position2: "'cpsp' Capital Spacing lookup 0 subtable" dx=7 dy=0 dh=14 dv=0
EndChar

StartChar: adblgrave
Encoding: 513 513 159
Width: 620
Flags: MW
HStem: -9 47<233 282> -9 60<501 604> 448 47<311.5 388 281.5 404.5> 540 21G<216 216 356 356> 701 20G<218.5 241.5 358.5 381.5>
VStem: 71 97<120.5 211.5 117.5 261.5>
LayerCount: 2
Fore
SplineSet
686 69 m 1x64
 656 25 592 -9 540 -9 c 0
 462 -9 444 70 444 96 c 0
 444 99 444 105 445 112 c 1
 384 29 321 -9 243 -9 c 0
 140 -9 71 65 71 176 c 0
 71 347 204 495 359 495 c 0
 417 495 470 473 504 435 c 1
 513 486 l 1
 605 486 l 1
 546 160 l 2
 541 134 539 117 539 105 c 0
 539 75 563 51 592 51 c 0
 616 51 644 66 664 90 c 1
 686 69 l 1x64
496 393 m 1
 460 433 428 448 381 448 c 0
 242 448 168 272 168 151 c 0
 168 84 205 38 261 38 c 0xa4
 315 38 378 78 415 137 c 0
 451 194 470 252 496 393 c 1
384 556 m 1x18
 356 540 l 1
 320 621 l 2
 311 641 310 665 315 680 c 0
 323 702 348 721 369 721 c 0
 394 721 399 703 392 634 c 2
 384 556 l 1x18
244 556 m 1
 216 540 l 1
 180 621 l 2
 171 641 170 665 175 680 c 0
 183 702 208 721 229 721 c 0
 254 721 259 703 252 634 c 2
 244 556 l 1
EndSplineSet
Substitution2: "'smcp' Lowercase to Small Capitals lookup 3 subtable" adblgrave.sc
Substitution2: "'aalt' Access All Alternates lookup 0 subtable" adblgrave.sc
EndChar

StartChar: Adieresis
Encoding: 196 196 160
Width: 700
Flags: MW
HStem: 0 29<-20 -20 -20 237 -25 -20> 253 40<269 497 269 502 246 497> 661 20G<422 518 518 518> 736 120<392.5 407 574.5 589>
VStem: 340 120<787.5 806> 522 120<787.5 806>
LayerCount: 2
Fore
SplineSet
715 0 m 1
 444 0 l 1
 449 29 l 1
 461 31 l 2
 516 40 529 60 529 90 c 0
 529 103 527 119 524 136 c 2
 502 253 l 1
 246 253 l 1
 193 157 l 2
 175 124 167 100 167 81 c 0
 167 52 188 38 230 31 c 2
 242 29 l 1
 237 0 l 1
 -25 0 l 1
 -20 29 l 1
 -7 31 l 1
 55 46 74 63 137 175 c 2
 422 681 l 1
 518 681 l 1
 624 156 l 2
 644 57 654 44 708 31 c 2
 720 29 l 1
 715 0 l 1
497 293 m 1
 434 598 l 1
 269 293 l 1
 497 293 l 1
460 806 m 0x1c
 460 769 426 736 388 736 c 0
 359 736 340 757 340 788 c 0
 340 824 374 856 411 856 c 0
 439 856 460 835 460 806 c 0x1c
642 806 m 0
 642 769 608 736 570 736 c 0
 541 736 522 757 522 788 c 0
 522 824 556 856 593 856 c 0
 621 856 642 835 642 806 c 0
EndSplineSet
Substitution2: "'c2sc' Capitals to Small Capitals lookup 15 subtable" adieresis.sc
Substitution2: "'aalt' Access All Alternates lookup 0 subtable" adieresis.sc
Position2: "'cpsp' Capital Spacing lookup 0 subtable" dx=7 dy=0 dh=14 dv=0
EndChar

StartChar: adieresis
Encoding: 228 228 161
Width: 620
Flags: MW
HStem: -9 47<233 282> -9 60<501 604> 448 47<311.5 388 281.5 404.5> 570 120<316.5 331 498.5 513>
VStem: 71 97<120.5 211.5 117.5 261.5> 264 120<621.5 640> 446 120<621.5 640>
LayerCount: 2
Fore
SplineSet
686 69 m 1x68
 656 25 592 -9 540 -9 c 0
 462 -9 444 70 444 96 c 0
 444 99 444 105 445 112 c 1
 384 29 321 -9 243 -9 c 0
 140 -9 71 65 71 176 c 0
 71 347 204 495 359 495 c 0
 417 495 470 473 504 435 c 1
 513 486 l 1
 605 486 l 1
 546 160 l 2
 541 134 539 117 539 105 c 0
 539 75 563 51 592 51 c 0
 616 51 644 66 664 90 c 1
 686 69 l 1x68
496 393 m 1
 460 433 428 448 381 448 c 0
 242 448 168 272 168 151 c 0
 168 84 205 38 261 38 c 0xa8
 315 38 378 78 415 137 c 0
 451 194 470 252 496 393 c 1
384 640 m 0x16
 384 603 350 570 312 570 c 0
 283 570 264 591 264 622 c 0
 264 658 298 690 335 690 c 0
 363 690 384 669 384 640 c 0x16
566 640 m 0
 566 603 532 570 494 570 c 0
 465 570 446 591 446 622 c 0
 446 658 480 690 517 690 c 0
 545 690 566 669 566 640 c 0
EndSplineSet
Substitution2: "'smcp' Lowercase to Small Capitals lookup 3 subtable" adieresis.sc
Substitution2: "'aalt' Access All Alternates lookup 0 subtable" adieresis.sc
EndChar

StartChar: Adotbelow
Encoding: 7840 7840 162
Width: 700
Flags: MW
HStem: -210 121<315 328.5> 0 29<-20 -20 -20 237 -25 -20> 253 40<269 497 269 502 246 497> 661 20G<422 518 518 518>
VStem: 262 121<-158 -139.5>
LayerCount: 2
Fore
SplineSet
715 0 m 1
 444 0 l 1
 449 29 l 1
 461 31 l 2
 516 40 529 60 529 90 c 0
 529 103 527 119 524 136 c 2
 502 253 l 1
 246 253 l 1
 193 157 l 2
 175 124 167 100 167 81 c 0
 167 52 188 38 230 31 c 2
 242 29 l 1
 237 0 l 1
 -25 0 l 1
 -20 29 l 1
 -7 31 l 1
 55 46 74 63 137 175 c 2
 422 681 l 1
 518 681 l 1
 624 156 l 2
 644 57 654 44 708 31 c 2
 720 29 l 1
 715 0 l 1
497 293 m 1
 434 598 l 1
 269 293 l 1
 497 293 l 1
383 -139 m 0x88
 383 -177 348 -210 309 -210 c 0
 281 -210 262 -189 262 -158 c 0
 262 -121 296 -89 334 -89 c 0
 362 -89 383 -110 383 -139 c 0x88
EndSplineSet
Substitution2: "'c2sc' Capitals to Small Capitals lookup 15 subtable" adotbelow.sc
Substitution2: "'aalt' Access All Alternates lookup 0 subtable" adotbelow.sc
Position2: "'cpsp' Capital Spacing lookup 0 subtable" dx=7 dy=0 dh=14 dv=0
EndChar

StartChar: adotbelow
Encoding: 7841 7841 163
Width: 620
Flags: MW
HStem: -210 121<265 278.5> -9 47<233 282> -9 60<501 604> 448 47<311.5 388 281.5 404.5>
VStem: 71 97<120.5 211.5 117.5 261.5> 212 121<-158 -139.5>
LayerCount: 2
Fore
SplineSet
686 69 m 1x38
 656 25 592 -9 540 -9 c 0
 462 -9 444 70 444 96 c 0
 444 99 444 105 445 112 c 1
 384 29 321 -9 243 -9 c 0
 140 -9 71 65 71 176 c 0
 71 347 204 495 359 495 c 0
 417 495 470 473 504 435 c 1
 513 486 l 1
 605 486 l 1
 546 160 l 2
 541 134 539 117 539 105 c 0
 539 75 563 51 592 51 c 0
 616 51 644 66 664 90 c 1
 686 69 l 1x38
496 393 m 1
 460 433 428 448 381 448 c 0
 242 448 168 272 168 151 c 0
 168 84 205 38 261 38 c 0x58
 315 38 378 78 415 137 c 0
 451 194 470 252 496 393 c 1
333 -139 m 0x84
 333 -177 298 -210 259 -210 c 0
 231 -210 212 -189 212 -158 c 0
 212 -121 246 -89 284 -89 c 0
 312 -89 333 -110 333 -139 c 0x84
EndSplineSet
Substitution2: "'smcp' Lowercase to Small Capitals lookup 3 subtable" adotbelow.sc
Substitution2: "'aalt' Access All Alternates lookup 0 subtable" adotbelow.sc
EndChar

StartChar: AE
Encoding: 198 198 164
Width: 1220
Flags: MW
HStem: 0 29<-40 -40 -40 273 -45 -40> 0 45<828 903 828 1141> 338 47<501 700> 640 41<912 1034>
LayerCount: 2
Fore
SplineSet
1239 205 m 1x70
 1141 0 l 1
 551 0 l 1
 557 29 l 1
 573 31 l 2
 628 38 649 59 662 128 c 2
 700 338 l 1
 454 338 l 1
 266 162 l 2
 214 114 197 82 197 64 c 0
 197 37 239 34 263 31 c 2
 278 29 l 1
 273 0 l 1
 -45 0 l 1
 -40 29 l 1xa0
 44 48 124 97 195 163 c 2
 747 681 l 1
 1231 681 l 1
 1269 486 l 1
 1227 475 l 1
 1172 593 1098 640 970 640 c 0
 854 640 848 603 837 543 c 2
 808 382 l 1
 882 382 l 2
 982 382 1004 457 1018 500 c 1
 1049 500 l 1
 998 217 l 1
 966 217 l 1
 967 227 968 237 968 246 c 0
 968 308 940 338 876 338 c 2
 800 338 l 1
 762 132 l 2
 760 121 759 112 759 103 c 0
 759 56 787 45 869 45 c 0
 937 45 1022 70 1083 108 c 0
 1127 136 1161 165 1208 217 c 1
 1239 205 l 1x70
751 621 m 1
 501 385 l 1
 708 385 l 1
 751 621 l 1
EndSplineSet
Substitution2: "'c2sc' Capitals to Small Capitals lookup 15 subtable" ae.sc
Substitution2: "'aalt' Access All Alternates lookup 0 subtable" ae.sc
Position2: "'cpsp' Capital Spacing lookup 0 subtable" dx=7 dy=0 dh=14 dv=0
EndChar

StartChar: ae
Encoding: 230 230 165
Width: 917
Flags: WO
HStem: -9 60<603.404 771.19> -9 47<204.701 334.562> 218.029 36.9706<563.193 717.287> 448 47<303.271 452.353> 458 37<696.373 827.691>
VStem: 71 97<79.6427 271.219> 855 97<335.308 435.277>
LayerCount: 2
Fore
SplineSet
855 386 m 0x2e
 855 428 819 458 767 458 c 0
 726.106077217 458 621.542893927 439.098188287 563.451123274 256.424850631 c 1
 563.193251534 255 l 1
 576 255 l 2
 698 255 855 297 855 386 c 0x2e
904 87 m 1
 822 24 736 -9 658 -9 c 0xae
 557.101514757 -9 477.390343404 43.9682847263 451.191605065 121.350998955 c 1
 443.414088889 110.488450686 435.160984585 99.0064281305 433 96.2877125085 c 0
 375.69370311 24.1911665265 315.897739685 -9 243 -9 c 0
 140 -9 71 65 71 176 c 0
 71 347 204 495 359 495 c 0x76
 417 495 470 473 504 435 c 1
 513 486 l 1
 605 486 l 1
 596.171044786 437.216281362 l 1
 652.153976333 473.299230205 718.774941979 495 788 495 c 0
 830.236328125 495 867.626953125 485.712890625 896 469.860351562 c 0
 930.772460938 450.431640625 952 421.141601562 952 387 c 0
 952 289.063858782 813.181091401 233.072999299 556.502248875 218.029375137 c 1
 551.108278109 188.225401076 l 2
 551.032234462 186.212246598 551 184.154474992 551 182 c 0
 551 96 599 51 689 51 c 0xae
 748 51 792 65 878 114 c 1
 904 87 l 1
496 393 m 1
 460 433 428 448 381 448 c 0
 242 448 168 272 168 151 c 0
 168 84 205 38 261 38 c 0x76
 315 38 378 78 415 137 c 0
 451 194 470 252 496 393 c 1
EndSplineSet
Substitution2: "'smcp' Lowercase to Small Capitals lookup 3 subtable" ae.sc
Substitution2: "'aalt' Access All Alternates lookup 0 subtable" ae.sc
EndChar

StartChar: AEacute
Encoding: 508 508 166
Width: 1220
Flags: MW
HStem: 0 29<-40 -40 -40 273 -45 -40> 0 45<828 903 828 1141> 338 47<501 700> 640 41<912 1034> 728 21G<745 745> 844 20G<888.5 912.5>
LayerCount: 2
Fore
SplineSet
1239 205 m 1x70
 1141 0 l 1
 551 0 l 1
 557 29 l 1
 573 31 l 2
 628 38 649 59 662 128 c 2
 700 338 l 1
 454 338 l 1
 266 162 l 2
 214 114 197 82 197 64 c 0
 197 37 239 34 263 31 c 2
 278 29 l 1
 273 0 l 1
 -45 0 l 1
 -40 29 l 1xa0
 44 48 124 97 195 163 c 2
 747 681 l 1
 1231 681 l 1
 1269 486 l 1
 1227 475 l 1
 1172 593 1098 640 970 640 c 0
 854 640 848 603 837 543 c 2
 808 382 l 1
 882 382 l 2
 982 382 1004 457 1018 500 c 1
 1049 500 l 1
 998 217 l 1
 966 217 l 1
 967 227 968 237 968 246 c 0
 968 308 940 338 876 338 c 2
 800 338 l 1
 762 132 l 2
 760 121 759 112 759 103 c 0
 759 56 787 45 869 45 c 0
 937 45 1022 70 1083 108 c 0
 1127 136 1161 165 1208 217 c 1
 1239 205 l 1x70
751 621 m 1
 501 385 l 1
 708 385 l 1
 751 621 l 1
947 825 m 0x0c
 947 803 923 786 869 769 c 2
 745 728 l 1
 732 754 l 1
 808 815 l 2
 853 851 877 864 900 864 c 0
 925 864 947 846 947 825 c 0x0c
EndSplineSet
Substitution2: "'c2sc' Capitals to Small Capitals lookup 15 subtable" aeacute.sc
Substitution2: "'aalt' Access All Alternates lookup 0 subtable" aeacute.sc
Position2: "'cpsp' Capital Spacing lookup 0 subtable" dx=7 dy=0 dh=14 dv=0
EndChar

StartChar: aeacute
Encoding: 509 509 167
Width: 880
Flags: MW
HStem: -9 47<226 274.5 617.5 673.5> 234 32<534 554 554 570 530 554> 458 37<331.5 391 718 763> 554 21G<482 482> 685 20G<623 634>
VStem: 71 97<90.5 127> 825 93<352.5 408.5>
LayerCount: 2
Fore
SplineSet
870 84 m 1
 788 20 714 -9 633 -9 c 0
 587 -9 485 2 438 101 c 1
 410 69 346 -9 203 -9 c 0
 123 -9 71 31 71 92 c 0
 71 162 138 230 236 261 c 0
 297 280 352 288 449 293 c 1
 458 343 461 370 461 388 c 0
 461 433 424 458 358 458 c 0
 305 458 256 439 250 389 c 0
 246 355 219 328 187 328 c 0
 165 328 148 344 148 363 c 0
 148 438 272 495 377 495 c 0
 525 495 542 427 543 424 c 1
 620 474 682 495 754 495 c 0
 851 495 918 450 918 386 c 0
 918 288 759 234 570 234 c 2
 530 234 l 1
 526 205 525 193 525 174 c 0
 525 91 577 38 658 38 c 0
 717 38 771 59 847 112 c 1
 870 84 l 1
443 258 m 1
 278 258 168 193 168 112 c 0
 168 69 202 38 250 38 c 0
 311 38 376 76 406 128 c 0
 423 157 434 195 443 258 c 1
825 389 m 0
 825 428 788 458 738 458 c 0
 646 458 564 382 534 266 c 1
 554 266 l 2
 727 266 825 316 825 389 c 0
665 662 m 0x18
 665 637 644 618 595 599 c 2
 482 554 l 1
 470 583 l 1
 539 651 l 2
 579 691 602 704 623 705 c 0
 645 705 665 685 665 662 c 0x18
EndSplineSet
Substitution2: "'smcp' Lowercase to Small Capitals lookup 3 subtable" aeacute.sc
Substitution2: "'aalt' Access All Alternates lookup 0 subtable" aeacute.sc
EndChar

StartChar: Agrave
Encoding: 192 192 168
Width: 700
Flags: MW
HStem: 0 29<-20 -20 -20 237 -25 -20> 253 40<269 497 269 502 246 497> 661 20G<422 518 518 518> 728 21G<557 557> 844 20G<438.5 462.5>
LayerCount: 2
Fore
SplineSet
715 0 m 1
 444 0 l 1
 449 29 l 1
 461 31 l 2
 516 40 529 60 529 90 c 0
 529 103 527 119 524 136 c 2
 502 253 l 1
 246 253 l 1
 193 157 l 2
 175 124 167 100 167 81 c 0
 167 52 188 38 230 31 c 2
 242 29 l 1
 237 0 l 1
 -25 0 l 1
 -20 29 l 1
 -7 31 l 1
 55 46 74 63 137 175 c 2
 422 681 l 1
 518 681 l 1
 624 156 l 2
 644 57 654 44 708 31 c 2
 720 29 l 1
 715 0 l 1
497 293 m 1
 434 598 l 1
 269 293 l 1
 497 293 l 1
579 754 m 1x18
 557 728 l 1
 448 769 l 2
 400 786 382 803 390 825 c 0
 398 846 426 864 451 864 c 0
 474 864 493 851 525 815 c 2
 579 754 l 1x18
EndSplineSet
Substitution2: "'c2sc' Capitals to Small Capitals lookup 15 subtable" agrave.sc
Substitution2: "'aalt' Access All Alternates lookup 0 subtable" agrave.sc
Position2: "'cpsp' Capital Spacing lookup 0 subtable" dx=7 dy=0 dh=14 dv=0
EndChar

StartChar: agrave
Encoding: 224 224 169
Width: 620
Flags: MW
HStem: -9 47<233 282> -9 60<501 604> 448 47<311.5 388 281.5 404.5> 685 20G<372 383>
VStem: 71 97<120.5 211.5 117.5 261.5>
LayerCount: 2
Fore
SplineSet
686 69 m 1x68
 656 25 592 -9 540 -9 c 0
 462 -9 444 70 444 96 c 0
 444 99 444 105 445 112 c 1
 384 29 321 -9 243 -9 c 0
 140 -9 71 65 71 176 c 0
 71 347 204 495 359 495 c 0
 417 495 470 473 504 435 c 1
 513 486 l 1
 605 486 l 1
 546 160 l 2
 541 134 539 117 539 105 c 0
 539 75 563 51 592 51 c 0
 616 51 644 66 664 90 c 1
 686 69 l 1x68
496 393 m 1
 460 433 428 448 381 448 c 0
 242 448 168 272 168 151 c 0
 168 84 205 38 261 38 c 0xa8
 315 38 378 78 415 137 c 0
 451 194 470 252 496 393 c 1
492 583 m 1x10
 469 554 l 1
 372 599 l 2
 330 618 316 637 325 662 c 0
 334 685 361 705 383 705 c 0
 404 704 422 691 447 651 c 2
 492 583 l 1x10
EndSplineSet
Substitution2: "'smcp' Lowercase to Small Capitals lookup 3 subtable" agrave.sc
Substitution2: "'aalt' Access All Alternates lookup 0 subtable" agrave.sc
EndChar

StartChar: Ahookabove
Encoding: 7842 7842 170
Width: 700
Flags: MW
HStem: 0 29<-20 -20 -20 237 -25 -20> 253 40<269 497 269 502 246 497> 661 20G<422 518 518 518> 701 21G<450 491 450 450> 886 38<500.5 525.5>
VStem: 403 66<839.5 849.5 839.5 866> 551 65<851 866.5>
LayerCount: 2
Fore
SplineSet
715 0 m 1
 444 0 l 1
 449 29 l 1
 461 31 l 2
 516 40 529 60 529 90 c 0
 529 103 527 119 524 136 c 2
 502 253 l 1
 246 253 l 1
 193 157 l 2
 175 124 167 100 167 81 c 0
 167 52 188 38 230 31 c 2
 242 29 l 1
 237 0 l 1
 -25 0 l 1
 -20 29 l 1
 -7 31 l 1
 55 46 74 63 137 175 c 2
 422 681 l 1
 518 681 l 1
 624 156 l 2
 644 57 654 44 708 31 c 2
 720 29 l 1
 715 0 l 1
497 293 m 1
 434 598 l 1
 269 293 l 1
 497 293 l 1
616 851 m 0x1e
 616 830 606 809 589 791 c 0
 575 776 563 770 540 763 c 0
 508 753 496 738 491 701 c 1
 450 701 l 1
 458 763 462 771 512 799 c 0
 529 810 533 814 541 823 c 1
 541 822 l 1
 548 833 551 845 551 857 c 0
 551 876 537 886 514 886 c 0
 487 886 465 877 465 864 c 2
 466 859 l 2
 469 851 469 851 469 848 c 0
 469 831 452 815 434 815 c 0
 416 815 403 827 403 846 c 0
 403 886 457 924 515 924 c 0
 575 924 616 894 616 851 c 0x1e
EndSplineSet
Substitution2: "'c2sc' Capitals to Small Capitals lookup 15 subtable" ahookabove.sc
Substitution2: "'aalt' Access All Alternates lookup 0 subtable" ahookabove.sc
Position2: "'cpsp' Capital Spacing lookup 0 subtable" dx=7 dy=0 dh=14 dv=0
EndChar

StartChar: ahookabove
Encoding: 7843 7843 171
Width: 620
Flags: MW
HStem: -9 47<233 282> -9 60<501 604> 448 47<311.5 388 281.5 404.5> 519 21G<371 412 371 371> 704 38<421.5 446.5>
VStem: 71 97<120.5 211.5 117.5 261.5> 324 66<657.5 667.5 657.5 684> 472 65<669 684.5>
LayerCount: 2
Fore
SplineSet
686 69 m 1x64
 656 25 592 -9 540 -9 c 0
 462 -9 444 70 444 96 c 0
 444 99 444 105 445 112 c 1
 384 29 321 -9 243 -9 c 0
 140 -9 71 65 71 176 c 0
 71 347 204 495 359 495 c 0
 417 495 470 473 504 435 c 1
 513 486 l 1
 605 486 l 1
 546 160 l 2
 541 134 539 117 539 105 c 0
 539 75 563 51 592 51 c 0
 616 51 644 66 664 90 c 1
 686 69 l 1x64
496 393 m 1
 460 433 428 448 381 448 c 0
 242 448 168 272 168 151 c 0
 168 84 205 38 261 38 c 0xa4
 315 38 378 78 415 137 c 0
 451 194 470 252 496 393 c 1
537 669 m 0x1b
 537 648 527 627 510 609 c 0
 496 594 484 588 461 581 c 0
 429 571 417 556 412 519 c 1
 371 519 l 1
 379 581 383 589 433 617 c 0
 450 628 454 632 462 641 c 1
 462 640 l 1
 469 651 472 663 472 675 c 0
 472 694 458 704 435 704 c 0
 408 704 386 695 386 682 c 2
 387 677 l 2
 390 669 390 669 390 666 c 0
 390 649 373 633 355 633 c 0
 337 633 324 645 324 664 c 0
 324 704 378 742 436 742 c 0
 496 742 537 712 537 669 c 0x1b
EndSplineSet
Substitution2: "'smcp' Lowercase to Small Capitals lookup 3 subtable" ahookabove.sc
Substitution2: "'aalt' Access All Alternates lookup 0 subtable" ahookabove.sc
EndChar

StartChar: Alpha
Encoding: 913 913 172
Width: 700
Flags: MW
HStem: 0 29<-20 -20 -20 237 -25 -20> 253 40<269 497 269 502 246 497> 661 20G<422 518 518 518>
LayerCount: 2
Fore
SplineSet
715 0 m 1
 444 0 l 1
 449 29 l 1
 461 31 l 2
 516 40 529 60 529 90 c 0
 529 103 527 119 524 136 c 2
 502 253 l 1
 246 253 l 1
 193 157 l 2
 175 124 167 100 167 81 c 0
 167 52 188 38 230 31 c 2
 242 29 l 1
 237 0 l 1
 -25 0 l 1
 -20 29 l 1
 -7 31 l 1
 55 46 74 63 137 175 c 2
 422 681 l 1
 518 681 l 1
 624 156 l 2
 644 57 654 44 708 31 c 2
 720 29 l 1
 715 0 l 1
497 293 m 1
 434 598 l 1
 269 293 l 1
 497 293 l 1
EndSplineSet
EndChar

StartChar: alpha
Encoding: 945 945 173
Width: 626
Flags: MW
HStem: -12 53<232.5 276.5> 433 50<374.5 422.5>
VStem: 91 89<119.5 183.5 119.5 259.5> 442 79<63.5 77.5>
LayerCount: 2
Fore
SplineSet
670 74 m 1
 632 33 593 -8 528 -8 c 0
 471 -8 442 18 442 70 c 0
 442 85 445 104 452 129 c 1
 388 35 316 -12 237 -12 c 0
 144 -12 91 64 91 160 c 0
 91 359 221 483 418 483 c 0
 456 483 519 479 607 471 c 1
 525 106 l 2
 522 94 521 84 521 76 c 0
 521 51 531 39 551 39 c 0
 574 39 604 60 640 102 c 1
 670 74 l 1
519 421 m 1
 473 429 436 433 409 433 c 0
 340 433 284 401 240 339 c 0
 200 283 180 219 180 148 c 0
 180 91 206 41 259 41 c 0
 399 41 496 276 519 421 c 1
EndSplineSet
EndChar

StartChar: Amacron
Encoding: 256 256 174
Width: 700
Flags: MW
HStem: 0 29<-20 -20 -20 237 -25 -20> 253 40<269 497 269 502 246 497> 661 20G<422 518 518 518> 768 57<357 625 338 644>
LayerCount: 2
Fore
SplineSet
715 0 m 1
 444 0 l 1
 449 29 l 1
 461 31 l 2
 516 40 529 60 529 90 c 0
 529 103 527 119 524 136 c 2
 502 253 l 1
 246 253 l 1
 193 157 l 2
 175 124 167 100 167 81 c 0
 167 52 188 38 230 31 c 2
 242 29 l 1
 237 0 l 1
 -25 0 l 1
 -20 29 l 1
 -7 31 l 1
 55 46 74 63 137 175 c 2
 422 681 l 1
 518 681 l 1
 624 156 l 2
 644 57 654 44 708 31 c 2
 720 29 l 1
 715 0 l 1
497 293 m 1
 434 598 l 1
 269 293 l 1
 497 293 l 1
644 825 m 1x10
 625 768 l 1
 338 768 l 1
 357 825 l 1
 644 825 l 1x10
EndSplineSet
Substitution2: "'c2sc' Capitals to Small Capitals lookup 15 subtable" amacron.sc
Substitution2: "'aalt' Access All Alternates lookup 0 subtable" amacron.sc
Position2: "'cpsp' Capital Spacing lookup 0 subtable" dx=7 dy=0 dh=14 dv=0
EndChar

StartChar: amacron
Encoding: 257 257 175
Width: 620
Flags: MW
HStem: -9 47<233 282> -9 60<501 604> 448 47<311.5 388 281.5 404.5> 602 57<280 548 261 567>
VStem: 71 97<120.5 211.5 117.5 261.5>
LayerCount: 2
Fore
SplineSet
686 69 m 1x68
 656 25 592 -9 540 -9 c 0
 462 -9 444 70 444 96 c 0
 444 99 444 105 445 112 c 1
 384 29 321 -9 243 -9 c 0
 140 -9 71 65 71 176 c 0
 71 347 204 495 359 495 c 0
 417 495 470 473 504 435 c 1
 513 486 l 1
 605 486 l 1
 546 160 l 2
 541 134 539 117 539 105 c 0
 539 75 563 51 592 51 c 0
 616 51 644 66 664 90 c 1
 686 69 l 1x68
496 393 m 1
 460 433 428 448 381 448 c 0
 242 448 168 272 168 151 c 0
 168 84 205 38 261 38 c 0xa8
 315 38 378 78 415 137 c 0
 451 194 470 252 496 393 c 1
567 659 m 1x10
 548 602 l 1
 261 602 l 1
 280 659 l 1
 567 659 l 1x10
EndSplineSet
Substitution2: "'smcp' Lowercase to Small Capitals lookup 3 subtable" amacron.sc
Substitution2: "'aalt' Access All Alternates lookup 0 subtable" amacron.sc
EndChar

StartChar: anglearc
Encoding: 8738 8738 176
Width: 600
Flags: MW
HStem: -60 21G<377 377> 540 20G<377 377>
VStem: 448 78<232.5 267.5>
LayerCount: 2
Fore
SplineSet
588 74 m 1
 554 4 l 1
 469 45 l 1
 445 5 414 -30 377 -60 c 1
 328 1 l 1
 356 23 379 49 398 78 c 1
 112 215 l 1
 112 285 l 1
 398 422 l 1
 379 451 356 477 328 499 c 1
 377 560 l 1
 414 530 445 495 469 455 c 1
 554 496 l 1
 588 426 l 1
 502 385 l 1
 518 342 526 297 526 250 c 0
 526 203 518 158 502 115 c 1
 588 74 l 1
448 250 m 0
 448 285 442 319 432 351 c 1
 220 250 l 1
 432 149 l 1
 442 181 448 215 448 250 c 0
EndSplineSet
EndChar

StartChar: angleleft
Encoding: 9001 9001 177
Width: 463
Flags: MW
HStem: -121 21G<378 472 378 378> 695 20G<378 472 472 472>
LayerCount: 2
Fore
SplineSet
472 -121 m 1
 378 -121 l 1
 90 297 l 1
 378 715 l 1
 472 715 l 1
 184 297 l 1
 472 -121 l 1
EndSplineSet
EndChar

StartChar: angleright
Encoding: 9002 9002 178
Width: 463
Flags: MW
HStem: -121 21G<90 184 90 90> 695 20G<90 184 184 184>
LayerCount: 2
Fore
SplineSet
472 297 m 1
 184 -121 l 1
 90 -121 l 1
 378 297 l 1
 90 715 l 1
 184 715 l 1
 472 297 l 1
EndSplineSet
EndChar

StartChar: Aogonek
Encoding: 260 260 179
Width: 700
Flags: MW
HStem: -230 57<574 577.5> 0 29<-20 -20 -20 237 -25 -20> 253 40<269 497 269 502 246 497> 661 20G<422 518 518 518>
VStem: 452 82<-138.5 -113.5>
LayerCount: 2
Fore
SplineSet
684 -170 m 1
 649 -208 601 -230 554 -230 c 0
 497 -230 452 -195 452 -144 c 0
 452 -83 507 -36 559 0 c 1
 444 0 l 1
 449 29 l 1
 461 31 l 2
 516 40 529 60 529 90 c 0
 529 103 527 119 524 136 c 2
 502 253 l 1
 246 253 l 1
 193 157 l 2
 175 124 167 100 167 81 c 0
 167 52 188 38 230 31 c 2
 242 29 l 1
 237 0 l 1
 -25 0 l 1
 -20 29 l 1
 -7 31 l 1
 55 46 74 63 137 175 c 2
 422 681 l 1
 518 681 l 1
 624 156 l 2
 644 57 654 44 708 31 c 2
 720 29 l 1
 715 0 l 1
 661 0 l 2
 626 0 590 -17 566 -46 c 0
 547 -69 534 -96 534 -124 c 0
 534 -153 558 -173 590 -173 c 0
 614 -173 639 -165 660 -149 c 1
 684 -170 l 1
497 293 m 1
 434 598 l 1
 269 293 l 1
 497 293 l 1
EndSplineSet
Substitution2: "'c2sc' Capitals to Small Capitals lookup 15 subtable" aogonek.sc
Substitution2: "'aalt' Access All Alternates lookup 0 subtable" aogonek.sc
Position2: "'cpsp' Capital Spacing lookup 0 subtable" dx=7 dy=0 dh=14 dv=0
EndChar

StartChar: aogonek
Encoding: 261 261 180
Width: 620
Flags: MW
HStem: -230 57<533 536.5> -9 47<233 282> -9 60 448 47<311.5 388 281.5 404.5>
VStem: 71 97<120.5 211.5 117.5 261.5> 411 82<-138.5 -115>
LayerCount: 2
Fore
SplineSet
643 -170 m 1xbc
 608 -208 560 -230 513 -230 c 0
 456 -230 411 -195 411 -144 c 0
 411 -86 461 -40 511 -5 c 1
 457 12 444 74 444 96 c 0
 444 99 444 105 445 112 c 1
 384 29 321 -9 243 -9 c 0
 140 -9 71 65 71 176 c 0
 71 347 204 495 359 495 c 0
 417 495 470 473 504 435 c 1
 513 486 l 1
 605 486 l 1
 546 160 l 2
 541 134 539 117 539 105 c 0
 539 75 563 51 592 51 c 0
 616 51 644 66 664 90 c 1
 686 69 l 1
 668 43 638 20 605 6 c 0
 576 -7 546 -21 525 -46 c 0
 505 -69 493 -96 493 -124 c 0
 493 -153 517 -173 549 -173 c 0
 573 -173 598 -165 619 -149 c 1
 643 -170 l 1xbc
496 393 m 1
 460 433 428 448 381 448 c 0
 242 448 168 272 168 151 c 0
 168 84 205 38 261 38 c 0x58
 315 38 378 78 415 137 c 0
 451 194 470 252 496 393 c 1
EndSplineSet
Substitution2: "'smcp' Lowercase to Small Capitals lookup 3 subtable" aogonek.sc
Substitution2: "'aalt' Access All Alternates lookup 0 subtable" aogonek.sc
EndChar

StartChar: approxequal
Encoding: 8776 8776 181
Width: 680
Flags: MW
HStem: 77 77<459.5 485.5 459.5 494> 146 77<222.5 257.5> 271 77<494.5 520.5 494.5 529> 340 77<257.5 292.5>
LayerCount: 2
Fore
SplineSet
643 383 m 1x20
 606 312 555 271 503 271 c 0xa0
 480 271 455 278 410 297 c 2
 356 319 l 2
 313 337 302 340 283 340 c 0
 232 340 209 298 181 250 c 1
 139 297 l 1
 190 386 227 417 283 417 c 0x10
 304 417 330 411 359 398 c 2
 424 371 l 2
 467 353 485 348 504 348 c 0
 537 348 565 372 600 430 c 1
 643 383 l 1x20
608 189 m 1
 571 118 520 77 468 77 c 0x80
 445 77 420 84 375 103 c 2
 321 125 l 2
 278 143 267 146 248 146 c 0
 197 146 174 104 146 56 c 1
 104 103 l 1
 155 192 192 223 248 223 c 0x40
 269 223 295 217 324 204 c 2
 389 177 l 2
 432 159 450 154 469 154 c 0
 502 154 530 178 565 236 c 1
 608 189 l 1
EndSplineSet
EndChar

StartChar: Aring
Encoding: 197 197 182
Width: 700
Flags: MW
HStem: 0 29<-20 -20 -20 237 -25 -20> 253 40<269 497 269 502 246 497> 661 20G<422 518 518 518>
LayerCount: 2
Fore
SplineSet
715 0 m 1
 444 0 l 1
 449 29 l 1
 461 31 l 2
 516 40 529 60 529 90 c 0
 529 103 527 119 524 136 c 2
 502 253 l 1
 246 253 l 1
 193 157 l 2
 175 124 167 100 167 81 c 0
 167 52 188 38 230 31 c 2
 242 29 l 1
 237 0 l 1
 -25 0 l 1
 -20 29 l 1
 -7 31 l 1
 55 46 74 63 137 175 c 2
 422 681 l 1
 518 681 l 1
 624 156 l 2
 644 57 654 44 708 31 c 2
 720 29 l 1
 715 0 l 1
497 293 m 1
 434 598 l 1
 269 293 l 1
 497 293 l 1
571 823 m 0
 571 775 526 731 476 731 c 0
 440 731 415 758 415 797 c 0
 415 847 457 888 507 888 c 0
 544 888 571 861 571 823 c 0
534 818 m 0
 534 840 521 855 502 855 c 0
 475 855 452 831 452 803 c 0
 452 779 464 764 482 764 c 0
 509 764 534 790 534 818 c 0
EndSplineSet
Substitution2: "'c2sc' Capitals to Small Capitals lookup 15 subtable" aring.sc
Substitution2: "'aalt' Access All Alternates lookup 0 subtable" aring.sc
Position2: "'cpsp' Capital Spacing lookup 0 subtable" dx=7 dy=0 dh=14 dv=0
EndChar

StartChar: aring
Encoding: 229 229 183
Width: 620
Flags: MW
HStem: -9 47<233 282> -9 60<501 604> 448 47<311.5 388 281.5 404.5> 552 33<395 417.5 395 423> 676 33<410.5 433.5>
VStem: 71 97<120.5 211.5 117.5 261.5> 337 37<612 638 612 643> 456 37<625 650>
LayerCount: 2
Fore
SplineSet
686 69 m 1x64
 656 25 592 -9 540 -9 c 0
 462 -9 444 70 444 96 c 0
 444 99 444 105 445 112 c 1
 384 29 321 -9 243 -9 c 0
 140 -9 71 65 71 176 c 0
 71 347 204 495 359 495 c 0
 417 495 470 473 504 435 c 1
 513 486 l 1
 605 486 l 1
 546 160 l 2
 541 134 539 117 539 105 c 0
 539 75 563 51 592 51 c 0
 616 51 644 66 664 90 c 1
 686 69 l 1x64
496 393 m 1
 460 433 428 448 381 448 c 0
 242 448 168 272 168 151 c 0
 168 84 205 38 261 38 c 0xa4
 315 38 378 78 415 137 c 0
 451 194 470 252 496 393 c 1
493 644 m 0x1b
 493 596 448 552 398 552 c 0
 362 552 337 579 337 618 c 0
 337 668 379 709 429 709 c 0
 466 709 493 682 493 644 c 0x1b
456 639 m 0
 456 661 443 676 424 676 c 0
 397 676 374 652 374 624 c 0
 374 600 386 585 404 585 c 0
 431 585 456 611 456 639 c 0
EndSplineSet
Substitution2: "'smcp' Lowercase to Small Capitals lookup 3 subtable" aring.sc
Substitution2: "'aalt' Access All Alternates lookup 0 subtable" aring.sc
EndChar

StartChar: Aringacute
Encoding: 506 506 184
Width: 700
Flags: MW
HStem: 0 29<-20 -20 -20 237 -25 -20> 253 40<269 497 269 502 246 497> 661 20G<422 518 518 518> 908 21G<442 442> 1024 20G<585.5 609.5>
LayerCount: 2
Fore
SplineSet
715 0 m 1
 444 0 l 1
 449 29 l 1
 461 31 l 2
 516 40 529 60 529 90 c 0
 529 103 527 119 524 136 c 2
 502 253 l 1
 246 253 l 1
 193 157 l 2
 175 124 167 100 167 81 c 0
 167 52 188 38 230 31 c 2
 242 29 l 1
 237 0 l 1
 -25 0 l 1
 -20 29 l 1
 -7 31 l 1
 55 46 74 63 137 175 c 2
 422 681 l 1
 518 681 l 1
 624 156 l 2
 644 57 654 44 708 31 c 2
 720 29 l 1
 715 0 l 1
497 293 m 1
 434 598 l 1
 269 293 l 1
 497 293 l 1
644 1005 m 0x18
 644 983 620 966 566 949 c 2
 442 908 l 1
 429 934 l 1
 505 995 l 2
 550 1031 574 1044 597 1044 c 0
 622 1044 644 1026 644 1005 c 0x18
571 823 m 0
 571 775 526 731 476 731 c 0
 440 731 415 758 415 797 c 0
 415 847 457 888 507 888 c 0
 544 888 571 861 571 823 c 0
534 818 m 0
 534 840 521 855 502 855 c 0
 475 855 452 831 452 803 c 0
 452 779 464 764 482 764 c 0
 509 764 534 790 534 818 c 0
EndSplineSet
Substitution2: "'c2sc' Capitals to Small Capitals lookup 15 subtable" aringacute.sc
Substitution2: "'aalt' Access All Alternates lookup 0 subtable" aringacute.sc
Position2: "'cpsp' Capital Spacing lookup 0 subtable" dx=7 dy=0 dh=14 dv=0
EndChar

StartChar: aringacute
Encoding: 507 507 185
Width: 620
Flags: MW
HStem: -9 47<233 282> -9 60<501 604> 448 47<311.5 388 281.5 404.5> 726 21G<363 363> 842 20G<506.5 530.5>
VStem: 71 97<120.5 211.5 117.5 261.5>
LayerCount: 2
Fore
SplineSet
686 69 m 1x64
 656 25 592 -9 540 -9 c 0
 462 -9 444 70 444 96 c 0
 444 99 444 105 445 112 c 1
 384 29 321 -9 243 -9 c 0
 140 -9 71 65 71 176 c 0
 71 347 204 495 359 495 c 0
 417 495 470 473 504 435 c 1
 513 486 l 1
 605 486 l 1
 546 160 l 2
 541 134 539 117 539 105 c 0
 539 75 563 51 592 51 c 0
 616 51 644 66 664 90 c 1
 686 69 l 1x64
496 393 m 1
 460 433 428 448 381 448 c 0
 242 448 168 272 168 151 c 0
 168 84 205 38 261 38 c 0xa4
 315 38 378 78 415 137 c 0
 451 194 470 252 496 393 c 1
565 823 m 0x18
 565 801 541 784 487 767 c 2
 363 726 l 1
 350 752 l 1
 426 813 l 2
 471 849 495 862 518 862 c 0
 543 862 565 844 565 823 c 0x18
492 641 m 0
 492 593 447 549 397 549 c 0
 361 549 336 576 336 615 c 0
 336 665 378 706 428 706 c 0
 465 706 492 679 492 641 c 0
455 636 m 0
 455 658 442 673 423 673 c 0
 396 673 373 649 373 621 c 0
 373 597 385 582 403 582 c 0
 430 582 455 608 455 636 c 0
EndSplineSet
Substitution2: "'smcp' Lowercase to Small Capitals lookup 3 subtable" aringacute.sc
Substitution2: "'aalt' Access All Alternates lookup 0 subtable" aringacute.sc
EndChar

StartChar: uni2193
Encoding: 8595 8595 186
Width: 659
Flags: MW
HStem: -182 21G<380 380> 650 20G<341 419 419 419>
VStem: 341 78<-50 670 -50 670>
LayerCount: 2
Fore
SplineSet
630 20 m 1
 380 -182 l 1
 130 20 l 1
 180 80 l 1
 341 -50 l 1
 341 670 l 1
 419 670 l 1
 419 -50 l 1
 580 80 l 1
 630 20 l 1
EndSplineSet
EndChar

StartChar: uni2190
Encoding: 8592 8592 187
Width: 1000
Flags: MW
HStem: 0 21G<320 320> 211 78<250 970 250 970> 480 20G<320 320>
LayerCount: 2
Fore
SplineSet
970 211 m 1
 250 211 l 1
 380 50 l 1
 320 0 l 1
 118 250 l 1
 320 500 l 1
 380 450 l 1
 250 289 l 1
 970 289 l 1
 970 211 l 1
EndSplineSet
EndChar

StartChar: uni2192
Encoding: 8594 8594 188
Width: 1000
Flags: MW
HStem: 0 21G<780 780> 211 78<130 850 130 850> 480 20G<780 780>
LayerCount: 2
Fore
SplineSet
982 250 m 1
 780 0 l 1
 720 50 l 1
 850 211 l 1
 130 211 l 1
 130 289 l 1
 850 289 l 1
 720 450 l 1
 780 500 l 1
 982 250 l 1
EndSplineSet
EndChar

StartChar: uni2191
Encoding: 8593 8593 189
Width: 659
Flags: MW
HStem: -170 21G<341 419 341 341> 662 20G<380 380>
VStem: 341 78<-170 550 -170 550>
LayerCount: 2
Fore
SplineSet
630 480 m 1
 580 420 l 1
 419 550 l 1
 419 -170 l 1
 341 -170 l 1
 341 550 l 1
 180 420 l 1
 130 480 l 1
 380 682 l 1
 630 480 l 1
EndSplineSet
EndChar

StartChar: asterisk.math
Encoding: 8727 8727 190
Width: 489
Flags: MW
HStem: 26 21G<234 267> 454 20G<313.5 346.5>
LayerCount: 2
Fore
SplineSet
510 340 m 0
 510 305 486 286 434 276 c 2
 343 260 l 1
 336 236 l 1
 422 222 l 2
 462 215 480 202 480 178 c 0
 480 144 444 107 412 107 c 0
 395 107 380 117 364 143 c 2
 317 210 l 1
 293 201 l 1
 311 117 l 1
 313 87 l 2
 313 51 286 26 248 26 c 0
 220 26 202 40 202 64 c 0
 202 77 208 94 220 117 c 2
 264 201 l 1
 247 215 l 1
 178 144 l 2
 152 119 133 108 113 108 c 0
 91 108 71 134 71 161 c 0
 71 195 94 213 146 224 c 2
 238 240 l 1
 245 264 l 1
 158 278 l 2
 119 285 101 298 101 322 c 0
 101 356 137 393 169 393 c 0
 186 393 199 382 217 357 c 2
 264 290 l 1
 288 299 l 1
 270 383 l 1
 268 413 l 2
 268 448 295 474 332 474 c 0
 361 474 379 459 379 436 c 0
 379 423 374 408 361 383 c 2
 317 299 l 1
 334 285 l 1
 403 356 l 2
 428 381 446 392 467 392 c 0
 490 392 510 368 510 340 c 0
EndSplineSet
EndChar

StartChar: Atilde
Encoding: 195 195 191
Width: 700
Flags: MW
HStem: 0 29<-20 -20 -20 237 -25 -20> 253 40<269 497 269 502 246 497> 661 20G<422 518 518 518> 755 60<550 556> 776 60<419.5 430.5>
LayerCount: 2
Fore
SplineSet
715 0 m 1xe0
 444 0 l 1
 449 29 l 1
 461 31 l 2
 516 40 529 60 529 90 c 0
 529 103 527 119 524 136 c 2
 502 253 l 1
 246 253 l 1
 193 157 l 2
 175 124 167 100 167 81 c 0
 167 52 188 38 230 31 c 2
 242 29 l 1
 237 0 l 1
 -25 0 l 1
 -20 29 l 1
 -7 31 l 1
 55 46 74 63 137 175 c 2
 422 681 l 1
 518 681 l 1
 624 156 l 2
 644 57 654 44 708 31 c 2
 720 29 l 1
 715 0 l 1xe0
497 293 m 1
 434 598 l 1
 269 293 l 1
 497 293 l 1
645 838 m 1x10
 620 783 581 755 531 755 c 0x10
 500 755 448 776 413 776 c 0
 394 776 378 770 368 760 c 1
 337 760 l 1
 358 808 397 836 442 836 c 0x08
 478 836 538 815 562 815 c 0
 581 815 596 822 616 838 c 1
 645 838 l 1x10
EndSplineSet
Substitution2: "'c2sc' Capitals to Small Capitals lookup 15 subtable" atilde.sc
Substitution2: "'aalt' Access All Alternates lookup 0 subtable" atilde.sc
Position2: "'cpsp' Capital Spacing lookup 0 subtable" dx=7 dy=0 dh=14 dv=0
EndChar

StartChar: atilde
Encoding: 227 227 192
Width: 620
Flags: MW
HStem: -9 47<233 282> -9 60<501 604> 448 47<311.5 388 281.5 404.5> 589 60<474 480> 610 60<343.5 354.5>
VStem: 71 97<120.5 211.5 117.5 261.5>
LayerCount: 2
Fore
SplineSet
686 69 m 1x64
 656 25 592 -9 540 -9 c 0
 462 -9 444 70 444 96 c 0
 444 99 444 105 445 112 c 1
 384 29 321 -9 243 -9 c 0
 140 -9 71 65 71 176 c 0
 71 347 204 495 359 495 c 0
 417 495 470 473 504 435 c 1
 513 486 l 1
 605 486 l 1
 546 160 l 2
 541 134 539 117 539 105 c 0
 539 75 563 51 592 51 c 0
 616 51 644 66 664 90 c 1
 686 69 l 1x64
496 393 m 1
 460 433 428 448 381 448 c 0
 242 448 168 272 168 151 c 0
 168 84 205 38 261 38 c 0xa4
 315 38 378 78 415 137 c 0
 451 194 470 252 496 393 c 1
569 672 m 1x10
 544 617 505 589 455 589 c 0x10
 424 589 372 610 337 610 c 0
 318 610 302 604 292 594 c 1
 261 594 l 1
 282 642 321 670 366 670 c 0x08
 402 670 462 649 486 649 c 0
 505 649 520 656 540 672 c 1
 569 672 l 1x10
EndSplineSet
Substitution2: "'smcp' Lowercase to Small Capitals lookup 3 subtable" atilde.sc
Substitution2: "'aalt' Access All Alternates lookup 0 subtable" atilde.sc
EndChar

StartChar: baht
Encoding: 3647 3647 193
Width: 720
Flags: MW
HStem: -83 21G<344 385 344 344> 0 29<26 26 26 359 21 26> 0 40<300 338 300 359> 346 37<277 401 271 405 401 405 405 422> 642 39<400.5 450 450 476> 652 29<139 483> 744 20G<498 539 539 539>
VStem: 610 110<169.5 271.5> 644 102<525 563.5>
LayerCount: 2
Fore
SplineSet
720 227 m 0x0a80
 720 41 550 4 400 0 c 1
 385 -83 l 1
 344 -83 l 1
 359 0 l 1
 21 0 l 1
 26 29 l 1
 43 31 l 2
 98 38 118 59 131 128 c 2
 208 553 l 2
 211 565 213 577 213 587 c 0
 213 621 196 645 155 650 c 2
 139 652 l 1xc5
 145 681 l 1
 483 681 l 1
 498 764 l 1
 539 764 l 1
 524 681 l 1
 649 679 746 649 746 542 c 0
 746 508 732 402 570 370 c 1
 598 365 720 343 720 227 c 0x0a80
644 533 m 0
 644 594 603 628 516 639 c 1
 470 386 l 1
 618 404 644 480 644 533 c 0
476 642 m 1
 450 642 l 2
 351 642 322 627 311 569 c 2
 277 383 l 1
 405 383 l 1
 429 383 l 1
 476 642 l 1
610 235 m 0
 610 308 574 337 463 344 c 1
 408 44 l 1
 519 56 610 104 610 235 c 0
367 41 m 1
 422 346 l 1
 401 346 l 1
 271 346 l 1
 230 121 l 2
 228 112 227 104 227 97 c 0
 227 53 262 40 338 40 c 2
 367 41 l 1
EndSplineSet
EndChar

StartChar: Beta
Encoding: 914 914 194
Width: 720
Flags: MW
HStem: 0 29<26 26 26 375 21 26> 0 40<300 375> 346 37<277 401 271 405> 642 39<400.5 508 508 516.5> 652 29<139 508>
VStem: 610 110<156 277.5> 644 102<525 570.5>
LayerCount: 2
Fore
SplineSet
720 227 m 0x12
 720 31 531 0 375 0 c 2
 21 0 l 1
 26 29 l 1
 43 31 l 2
 98 38 118 59 131 128 c 2
 208 553 l 2
 211 565 213 577 213 587 c 0
 213 621 196 645 155 650 c 2
 139 652 l 1xac
 145 681 l 1
 508 681 l 2
 641 681 746 653 746 542 c 0
 746 508 732 402 570 370 c 1
 598 365 720 343 720 227 c 0x12
644 533 m 0
 644 608 583 642 450 642 c 0x72
 351 642 322 627 311 569 c 2
 277 383 l 1
 405 383 l 2
 611 383 644 473 644 533 c 0
610 235 m 0
 610 320 561 346 401 346 c 2
 271 346 l 1
 230 121 l 2
 228 112 227 104 227 97 c 0
 227 53 262 40 338 40 c 0
 478 40 610 77 610 235 c 0
EndSplineSet
EndChar

StartChar: beta
Encoding: 946 946 195
Width: 590
Flags: MW
HStem: -15 36<241.5 316.5 241.5 348.5> 346 48<346 395> 477 49<424 439 419 513.5> 635 52<427 484.5>
VStem: 67 93<140 246.5 140 289.5> 467 89<237 274> 554 75<563.5 595>
LayerCount: 2
Fore
SplineSet
629 575 m 0xfc
 629 517 565 477 462 477 c 0
 386 477 317 487 255 508 c 1
 202 443 160 303 160 190 c 0
 160 90 204 21 279 21 c 0
 354 21 423 81 460 191 c 0
 464 203 467 234 467 240 c 0
 467 308 432 346 358 346 c 0
 316 346 271 337 210 304 c 1
 189 326 l 1
 255 376 314 394 378 394 c 0
 477 394 556 336 556 242 c 0
 556 102 421 -15 276 -15 c 0
 133 -15 67 63 67 202 c 0
 67 377 223 687 471 687 c 0
 558 687 629 636 629 575 c 0xfc
554 581 m 0
 554 609 513 635 456 635 c 0
 398 635 341 609 278 549 c 1
 347 532 399 526 439 526 c 0
 516 528 554 546 554 581 c 0
EndSplineSet
EndChar

StartChar: blanksymbol
Encoding: 9250 9250 196
Width: 600
Flags: MW
HStem: -9 47<314.5 381.5 279.5 418> 448 47<412 463> 653 29<117 122> 695 20G<269 310 310 310>
VStem: 524 97<273.5 365 225 371>
LayerCount: 2
Fore
SplineSet
621 309 m 0
 621 141 491 -9 345 -9 c 0
 284 -9 225 17 191 59 c 1
 152 0 l 1
 88 0 l 1
 180 504 l 1
 89 478 l 1
 89 520 l 1
 188 548 l 1
 193 577 l 2
 194 586 195 593 195 600 c 0
 195 632 181 644 132 651 c 2
 117 653 l 1
 122 682 l 1
 191 689 224 697 269 715 c 1
 310 715 l 1
 285 576 l 1
 407 611 l 1
 407 569 l 1
 277 532 l 1
 246 361 l 1
 292 444 371 495 453 495 c 0
 554 495 621 421 621 309 c 0
524 338 m 0
 524 404 489 448 437 448 c 0
 359 448 288 386 245 279 c 0
 227 235 216 192 198 96 c 1
 201 89 243 38 316 38 c 0
 447 38 524 209 524 338 c 0
EndSplineSet
EndChar

StartChar: breve
Encoding: 728 728 197
Width: 440
Flags: MW
HStem: 576 67<296.5 357.5 296.5 363> 664 20G<199 199>
LayerCount: 2
Fore
SplineSet
484 673 m 1
 447 604 401 576 325 576 c 0
 255 576 204 608 175 672 c 1
 199 684 l 1
 225 656 265 643 328 643 c 0
 387 643 431 656 462 683 c 1
 484 673 l 1
EndSplineSet
EndChar

StartChar: uni032E
Encoding: 814 814 198
Width: 0
Flags: MW
HStem: -198 60<-377.5 -310.5 -377.5 -304> -121 20G<-485 -485>
LayerCount: 2
Fore
SplineSet
-171 -111 m 1
 -212 -173 -262 -198 -346 -198 c 0
 -423 -198 -479 -170 -511 -112 c 1
 -485 -101 l 1
 -456 -126 -412 -138 -343 -138 c 0
 -278 -138 -229 -126 -195 -102 c 1
 -171 -111 l 1
EndSplineSet
EndChar

StartChar: uni032F
Encoding: 815 815 199
Width: 0
Flags: MW
HStem: -198 21G<-211 -211>
LayerCount: 2
Fore
SplineSet
-185 -187 m 1
 -211 -198 l 1
 -240 -173 -284 -161 -353 -161 c 0
 -418 -161 -467 -173 -501 -197 c 1
 -525 -188 l 1
 -484 -126 -434 -101 -350 -101 c 0
 -273 -101 -217 -129 -185 -187 c 1
EndSplineSet
EndChar

StartChar: uni0306
Encoding: 774 774 200
Width: 0
Flags: MW
HStem: 576 67<-233.5 -172.5 -233.5 -167> 664 20G<-331 -331>
LayerCount: 2
Fore
SplineSet
-46 673 m 1
 -83 604 -129 576 -205 576 c 0
 -275 576 -326 608 -355 672 c 1
 -331 684 l 1
 -305 656 -265 643 -202 643 c 0
 -143 643 -99 656 -68 683 c 1
 -46 673 l 1
EndSplineSet
EndChar

StartChar: uni0311
Encoding: 785 785 201
Width: 0
Flags: MW
HStem: 576 21G<-86 -86> 617 67<-244.5 -183.5>
LayerCount: 2
Fore
SplineSet
-62 588 m 1
 -86 576 l 1
 -112 604 -152 617 -215 617 c 0
 -274 617 -318 604 -349 577 c 1
 -371 587 l 1
 -334 656 -288 684 -212 684 c 0
 -142 684 -91 652 -62 588 c 1
EndSplineSet
EndChar

StartChar: brokenbar
Encoding: 166 166 202
Width: 600
Flags: MW
HStem: -121 21G<311 389 311 311> 695 20G<311 389 389 389>
VStem: 311 78<-121 213 381 715>
LayerCount: 2
Fore
SplineSet
389 381 m 1
 311 381 l 1
 311 715 l 1
 389 715 l 1
 389 381 l 1
389 -121 m 1
 311 -121 l 1
 311 213 l 1
 389 213 l 1
 389 -121 l 1
EndSplineSet
EndChar

StartChar: bullet
Encoding: 8226 8226 203
Width: 460
Flags: MW
HStem: 213 344<224.5 318.5>
VStem: 100 344<338 432.5>
LayerCount: 2
Fore
SplineSet
444 386 m 0
 444 289 367 213 270 213 c 0
 177 213 100 291 100 385 c 0
 100 480 177 557 272 557 c 0
 367 557 444 480 444 386 c 0
EndSplineSet
EndChar

StartChar: Cacute
Encoding: 262 262 204
Width: 720
Flags: MW
HStem: -13 47<344 457> 647 47<413 529 382.5 550> 728 21G<431 431> 844 20G<574.5 598.5>
VStem: 88 107<188.5 251 251 253 184.5 389>
LayerCount: 2
Fore
SplineSet
731 183 m 1
 664 57 528 -13 386 -13 c 0
 207 -13 88 102 88 275 c 0
 88 503 272 694 493 694 c 0
 565 694 614 676 673 630 c 1
 703 681 l 1
 746 681 l 1
 746 444 l 1
 708 444 l 1
 660 589 600 647 500 647 c 0
 326 647 195 454 195 253 c 2
 195 251 l 2
 195 118 279 34 409 34 c 0
 523 34 624 95 690 203 c 1
 731 183 l 1
633 825 m 0x30
 633 803 609 786 555 769 c 2
 431 728 l 1
 418 754 l 1
 494 815 l 2
 539 851 563 864 586 864 c 0
 611 864 633 846 633 825 c 0x30
EndSplineSet
Substitution2: "'c2sc' Capitals to Small Capitals lookup 15 subtable" cacute.sc
Substitution2: "'aalt' Access All Alternates lookup 0 subtable" cacute.sc
Position2: "'cpsp' Capital Spacing lookup 0 subtable" dx=7 dy=0 dh=14 dv=0
EndChar

StartChar: cacute
Encoding: 263 263 205
Width: 480
Flags: MW
HStem: -9 47<257 306.5> 326 169<288 481> 458 37<298 376> 554 21G<310 310> 685 20G<451 462>
VStem: 65 102<135.5 232.5 135.5 270.5> 429 93<383.5 410.5>
LayerCount: 2
Fore
SplineSet
494 94 m 1xa6
 441 33 347 -9 266 -9 c 0
 147 -9 65 72 65 190 c 0
 65 351 208 495 368 495 c 0
 455 495 522 448 522 387 c 0
 522 352 498 326 464 326 c 0xc6
 442 326 426 340 426 360 c 0
 426 366 429 376 429 391 c 0
 429 430 398 458 354 458 c 0
 242 458 167 289 167 176 c 0
 167 95 219 38 295 38 c 0
 349 38 406 64 472 119 c 1
 494 94 l 1xa6
493 662 m 0x18
 493 637 472 618 423 599 c 2
 310 554 l 1
 298 583 l 1
 367 651 l 2
 407 691 430 704 451 705 c 0
 473 705 493 685 493 662 c 0x18
EndSplineSet
Substitution2: "'smcp' Lowercase to Small Capitals lookup 3 subtable" cacute.sc
Substitution2: "'aalt' Access All Alternates lookup 0 subtable" cacute.sc
EndChar

StartChar: caron
Encoding: 711 711 206
Width: 440
Flags: MW
HStem: 568 21G<323 323> 673 20G<467 467>
LayerCount: 2
Fore
SplineSet
489 668 m 1
 323 568 l 1
 186 667 l 1
 211 692 l 1
 334 647 l 1
 467 693 l 1
 489 668 l 1
EndSplineSet
EndChar

StartChar: uni030C
Encoding: 780 780 207
Width: 0
Flags: MW
HStem: 568 21G<-207 -207> 673 20G<-63 -63>
LayerCount: 2
Fore
SplineSet
-41 668 m 1
 -207 568 l 1
 -344 667 l 1
 -319 692 l 1
 -196 647 l 1
 -63 693 l 1
 -41 668 l 1
EndSplineSet
EndChar

StartChar: Ccaron
Encoding: 268 268 208
Width: 720
Flags: MW
HStem: -13 47<344 457> 647 47<413 529 382.5 550> 740 21G<501 501> 832 20G<660 660>
VStem: 88 107<188.5 251 251 253 184.5 389>
LayerCount: 2
Fore
SplineSet
731 183 m 1
 664 57 528 -13 386 -13 c 0
 207 -13 88 102 88 275 c 0
 88 503 272 694 493 694 c 0
 565 694 614 676 673 630 c 1
 703 681 l 1
 746 681 l 1
 746 444 l 1
 708 444 l 1
 660 589 600 647 500 647 c 0
 326 647 195 454 195 253 c 2
 195 251 l 2
 195 118 279 34 409 34 c 0
 523 34 624 95 690 203 c 1
 731 183 l 1
684 829 m 1x30
 501 740 l 1
 351 829 l 1
 378 851 l 1
 514 811 l 1
 660 852 l 1
 684 829 l 1x30
EndSplineSet
Substitution2: "'c2sc' Capitals to Small Capitals lookup 15 subtable" ccaron.sc
Substitution2: "'aalt' Access All Alternates lookup 0 subtable" ccaron.sc
Position2: "'cpsp' Capital Spacing lookup 0 subtable" dx=7 dy=0 dh=14 dv=0
EndChar

StartChar: ccaron
Encoding: 269 269 209
Width: 480
Flags: MW
HStem: -9 47<257 306.5> 326 169<288 481> 458 37<298 376> 568 21G<371 371> 673 20G<515 515>
VStem: 65 102<135.5 232.5 135.5 270.5> 429 93<383.5 410.5>
LayerCount: 2
Fore
SplineSet
494 94 m 1xa6
 441 33 347 -9 266 -9 c 0
 147 -9 65 72 65 190 c 0
 65 351 208 495 368 495 c 0
 455 495 522 448 522 387 c 0
 522 352 498 326 464 326 c 0xc6
 442 326 426 340 426 360 c 0
 426 366 429 376 429 391 c 0
 429 430 398 458 354 458 c 0
 242 458 167 289 167 176 c 0
 167 95 219 38 295 38 c 0
 349 38 406 64 472 119 c 1
 494 94 l 1xa6
537 668 m 1x18
 371 568 l 1
 234 667 l 1
 259 692 l 1
 382 647 l 1
 515 693 l 1
 537 668 l 1x18
EndSplineSet
Substitution2: "'smcp' Lowercase to Small Capitals lookup 3 subtable" ccaron.sc
Substitution2: "'aalt' Access All Alternates lookup 0 subtable" ccaron.sc
EndChar

StartChar: Ccedilla
Encoding: 199 199 210
Width: 720
Flags: MW
HStem: -202 32<358 396 358 409> -68 25<393 398.5> -13 47<403 403> 647 47<413 529 382.5 550>
VStem: 88 107<192 251 251 253 184.5 389> 438 62<-129.5 -105.5>
LayerCount: 2
Fore
SplineSet
731 183 m 1
 667 62 539 -7 403 -13 c 1
 393 -43 l 1
 412 -43 l 2
 459 -43 500 -76 500 -111 c 0
 500 -156 440 -202 378 -202 c 0
 330 -202 295 -182 295 -154 c 0
 295 -139 306 -126 320 -126 c 0
 356 -126 335 -170 381 -170 c 0
 411 -170 438 -142 438 -117 c 0
 438 -94 415 -68 382 -68 c 0
 369 -68 356 -70 341 -74 c 1
 365 -12 l 1
 198 -4 88 109 88 275 c 0
 88 503 272 694 493 694 c 0
 565 694 614 676 673 630 c 1
 703 681 l 1
 746 681 l 1
 746 444 l 1
 708 444 l 1
 660 589 600 647 500 647 c 0
 326 647 195 454 195 253 c 2
 195 251 l 2
 195 118 279 34 409 34 c 0
 523 34 624 95 690 203 c 1
 731 183 l 1
EndSplineSet
Substitution2: "'c2sc' Capitals to Small Capitals lookup 15 subtable" ccedilla.sc
Substitution2: "'aalt' Access All Alternates lookup 0 subtable" ccedilla.sc
Position2: "'cpsp' Capital Spacing lookup 0 subtable" dx=7 dy=0 dh=14 dv=0
EndChar

StartChar: ccedilla
Encoding: 231 231 211
Width: 480
Flags: MW
HStem: -202 32<238 276 238 289> -68 25<273 278.5> -9 47 326 169<288 481> 458 37<298 376>
VStem: 65 102<135.5 232.5 135.5 270.5> 318 62<-129.5 -105.5> 429 93<383.5 410.5>
LayerCount: 2
Fore
SplineSet
494 94 m 1x2d
 445 37 361 -3 284 -8 c 1
 273 -43 l 1
 292 -43 l 2
 339 -43 380 -76 380 -111 c 0
 380 -156 320 -202 258 -202 c 0
 210 -202 175 -182 175 -154 c 0
 175 -139 186 -126 200 -126 c 0
 236 -126 215 -170 261 -170 c 0
 291 -170 318 -142 318 -117 c 0
 318 -94 295 -68 262 -68 c 0
 249 -68 236 -70 221 -74 c 1
 246 -8 l 1
 138 0 65 79 65 190 c 0
 65 351 208 495 368 495 c 0
 455 495 522 448 522 387 c 0
 522 352 498 326 464 326 c 0xd7
 442 326 426 340 426 360 c 0
 426 366 429 376 429 391 c 0
 429 430 398 458 354 458 c 0
 242 458 167 289 167 176 c 0
 167 95 219 38 295 38 c 0
 349 38 406 64 472 119 c 1
 494 94 l 1x2d
EndSplineSet
Substitution2: "'smcp' Lowercase to Small Capitals lookup 3 subtable" ccedilla.sc
Substitution2: "'aalt' Access All Alternates lookup 0 subtable" ccedilla.sc
EndChar

StartChar: Ccircumflex
Encoding: 264 264 212
Width: 720
Flags: MW
HStem: -13 47<344 457> 647 47<413 529 382.5 550> 740 21G<363 363> 832 20G<522 522>
VStem: 88 107<188.5 251 251 253 184.5 389>
LayerCount: 2
Fore
SplineSet
731 183 m 1
 664 57 528 -13 386 -13 c 0
 207 -13 88 102 88 275 c 0
 88 503 272 694 493 694 c 0
 565 694 614 676 673 630 c 1
 703 681 l 1
 746 681 l 1
 746 444 l 1
 708 444 l 1
 660 589 600 647 500 647 c 0
 326 647 195 454 195 253 c 2
 195 251 l 2
 195 118 279 34 409 34 c 0
 523 34 624 95 690 203 c 1
 731 183 l 1
672 763 m 1x30
 645 741 l 1
 509 781 l 1
 363 740 l 1
 339 763 l 1
 522 852 l 1
 672 763 l 1x30
EndSplineSet
Substitution2: "'c2sc' Capitals to Small Capitals lookup 15 subtable" ccircumflex.sc
Substitution2: "'aalt' Access All Alternates lookup 0 subtable" ccircumflex.sc
Position2: "'cpsp' Capital Spacing lookup 0 subtable" dx=7 dy=0 dh=14 dv=0
EndChar

StartChar: ccircumflex
Encoding: 265 265 213
Width: 480
Flags: MW
HStem: -9 47<257 306.5> 326 169<288 481> 458 37<298 376> 568 21G<246 246> 673 20G<390 390>
VStem: 65 102<135.5 232.5 135.5 270.5> 429 93<383.5 410.5>
LayerCount: 2
Fore
SplineSet
494 94 m 1xa6
 441 33 347 -9 266 -9 c 0
 147 -9 65 72 65 190 c 0
 65 351 208 495 368 495 c 0
 455 495 522 448 522 387 c 0
 522 352 498 326 464 326 c 0xc6
 442 326 426 340 426 360 c 0
 426 366 429 376 429 391 c 0
 429 430 398 458 354 458 c 0
 242 458 167 289 167 176 c 0
 167 95 219 38 295 38 c 0
 349 38 406 64 472 119 c 1
 494 94 l 1xa6
527 594 m 1x18
 502 569 l 1
 379 614 l 1
 246 568 l 1
 224 594 l 1
 390 693 l 1
 527 594 l 1x18
EndSplineSet
Substitution2: "'smcp' Lowercase to Small Capitals lookup 3 subtable" ccircumflex.sc
Substitution2: "'aalt' Access All Alternates lookup 0 subtable" ccircumflex.sc
EndChar

StartChar: Cdotaccent
Encoding: 266 266 214
Width: 720
Flags: MW
HStem: -13 47<344 457> 647 47<413 529 382.5 550> 736 121<504 517.5>
VStem: 88 107<188.5 251 251 253 184.5 389> 451 121<788 806.5>
LayerCount: 2
Fore
SplineSet
731 183 m 1
 664 57 528 -13 386 -13 c 0
 207 -13 88 102 88 275 c 0
 88 503 272 694 493 694 c 0
 565 694 614 676 673 630 c 1
 703 681 l 1
 746 681 l 1
 746 444 l 1
 708 444 l 1
 660 589 600 647 500 647 c 0
 326 647 195 454 195 253 c 2
 195 251 l 2
 195 118 279 34 409 34 c 0
 523 34 624 95 690 203 c 1
 731 183 l 1
572 807 m 0x28
 572 769 537 736 498 736 c 0
 470 736 451 757 451 788 c 0
 451 825 485 857 523 857 c 0
 551 857 572 836 572 807 c 0x28
EndSplineSet
Substitution2: "'c2sc' Capitals to Small Capitals lookup 15 subtable" cdotaccent.sc
Substitution2: "'aalt' Access All Alternates lookup 0 subtable" cdotaccent.sc
Position2: "'cpsp' Capital Spacing lookup 0 subtable" dx=7 dy=0 dh=14 dv=0
EndChar

StartChar: cdotaccent
Encoding: 267 267 215
Width: 480
Flags: MW
HStem: -9 47<257 306.5> 326 169<288 481> 458 37<298 376> 570 121<375 388.5>
VStem: 65 102<135.5 232.5 135.5 270.5> 322 121<622 640.5> 429 93<383.5 410.5>
LayerCount: 2
Fore
SplineSet
494 94 m 1xaa
 441 33 347 -9 266 -9 c 0
 147 -9 65 72 65 190 c 0
 65 351 208 495 368 495 c 0
 455 495 522 448 522 387 c 0
 522 352 498 326 464 326 c 0xca
 442 326 426 340 426 360 c 0
 426 366 429 376 429 391 c 0
 429 430 398 458 354 458 c 0
 242 458 167 289 167 176 c 0
 167 95 219 38 295 38 c 0
 349 38 406 64 472 119 c 1
 494 94 l 1xaa
443 641 m 0x14
 443 603 408 570 369 570 c 0
 341 570 322 591 322 622 c 0
 322 659 356 691 394 691 c 0
 422 691 443 670 443 641 c 0x14
EndSplineSet
Substitution2: "'smcp' Lowercase to Small Capitals lookup 3 subtable" cdotaccent.sc
Substitution2: "'aalt' Access All Alternates lookup 0 subtable" cdotaccent.sc
EndChar

StartChar: cedilla
Encoding: 184 184 216
Width: 320
Flags: MW
HStem: -202 32<108 146 108 159> -68 25<143 148.5>
VStem: 188 62<-129.5 -105.5>
LayerCount: 2
Fore
SplineSet
250 -111 m 0
 250 -156 190 -202 128 -202 c 0
 80 -202 45 -182 45 -154 c 0
 45 -139 56 -126 70 -126 c 0
 106 -126 85 -170 131 -170 c 0
 161 -170 188 -142 188 -117 c 0
 188 -94 165 -68 132 -68 c 0
 119 -68 106 -70 91 -74 c 1
 120 2 l 1
 157 2 l 1
 143 -43 l 1
 162 -43 l 2
 209 -43 250 -76 250 -111 c 0
EndSplineSet
EndChar

StartChar: cent
Encoding: 162 162 217
Width: 620
Flags: MW
HStem: -29 21G<293 335 293 293> 695 20G<428 470 470 470>
VStem: 148 97<256 338.5 256 345>
LayerCount: 2
Fore
SplineSet
560 225 m 1
 510 156 447 121 361 113 c 1
 335 -29 l 1
 293 -29 l 1
 319 113 l 1
 256 125 148 151 148 302 c 0
 148 388 198 576 407 596 c 1
 428 715 l 1
 470 715 l 1
 449 596 l 1
 537 587 596 539 596 478 c 0
 596 439 565 406 529 406 c 0
 504 406 485 425 485 450 c 0
 485 471 499 478 499 496 c 0
 499 525 478 545 441 552 c 1
 369 158 l 1
 372 158 l 2
 400 158 452 160 526 245 c 1
 560 225 l 1
329 166 m 1
 399 552 l 1
 291 544 245 388 245 289 c 0
 245 223 272 183 329 166 c 1
EndSplineSet
Substitution2: "'onum' Oldstyle Figures lookup 5 subtable" cent.oldstyle
Substitution2: "'aalt' Access All Alternates lookup 0 subtable" cent.oldstyle
EndChar

StartChar: centigrade
Encoding: 8451 8451 218
Width: 1112
Flags: MW
HStem: -13 47<679 792> 380 57<244.5 296 244.5 312> 629 57<245 297> 647 47<748 864 717.5 885>
VStem: 120 56<506.5 559.5 506.5 576.5> 363 57<506 559.5> 423 107<188.5 251 251 253 184.5 389>
LayerCount: 2
Fore
SplineSet
420 533 m 0xee
 420 447 354 380 270 380 c 0
 186 380 120 448 120 534 c 0
 120 619 188 686 273 686 c 0
 356 686 420 619 420 533 c 0xee
1066 183 m 1
 999 57 863 -13 721 -13 c 0
 542 -13 423 102 423 275 c 0
 423 503 607 694 828 694 c 0
 900 694 949 676 1008 630 c 1
 1038 681 l 1
 1081 681 l 1
 1081 444 l 1
 1043 444 l 1
 995 589 935 647 835 647 c 0xda
 661 647 530 454 530 253 c 2
 530 251 l 2
 530 118 614 34 744 34 c 0
 858 34 959 95 1025 203 c 1
 1066 183 l 1
363 533 m 0
 363 586 322 629 272 629 c 0x24
 218 629 176 586 176 533 c 0
 176 480 219 437 270 437 c 0
 322 437 363 479 363 533 c 0
EndSplineSet
EndChar

StartChar: Chi
Encoding: 935 935 219
Width: 700
Flags: MW
HStem: 0 29<-20 -20 -20 239 -25 -20> 652 29<123 417 411 411 810 810>
LayerCount: 2
Fore
SplineSet
728 29 m 1
 722 0 l 1
 412 0 l 1
 417 29 l 1
 433 31 l 2
 483 37 505 54 505 78 c 0
 505 91 498 106 488 124 c 2
 381 309 l 1
 207 126 l 2
 190 108 181 89 181 72 c 0
 181 51 196 34 227 31 c 2
 244 29 l 1
 239 0 l 1
 -25 0 l 1
 -20 29 l 1
 54 53 107 88 183 167 c 2
 356 349 l 1
 227 576 l 2
 205 620 178 641 133 650 c 2
 123 652 l 1
 128 681 l 1
 417 681 l 1
 411 652 l 1
 397 650 l 2
 357 645 337 626 337 602 c 0
 337 594 340 584 345 575 c 2
 441 406 l 1
 571 547 l 2
 592 569 607 596 607 617 c 0
 607 635 597 648 572 650 c 2
 551 652 l 1
 556 681 l 1
 815 681 l 1
 810 652 l 1
 792 650 l 2
 751 648 691 608 632 545 c 2
 463 366 l 1
 608 117 l 2
 639 63 657 47 710 33 c 2
 728 29 l 1
EndSplineSet
EndChar

StartChar: chi
Encoding: 967 967 220
Width: 612
Flags: MW
HStem: -242 20G<402 468> -223 74 -223 100<19 93> 389 100<547 625>
LayerCount: 2
Fore
SplineSet
585 -165 m 1x50
 540 -203 493 -222 443 -222 c 0x80
 361 -222 339 -157 325 -74 c 2
 298 81 l 1
 148 -158 l 1
 113 -193 90 -223 33 -223 c 0
 5 -223 -10 -209 -10 -180 c 0
 -10 -140 19 -120 45 -120 c 2
 45 -120 69 -123 82 -123 c 0x20
 104 -123 136 -94 173 -32 c 2
 279 143 l 1
 233 318 l 2
 212 396 204 415 124 435 c 1
 132 464 l 1
 177 469 219 476 258 486 c 1
 284 486 l 1
 343 199 l 1
 493 399 l 1
 544 459 582 489 607 489 c 0
 643 489 663 483 663 453 c 0
 663 412 630 388 589 388 c 2
 580 388 l 1
 580 388 575 389 567 389 c 0
 527 389 491 342 356 152 c 1
 364 82 l 2
 374 -8 393 -74 420 -115 c 0
 435 -138 464 -149 507 -149 c 0
 522 -149 542 -141 567 -125 c 1
 585 -165 l 1x50
EndSplineSet
EndChar

StartChar: circumflex
Encoding: 710 710 221
Width: 440
Flags: MW
HStem: 568 21G<198 198> 673 20G<342 342>
LayerCount: 2
Fore
SplineSet
479 594 m 1
 454 569 l 1
 331 614 l 1
 198 568 l 1
 176 594 l 1
 342 693 l 1
 479 594 l 1
EndSplineSet
EndChar

StartChar: uni0302
Encoding: 770 770 222
Width: 0
Flags: MW
HStem: 568 21G<-332 -332> 673 20G<-188 -188>
LayerCount: 2
Fore
SplineSet
-51 594 m 1
 -76 569 l 1
 -199 614 l 1
 -332 568 l 1
 -354 594 l 1
 -188 693 l 1
 -51 594 l 1
EndSplineSet
EndChar

StartChar: colonmonetary
Encoding: 8353 8353 223
Width: 720
Flags: MW
HStem: -83 21G<361 401 361 361> -13 47 647 47<493 502> 744 20G<515 555 555 555>
VStem: 88 107<190.5 251 251 253 189 389>
LayerCount: 2
Fore
SplineSet
731 183 m 1
 668 65 546 -3 414 -12 c 1
 401 -83 l 1
 361 -83 l 1
 373 -13 l 1
 201 -8 88 106 88 275 c 0
 88 503 272 694 493 694 c 2
 502 694 l 1
 515 764 l 1
 555 764 l 1
 542 691 l 1
 589 684 628 665 673 630 c 1
 703 681 l 1
 746 681 l 1
 746 444 l 1
 708 444 l 1
 666 572 614 632 533 645 c 1
 423 34 l 1
 531 39 627 99 690 203 c 1
 731 183 l 1
493 647 m 1
 323 642 195 451 195 253 c 2
 195 251 l 2
 195 127 268 46 382 35 c 1
 493 647 l 1
EndSplineSet
EndChar

StartChar: uni0326
Encoding: 806 806 224
Width: 0
Flags: MW
HStem: -279 21G<-396 -396> -71 20G<-339.5 -303.5>
VStem: -394 129<-138 -104>
LayerCount: 2
Fore
SplineSet
-265 -115 m 0
 -265 -181 -319 -248 -396 -279 c 1
 -405 -261 l 1
 -355 -233 -325 -199 -313 -155 c 1
 -327 -167 -339 -172 -353 -172 c 0
 -377 -172 -394 -152 -394 -124 c 0
 -394 -84 -360 -51 -319 -51 c 0
 -288 -51 -265 -78 -265 -115 c 0
EndSplineSet
EndChar

StartChar: copyright
Encoding: 169 169 225
Width: 740
Flags: MW
HStem: -13 36<333.5 506.5 333.5 516.5> 651 36<333.5 506.5>
VStem: 70 36<250.5 423.5 250.5 433.5> 734 36<250.5 423.5>
LayerCount: 2
Fore
SplineSet
770 337 m 0
 770 144 613 -13 420 -13 c 0
 227 -13 70 144 70 337 c 0
 70 530 227 687 420 687 c 0
 613 687 770 530 770 337 c 0
734 337 m 0
 734 510 593 651 420 651 c 0
 247 651 106 510 106 337 c 0
 106 164 247 23 420 23 c 0
 593 23 734 164 734 337 c 0
621 391 m 1
 593 391 l 1
 563 470 528 502 468 502 c 0
 365 502 292 397 294 290 c 0
 295 218 344 173 419 173 c 0
 488 173 548 206 586 266 c 1
 616 253 l 1
 577 181 494 141 406 141 c 0
 296 141 220 205 218 302 c 0
 216 429 328 534 463 534 c 0
 506 534 536 524 572 500 c 1
 588 527 l 1
 619 527 l 1
 621 391 l 1
EndSplineSet
Substitution2: "'ss02' Style Set 2 lookup 18 subtable" copyright.alt
Substitution2: "'ss01' Style Set 1 lookup 17 subtable" copyright.alt
Substitution2: "'salt' Stylistic Alternatives lookup 16 subtable" copyright.alt
Substitution2: "'aalt' Access All Alternates lookup 0 subtable" copyright.alt
EndChar

StartChar: currency
Encoding: 164 164 226
Width: 620
Flags: MW
HStem: 101 21G<151 151 555 555> 102 83<324.5 381.5> 516 83<326.5 381 326.5 400> 582 20G<151 151 553 553>
VStem: 105 82<322 379.5> 519 82<321.5 379 321.5 395.5>
LayerCount: 2
Fore
SplineSet
605 152 m 1x14
 555 101 l 1x80
 502 154 l 1
 453 117 410 102 353 102 c 0x40
 296 102 253 117 204 154 c 1
 151 101 l 1
 101 152 l 1
 154 205 l 1
 118 256 105 294 105 350 c 0
 105 409 118 449 154 496 c 1
 100 550 l 1
 151 602 l 1x98
 205 548 l 1
 252 583 299 599 354 599 c 0x20
 408 599 451 584 500 549 c 1
 553 602 l 1
 603 550 l 1
 550 498 l 1
 587 450 601 408 601 350 c 0
 601 293 587 252 552 205 c 1
 605 152 l 1x14
519 351 m 0
 519 440 444 516 356 516 c 0
 262 516 187 443 187 352 c 0
 187 259 261 185 353 185 c 0x6c
 444 185 519 260 519 351 c 0
EndSplineSet
EndChar

StartChar: dagger
Encoding: 8224 8224 227
Width: 620
Flags: MW
HStem: -166 21G<251 289 251 251> 378 94<228.5 235.5 530.5 533> 674 20G<404.5 451.5>
VStem: 373 197<441 450.5 423.5 472.5>
LayerCount: 2
Fore
SplineSet
570 441 m 0
 570 406 547 378 519 378 c 0
 507 378 498 380 457 392 c 2
 392 410 l 1
 397 366 408 339 434 307 c 1
 375 230 345 153 323 24 c 2
 289 -166 l 1
 251 -166 l 1
 285 23 l 1
 296 79 l 2
 306 124 309 152 309 182 c 0
 309 229 304 260 289 307 c 1
 328 347 356 384 367 410 c 1
 359 407 348 405 342 403 c 0
 326 399 310 395 294 390 c 0
 259 381 244 378 227 378 c 0
 205 378 192 391 192 412 c 0
 192 446 214 472 243 472 c 0
 265 472 282 468 357 446 c 0
 359 445 365 444 373 441 c 1
 373 504 369 532 352 595 c 0
 349 604 348 615 348 625 c 0
 348 669 378 694 431 694 c 0
 472 694 497 676 497 647 c 0
 497 628 491 613 465 573 c 0
 439 532 419 493 398 441 c 1
 476 460 l 2
 514 470 524 472 537 472 c 0
 557 472 570 460 570 441 c 0
EndSplineSet
EndChar

StartChar: daggerdbl
Encoding: 8225 8225 228
Width: 620
Flags: MW
HStem: -135 21G<261 305> 117 93<180.5 186> 363 93<225 232.5> 674 20G<406 453.5>
VStem: 144 199<106 169> 346 153<631 646.5> 370 196<423 435.5 408 446 408 465>
LayerCount: 2
Fore
SplineSet
566 426 m 0x34
 566 390 544 362 515 362 c 0
 503 362 493 364 454 376 c 2
 388 396 l 1
 389 372 406 331 429 293 c 1
 376 230 364 212 348 177 c 1
 392 189 403 191 422 197 c 0
 465 209 474 211 487 211 c 0
 507 211 520 197 520 176 c 0
 520 140 500 117 469 117 c 0
 458 117 446 120 415 129 c 2
 368 143 l 1
 344 150 l 1
 343 139 343 131 343 125 c 0
 343 87 350 18 358 -20 c 0
 362 -43 365 -65 365 -78 c 0
 365 -112 330 -135 280 -135 c 0
 242 -135 215 -116 215 -89 c 0
 215 -70 216 -67 286 73 c 0
 298 98 306 116 320 150 c 1
 264 134 l 2
 223 122 195 117 177 117 c 0
 156 117 144 129 144 152 c 0
 144 186 165 210 196 210 c 0
 218 210 219 210 301 184 c 2
 326 177 l 1
 324 204 310 247 287 293 c 1
 328 336 353 369 366 396 c 1
 351 393 341 390 338 389 c 2
 291 376 l 2
 257 366 241 363 224 363 c 0
 202 363 189 375 189 396 c 0
 189 431 210 456 240 456 c 0
 263 456 279 452 352 429 c 2
 370 423 l 1
 370 446 l 2xea
 370 484 367 507 358 551 c 0
 348 600 346 610 346 625 c 0
 346 668 379 694 433 694 c 0
 474 694 499 675 499 642 c 0
 499 620 496 613 442 523 c 0
 421 488 406 456 393 423 c 1
 473 444 l 2
 507 454 519 456 531 456 c 0
 554 456 566 445 566 426 c 0x34
EndSplineSet
EndChar

StartChar: dblbracketleft
Encoding: 10214 10214 229
Width: 392
Flags: MW
HStem: -121 44<168 246 324 402> 671 44<168 246 168 168 324 402 324 324>
VStem: 90 78<-77 671 -77 715 -77 715> 246 78<-77 671 -77 671>
LayerCount: 2
Fore
SplineSet
402 -121 m 1
 90 -121 l 1
 90 715 l 1
 402 715 l 1
 402 671 l 1
 324 671 l 1
 324 -77 l 1
 402 -77 l 1
 402 -121 l 1
246 -77 m 1
 246 671 l 1
 168 671 l 1
 168 -77 l 1
 246 -77 l 1
EndSplineSet
EndChar

StartChar: dblbracketright
Encoding: 10215 10215 230
Width: 392
Flags: MW
HStem: -121 44<90 168 246 324 90 168> 671 44<90 168 90 402 246 246 246 324>
LayerCount: 2
Fore
SplineSet
402 -121 m 1
 90 -121 l 1
 90 -77 l 1
 168 -77 l 1
 168 671 l 1
 90 671 l 1
 90 715 l 1
 402 715 l 1
 402 -121 l 1
324 -77 m 1
 324 671 l 1
 246 671 l 1
 246 -77 l 1
 324 -77 l 1
EndSplineSet
EndChar

StartChar: uni030F
Encoding: 783 783 231
Width: 0
Flags: MW
HStem: 540 21G<-394 -394 -254 -254> 701 20G<-391.5 -368.5 -251.5 -228.5>
LayerCount: 2
Fore
SplineSet
-226 556 m 1
 -254 540 l 1
 -290 621 l 2
 -299 641 -300 665 -295 680 c 0
 -287 702 -262 721 -241 721 c 0
 -216 721 -211 703 -218 634 c 2
 -226 556 l 1
-366 556 m 1
 -394 540 l 1
 -430 621 l 2
 -439 641 -440 665 -435 680 c 0
 -427 702 -402 721 -381 721 c 0
 -356 721 -351 703 -358 634 c 2
 -366 556 l 1
EndSplineSet
EndChar

StartChar: dblverticalbar
Encoding: 8214 8214 232
Width: 600
Flags: MW
HStem: -121 21G<233 311 233 233 389 389 389 467> 695 20G<233 311 311 311 389 467 467 467>
VStem: 233 78<-121 715> 389 78<-121 715>
LayerCount: 2
Fore
SplineSet
311 -121 m 1
 233 -121 l 1
 233 715 l 1
 311 715 l 1
 311 -121 l 1
467 -121 m 1
 389 -121 l 1
 389 715 l 1
 467 715 l 1
 467 -121 l 1
EndSplineSet
EndChar

StartChar: Dcaron
Encoding: 270 270 233
Width: 740
Flags: MW
HStem: 0 29<26 26 26 373 21 26> 0 39<290.5 373> 640 41<402 472 472 522> 652 29<139 472> 740 21G<453 453> 832 20G<612 612>
VStem: 675 107<348 473 336.5 486>
LayerCount: 2
Fore
SplineSet
782 404 m 0x20
 782 269 700 0 373 0 c 2
 21 0 l 1
 26 29 l 1
 43 31 l 2
 98 38 118 59 131 128 c 2
 208 553 l 2
 211 565 213 577 213 587 c 0
 213 621 196 645 155 650 c 2
 139 652 l 1x92
 145 681 l 1
 472 681 l 2
 720 681 782 542 782 404 c 0x20
675 416 m 0
 675 556 592 640 452 640 c 0
 352 640 321 625 312 572 c 2
 228 110 l 2
 226 102 226 95 226 88 c 0
 226 49 255 39 326 39 c 0x62
 605 39 675 280 675 416 c 0
636 829 m 1x0c
 453 740 l 1
 303 829 l 1
 330 851 l 1
 466 811 l 1
 612 852 l 1
 636 829 l 1x0c
EndSplineSet
Substitution2: "'c2sc' Capitals to Small Capitals lookup 15 subtable" dcaron.sc
Substitution2: "'aalt' Access All Alternates lookup 0 subtable" dcaron.sc
Position2: "'cpsp' Capital Spacing lookup 0 subtable" dx=7 dy=0 dh=14 dv=0
EndChar

StartChar: dcaron
Encoding: 271 271 234
Width: 640
Flags: MW
HStem: -9 52<233 293.5 233 302> 448 47<306.5 386 276.5 402> 487 21G<677 677> 653 29<457 463> 695 20G<610 651 651 651 733.5 769.5>
VStem: 65 101<122.5 216 120 264.5> 679 129<628 662>
LayerCount: 2
Fore
SplineSet
695 66 m 1xde
 650 16 600 -9 544 -9 c 0
 490 -9 446 31 446 81 c 0
 446 90 446 96 451 122 c 1
 438 100 366 -9 238 -9 c 0
 134 -9 65 66 65 179 c 0
 65 350 198 495 355 495 c 0
 417 495 461 477 508 433 c 1
 534 577 l 2
 535 586 536 593 536 600 c 0
 536 632 522 644 473 651 c 2
 457 653 l 1
 463 682 l 1
 532 689 565 697 610 715 c 1
 651 715 l 1
 549 165 l 2
 543 142 540 119 540 96 c 0
 540 64 561 43 594 43 c 0
 620 43 637 53 672 87 c 1
 695 66 l 1xde
499 389 m 1
 462 431 427 448 377 448 c 0
 236 448 166 277 166 155 c 0
 166 85 202 43 264 43 c 0
 323 43 377 78 420 142 c 0
 453 192 470 241 491 347 c 2
 499 389 l 1
808 651 m 0
 808 585 754 518 677 487 c 1x22
 668 505 l 1
 718 533 748 567 760 611 c 1
 746 599 734 594 720 594 c 0
 696 594 679 614 679 642 c 0
 679 682 713 715 754 715 c 0
 785 715 808 688 808 651 c 0
EndSplineSet
Substitution2: "'smcp' Lowercase to Small Capitals lookup 3 subtable" dcaron.sc
Substitution2: "'aalt' Access All Alternates lookup 0 subtable" dcaron.sc
EndChar

StartChar: Dcroat
Encoding: 272 272 235
Width: 740
Flags: MW
HStem: 0 29<26 26 26 373 21 26> 0 39<290.5 373> 337 43<90 169 82 177 277 469> 640 41<402.5 472 472 522> 652 29<139 472>
VStem: 675 107<348 473 336.5 486>
LayerCount: 2
Fore
SplineSet
782 404 m 0x10
 782 269 700 0 373 0 c 2
 21 0 l 1
 26 29 l 1
 43 31 l 2
 98 38 118 59 131 128 c 2
 169 337 l 1
 82 337 l 1
 90 380 l 1
 177 380 l 1
 208 553 l 2
 211 565 213 577 213 587 c 0
 213 621 196 645 155 650 c 2
 139 652 l 1xac
 145 681 l 1
 472 681 l 2
 720 681 782 542 782 404 c 0x10
675 416 m 0
 675 556 592 640 452 640 c 0
 353 640 321 625 312 572 c 2
 277 380 l 1
 476 380 l 1
 469 337 l 1
 269 337 l 1
 228 110 l 2
 226 101 225 94 225 87 c 0
 225 50 255 39 326 39 c 0x74
 605 39 675 280 675 416 c 0
EndSplineSet
Substitution2: "'c2sc' Capitals to Small Capitals lookup 15 subtable" dcroat.sc
Substitution2: "'aalt' Access All Alternates lookup 0 subtable" dcroat.sc
Position2: "'cpsp' Capital Spacing lookup 0 subtable" dx=7 dy=0 dh=14 dv=0
EndChar

StartChar: dcroat
Encoding: 273 273 236
Width: 640
Flags: MW
HStem: -9 52<517 607> -9 60<235.5 257> 435 60<353.5 386 276.5 403.5> 548 37<357 528 350 535 627 717> 653 29<457 463> 695 20G<610 651 651 651>
VStem: 65 107<124 196 124 264.5> 446 94<80 85.5>
LayerCount: 2
Fore
SplineSet
695 66 m 1xbf
 650 16 600 -9 544 -9 c 0
 490 -9 446 31 446 81 c 0
 446 90 447 97 451 122 c 1
 414 70 393 48 355 25 c 0
 320 4 276 -9 238 -9 c 0
 134 -9 65 66 65 179 c 0
 65 350 198 495 355 495 c 0
 417 495 461 477 508 433 c 1
 528 548 l 1
 350 548 l 1
 357 585 l 1
 535 585 l 1
 535 600 l 2
 535 633 520 645 473 651 c 2
 457 653 l 1
 463 682 l 1
 532 689 565 697 610 715 c 1
 651 715 l 1
 627 585 l 1
 724 585 l 1
 717 548 l 1
 620 548 l 1
 551 165 l 2
 540 113 540 113 540 96 c 0
 540 64 561 43 594 43 c 0
 620 43 637 53 672 87 c 1
 695 66 l 1xbf
500 389 m 1
 469 419 428 435 379 435 c 0
 328 435 279 411 246 370 c 0
 199 313 172 234 172 158 c 0
 172 90 206 51 265 51 c 0x62
 320 51 377 86 419 147 c 0
 449 190 477 268 492 347 c 2
 500 389 l 1
EndSplineSet
Substitution2: "'smcp' Lowercase to Small Capitals lookup 3 subtable" dcroat.sc
Substitution2: "'aalt' Access All Alternates lookup 0 subtable" dcroat.sc
EndChar

StartChar: Ddotbelow
Encoding: 7692 7692 237
Width: 740
Flags: MW
HStem: -210 121<284 297.5> 0 29<26 26 26 373 21 26> 0 39<290.5 373> 640 41<402 472 472 522> 652 29<139 472>
VStem: 231 121<-158 -139.5> 675 107<348 473 336.5 486>
LayerCount: 2
Fore
SplineSet
782 404 m 0x10
 782 269 700 0 373 0 c 2
 21 0 l 1
 26 29 l 1
 43 31 l 2
 98 38 118 59 131 128 c 2
 208 553 l 2
 211 565 213 577 213 587 c 0
 213 621 196 645 155 650 c 2
 139 652 l 1x4a
 145 681 l 1
 472 681 l 2
 720 681 782 542 782 404 c 0x10
675 416 m 0
 675 556 592 640 452 640 c 0
 352 640 321 625 312 572 c 2
 228 110 l 2
 226 102 226 95 226 88 c 0
 226 49 255 39 326 39 c 0x32
 605 39 675 280 675 416 c 0
352 -139 m 0x84
 352 -177 317 -210 278 -210 c 0
 250 -210 231 -189 231 -158 c 0
 231 -121 265 -89 303 -89 c 0
 331 -89 352 -110 352 -139 c 0x84
EndSplineSet
Substitution2: "'c2sc' Capitals to Small Capitals lookup 15 subtable" ddotbelow.sc
Substitution2: "'aalt' Access All Alternates lookup 0 subtable" ddotbelow.sc
Position2: "'cpsp' Capital Spacing lookup 0 subtable" dx=7 dy=0 dh=14 dv=0
EndChar

